<mxfile host="Electron" modified="2023-12-11T05:43:50.584Z" agent="Mozilla/5.0 (Windows NT 10.0; Win64; x64) AppleWebKit/537.36 (KHTML, like Gecko) draw.io/22.1.2 Chrome/114.0.5735.289 Electron/25.9.4 Safari/537.36" etag="Sge2cMcvL3kNrW65xN5P" version="22.1.2" type="device">
  <diagram id="C5RBs43oDa-KdzZeNtuy" name="Page-1">
    <mxGraphModel dx="1892" dy="1677" grid="1" gridSize="10" guides="1" tooltips="1" connect="1" arrows="1" fold="1" page="1" pageScale="1" pageWidth="827" pageHeight="1169" math="0" shadow="0">
      <root>
        <mxCell id="WIyWlLk6GJQsqaUBKTNV-0" />
        <mxCell id="WIyWlLk6GJQsqaUBKTNV-1" parent="WIyWlLk6GJQsqaUBKTNV-0" />
        <mxCell id="zkfFHV4jXpPFQw0GAbJ--0" value="Product" style="swimlane;fontStyle=2;align=center;verticalAlign=top;childLayout=stackLayout;horizontal=1;startSize=26;horizontalStack=0;resizeParent=1;resizeLast=0;collapsible=1;marginBottom=0;rounded=0;shadow=0;strokeWidth=1;aspect=fixed;" parent="WIyWlLk6GJQsqaUBKTNV-1" vertex="1">
          <mxGeometry x="240" y="-60" width="219.78" height="430" as="geometry">
            <mxRectangle x="240" y="-60" width="160" height="26" as="alternateBounds" />
          </mxGeometry>
        </mxCell>
        <mxCell id="4rIS1Nqq_IUm1r-qYgcu-8" value="" style="shape=image;verticalLabelPosition=bottom;labelBackgroundColor=default;verticalAlign=top;aspect=fixed;imageAspect=0;image=data:image/png,iVBORw0KGgoAAAANSUhEUgAAALwAAABdCAYAAAAfUQyMAAAAAXNSR0IArs4c6QAAAARnQU1BAACxjwv8YQUAAAAJcEhZcwAADsMAAA7DAcdvqGQAABZ0SURBVHhe7Z0JeBPl1sf/03RN19CVttAFaKFlUcsiOwioWCpYlrK0lFJcuCBcECoX8cqiVgREvSii4MdWsChW9F4VPkCxIKLIomVfCw9Ll5QlpGuSuTPJpE2TyUyGpMA17+958nRm3pk55z05eWfpnP9QiR0eokEgOAku3F8CwSkgCU9wKkjCE5wKkvAEp4IkPMGpIAlPcCpIwhOcCsGEf7iZAu9366z/sNMPErRvRyQPfxRhtOP/jUDTCiSlpKF7OP++7bFN+3TBxLlT0T+E/PvjfmA14b1dZZie0A5Lio7rP+w0u+yBQdEJKcO7I4KbtYeY1AV4fVQbbo4lCI8MHYUeLbhZc+yxTWuhqauDxsZ8t/SNYA9WEz5S7o3zKhUuqyv1H3aaXSYGTbvDt5kf3EHD1ScMLUJ9ITMZCU3bZf4tEB3sybWwbTLIgyMQ5sP/w6LhBkV4JEK8Grcb9+nJrGFE5hWAZhbrsfuPRLjCEy6cT65yBULDoxAd0RyBZvswxZptydwpQsGazfitrMFvNhaURzOEhwXop43Y6hvBdmQhoWHzuel6EgL8MaVtPFr5+aJbUCAeD2+OOGZZgsIfxXfUKKuu4dbkQdYXc/MzEVXbE1Nmj0DfQWlIHxyL238ewLlbOq59Etp5PYEZM1ORqD2C7X8o4RnzJGblvoEpyT3RNzUDKYnAmYNFKK+j9Lv1bjcSry6Zj6yBj6LfsGS0qlEhMM4Fh7bux1VZP/0+vb/dgVM1hvXjsz7A60kX8NVvJfp5z+gn8VLu65g8pDcGDB+HpxJpnNp/DKEjGZuPRUAR2RZde0ZBtWcfztcGImnoQHgcysf+K5Sg7WuUwZ4Rmo5B6vx5SJYdxv4LldxSE7j+s76erGP9zkIs3QPPTR2FISMzMKKHD87t+R3XNRQSRlv6dqG2sT2CNHhH+N6hIYj394O/mxs6Mufu7Iedjvfz07eJ0wH9Ew5g7vgJyM5Ix7zCUEyaOQIt60f61mgty8f0jDGYsfEUaJfWGJszAYpd/0DG+InIHDsV+boUvJzdGe7MNrRLAsa/NBwuX87A2MxsZE58E1c69Lb5lIKmWmFMThaa/TAXExifMtJnY7fPaEwfGYuiDS9hyQ/luFn4Ll6YvAS77pglsGTbWtQyA0KNhvlx20Q7tPf6HDMmZWF85j+xVz4U6clh+hYx3wjSEb1L82u5Uv+RRhn2bPke13UUKKoKJzcX4FBEd3Q3fI8MF7G34FeUcKMxWvdDL9+fsXnrWVQzIyalu4btG/4fNT37ohPbHt8L3dwK8dk3xdCw7bUX8cW2X1Cl39gG2vRHb9+92PT5WVQx29PV57AxJw3TN13kVhBAom2KuoT/LH4FK36yNWbF+Pm746hk9q1VHcIu5lyneYS1iweCvYgmfN75C/qPNCqgZM5R69Fch/JWMwTWHxw0YK7bGggNRGBZKa6ZDopXS1AqD0aInJkOUkBRoUSpySmspkyJW9y0KOz+leUoMdme0jE+6Gw4J7bXtig1qDb59agrKyGTuXJzBEcjmvC5jzyk/0gjGGHNTQ6/HuEIC1CizHA6bcn1cpQHhyLc1JuIMIRUlqGUPQ0urUBFcBgiTNrdwkJRf6NUp4VG5wN/f26eQcFcf9RTooQyKAyRJttTrl7w8Wy4AGXGbm7KDDHb9wCrvhEkw5vwNVotNwXIXV31HyOmbdZRoHfaMLR0Zc6/aV90yhyBjsX7sNdawp/9AT/d7o6xafHwYs/ZZZEYMn4g3H/6AUfY9jN7sL+qJ8aktTG0e8Vh7DNd4KbfmIEuxuWrkeg9cgCifP0Q3SMbw5I8uEaGM+z+eyBtTDzkzPaUZxwyluYhN9VwJl5VVQ3/mDYIdeEZ8cVsm0HT/uiQMg6DWjfcfbIHQd8IkuFN+ILiy/jk9FlsOHe+0YddxraJcwq7j7bFP9fnYd3mdXjl4Yv4aPmXFnc0jFD0eWx+azVKeizEhs0bsOmz5Xha8yVyPz2EOva8WXcaG9/Ow50Bi7Exj2n/ZAb8CnfgknF76iIKPt0GddLfsWLDx3jlcRV+2lvOtbL7P4dNb32MMmb/6zZtQN6mXPQuX4/3thTr2y/t2Io97k/jw4JleCawcWKJ2baAikbfEcOR0rU5t8A+hHwjSMfhFU+0y2NYsO0pHE5/Cf+uaYYgeTXKlJXQWUl2U5gBFB6KYPhUl6Oi2tIt9j66b3AQZLdLcauWp50Zd+UeOlTV8B+FDPsPhX9dOcrUjdehaQoeXm7QVNXw+ipm2xTaRQZXrQZaG/psC2K+EWyHd4R3FNrqGyipqLL5S2JXq71ZxpvsLBSlxZ3yEqsJR6HOarKzGPZfYpHsLBRFo7a61qqvYrZNoZhrCkclO4uYbwTbcXzC00qc+rUI12u5eQLhAYIUcROciiY9pSEQHjRIwhOcCpLwBKeCJDzBqSAJT3AqSMITnAqS8ASngiQ8wakQTHjnVi0Yg4FxXtySBvw6PIXRPVtyc39dmjK+fNwrNQerCU9UC8Zh+pwXkOTV+AtQdErGqF5R3Nz/JjYpITRpfHmQqOZwt1hNeKJaoMMt92548W894SMyytG0K/zDohAZ4M4tafBJ3095MMJ8G3xx8QxGZKgfXM32a/SvObMfo3/24OIRgPDwZjYrIdirzGCrPd4ckKDmYMTUX5ryhL9C3ijX+OB9loZVLZgcH4cwuReKVXf0y6J8fXC9qgorT57G8ZvWC9wMjwcPwqW1Vej1TAx0Oj/4V/2G1W8uw/biuvrHh8sLgF5PhuPa1wv0hdysasH0nInoLFdBzQROeyIfS5fm44Ta8IQgqxzwcs5otKVuoNJVhz++LULcEBk+GfMODsoG1D+SvO2WYf22z67BP9zeR+aHR/XzrGrBtJwsJHlXos7bHzVFm/F27ha4jXoHMwa3RhBVgWs3j+Pz2W9jpyoOz615C/5b3oPH+OehWfU3LC409Dkq/QMsj/gMqYsL9Qka/eQszM7siqDqW9D5+6Ji93K8umIfKvQ+PYFr+Tp0f7wF5P5euFrwNvK0IzF1YAjc/ANQe/hDzJn/Ha5TFOffBDzidQeVXn7QHtuExbkFOKuxfELSoIwwBbGFi7Fst2ktpQH2Bxg3bC7mjEsArVTDU16FXz6ehxX7bqJ9xjKL/rLF4YLxRWwje+b2pdrbWWn4vkxz4O+bIuq/w69UhthdyVOj84Bo+ASGwPXyNrw152McrjLEwydhFHJmp9X7W/T1EUQN88Baxt/fBZ4q5R3hiWqBAfrWHrz/4REkvjAd/RU8I4esFbp088SviydibFYWMrLXQNk/A0Pqz3gS8bDvFryYOQ7pOd/Da/ireD5gC6ZmZSDjubUofSQNyfGsf7EYzfzYA3bmIGNCNrLSZ+AbtzTMHGPtNEBEGcGzL9IntsC+ueMwaTKzv0U/wuuhhxDExJKvv+LxNbdnNi/RnoHGOWCJdTUH2iURmbNSQRU0+Hvp4X6I1rcKI3qXxtlVC27vW4EPD8bi2emD9V+gKWw11BcLF2DdkdvwCGyJ2FgfoCYSkTHcCijGT98cgoqmUHPyII7dvonDew5AxcRFU7IfRy4GIiiUWa3NY+ijOIrdP1dBERKCUEUtDhT+iZBODyPQzCaLqDJCzRVcU/ohvk9PtFG4oe7sF1jywY8otzbyicTX3J6Ffan29JjlgAUCag5te6GLrBD52xr83VrwC3hUgCwQTXhnVy1gf7D7V76HnyOzMGNI80bl1DQC0C1jHt5ZvR4rc2dhUkpryGvZHzm3ApMyahU3yVwT0LQGtfV1Ahpomf7qV2X9c0tA2muLsHCh4bMgtSXKNW5opl9XGhROIm/JJlyNTcNrn+Rj3dKZGNEpyPp1gZ3xlWxPj1kOWCCg5hAYAMWNCmZYbUCjrMBtbloI0YR3etUCBqr6MFYv34Xg8bMwpLnJTtqPwdSh3ti7cBImPD8dOfP/D7/fjX4H2z9VId554XnmsP9Cw2fOJpwRHCWtozqxDe/Nm4Jxo7Lwxg9yPP3yBHQxUf9o1F8HKDNIsmcv10pRGtoCMSb7l0dF2jQ4mKZYPUS1wJKqok+x/Hs5BvUxEUmSyeBSp0bFjRqmn0DAQ8PQp/50RgJnduOnqn5IH8EcIdj+uTDxm/Yulo9vz3vXQUwZgW4xFG+snItBgcwPWnubOVgyF9TeAQjgQmLRX5H4mtuzmJdqz17O7MCOK12RNXMIOrQMR1SnFLw4NJHnPo4lvAlPVAssoSgNjq9bhq0XNNwShqNfYO2hKLy4/jOsXfMpFg+rw+nzXJsEKN055L31Ccp7L8LavPXYuHEF0pufwbYdJ/hrY8WUES4V4rsjfhj13kasW78ZG2Yn4sTK1dip5prN+iuqzGBuz3xeoj17oagr+GLRfOzU9cJz8xYiZ3QsDm3ZjoZv3DpEtYDjbpUB2O282H1qy1CisuXoJ4yrbxD8GP8qqrkFVrBFGYGGJ3PdJEd1uRKVzIWyKXz9FYqvuT0++1Lt2YOLXA5PtVp/UctCd5yCvGl1WJC9SvA0kHeEdxR/JdUCa7DbVd+87pBkZ9GoxJOdxRZlBArVqGDOz82Tj4Wvv0LxNbfHZ1+qvbuFpkMx9LXVyJ06GElxcejUbzhmZvdB9cEDEDvA8spl24cfwlvJcLnwCK7w/NOEQLAXilLj1O/n4N3pMTw+qC+Sov1w4+AG/Gv9QahELo6JagHBqWjSUxoC4UGDJDzBqSAJT3AqSMITnAqS8ASngiQ8wakgCU9wKkjCE5wKwf+0skoFczu2x+DIcH153/UqG/7nfY9gq+qHpMRAdfwy7jjg39WmsKoFnZ9ORf/OHdChQwe0j4tCsE8dlFdvoNbKf/LYqvvsWakIOHUAF7myxPuFI2NjiEUyIm8ex1WeftGIQf+xneF++hyU2vvbb1uwOsIT1YLR6NNGAUWAAoEtOuKJ5xZj1eI0tLb2iOs9qrq3CQfGxhCLVHStr1YzwyUG/cY8iXb8Tyo/cFhNeKJaUIcz36/ABx9+gBXvvomXn5+HHwPGIWOQL38fTKrujfDZM2Jsc5RCgZjigLXY2ho7FplnIFpENGu0Lh+O7psj4T2lYVULprSNRys/X3QLCsTj4c0RxyxLUPij+I4aZdU13Jo8yPpibn4momp7YsrsEeg7KA3pg2Nx+88DOHdLx7VPQjuvJzBjZioStUew/Q+lXrVgVu4bmJLcE31TM5CSCJw5WITyOsNhkq2qf3XJfGQNfBT9hiWjVY0KgXEuOLR1P67K+un36f3tDpziaiTjsz7A60kX8NVvhqoTVhXgpdzXMXlIbwwYPg5PJdI4tf8YQkcyNh+LgCKyLbr2jIJqzz6crw1E0tCB8DiUj/1XDPujaCXc245AH/df8fXR9hZ9+P6YYZnRB2v22MO+oW0RXniqB/o8MwbJCRqc+PkEKnieMjQoBMxDsuww9l/gr9oUig1bgyAYW+77sB47Nhb94FcTjNEznsXAvk9j3Miu8Dz3G46WMHlAMac0Y9rg+pem/batb/cD3hGeqBZYQqMl2sS4o/SasWzLetW9kD1HKxSIxUYstrbhj+6PaLDi2QxkZ43DlE9VGDQrG108G28vvW/3HtG7NM6rWuCKln3GYezYscjIfB5z3nkTyfRX2LzjJtcuUHUvZM/RCgVisRGLrU3ocPTfeThZxX6fWlzblYfd6kfRoz3XbERi3+4HognvvKoFFNy9fOHn6wu5TIVT/1mKadPXoKj+GX+Bqnshew5WKBCNjVhsbaISSqXp8HIdZRVyNAsy0950dN+aANGEd17Vgjqc3f4RPlq1Cqs+3YSvdh1Bia233YTsOVqhQCw2YrEVi50eb4SEmt6wYC5Ig+8wg5rZMdbRfWsCTMNQD1EtsBMhew5WKBCNjVhsxWLH0T4lCw/5MtvTrohOSUd/9wPY9yfXaERi3+4HvAlPVAvsQ8ieoxUKRGMjFluR2Bkoxa6dakxY+RnW5eXjnRGu+GbJGvxe29hfyX27DxDVAg5HV9WzCNljcahCgVhs9L4IxFYkdiyUqx+CmXOlitJb+gtkIWzt272mSRPeqORLIDwo8J7S2AWtxKlfi3C9XkORQHhwIKoFBKfC8SM8gfAAQxKe4FSQhCc4FSThCU4FSXiCU0ESnuBUkIQnOBUk4QlOhWDCs6oF73frrP+w03fLvX5vvxF7399v7/b3m3sd9/+FeFlNeIeqFji0il4CEpUELNQLHiQlAjMslRZ4aFJlBx4e4HgZsZrwd6taYMS2Knrrle187+03YtzWVA1ATEnAtJ1PTYFXvcCqEoH16n92/5RHM4SHBfD6LhW+OFhXWmD8EIm7GLbakxJvoXiY+ktTnvBXyJv02XneZ2kSAvwxOT4OYXIvFKvu6JdF+froxZhWnjyN4zeFi+uE3tvPvgefrWyfljMBj3jdQaWXH7THNmFxbgHOaigmUNbf289i2DYLSd6VqPP2R03RZryduwUn62x5f/8gXFpbhV7PxECn84N/1W9Y/eYybC+uQ/uMZZgxuDWCqApcu3kcn89+GzsrDfs0PvnJVv9Pz5mIznIV1ExiaE/kY+nSfJxQs69vZ58SfQJX8tToPCAaPoEhcL28DW/N+RiHqyyfGjWoEUxBbOFiLNttWg9pQCgOfL6yxedCcT+I2Eb2zO1LtWeMjXC8hePhkzAKObPT6v0t+voIooZ5YC2XJ00B7whvj2qBaBW9WGW7wHv7hdQADIi9v9+6moKYeoFt1f/t0N7rc8yYlIXxmf/EXvlQpCdbUzASViMQigOfr+LKDub2zOYl2jMgFm/r8aBdEpE5KxVUQYO/lx7uh2h9a9MhepdGsmqBWBW9WGW70Hv7RdUHxN7fL6amIIBN1f/F+Pm74/pXKWpVh7CLObY3jzB5kbEJomoEQnHgQyTu5vYs7Eu1p0cs3gLxaNsLXWSFyN/W4O/Wgl/Ar7zjOEQTXrJqgS1V9AKV7YLv7RdSA9AjoCSgR0xNQQCbqv9rUG1S16yurIRMZvJ+dAkIxoEPO5UdJNvTIxZvgXgEBkBxo4IZghrQKCtwm5tuKkQTXrJqgVgVvQ2V7Vbf22+D+oAw4moKzFjDTZkhVv3fBFiNA0cjX8XibgOS7NnLtVKUhrZAjMn+5VGRTS7nwZvwdqkWiFXRi1S2C763X0R9QBxhNQVB9QKx6n+JiKkRCMaBwcJXkbib27OYl2rPXs7swI4rXZE1cwg6tAxHVKcUvDg0kec+jmPhTXh7VAtEq+jFKtsF3tsvpj4gjrCagpB6gVj1v2RE1AiE4qBvNvNVLO4W9sznJdqzF4q6gi8WzcdOXS88N28hckbH4tCW7TDXS3A0TVbiJ1ZFzyJU2S783n5hNQA+bFVTEFMvMNi2Xv0vBZvUCATjYOmrUNzN7fHZl2rPHlzkcniq1fqLWha64xTkTavDguxVTSbcxDvCOwKh9/Yb0aisyzgIv7cfqL1ZYnOym6OtvoGSiireL42iaNRW11r9Qg22y+xOdhZKpxVMdhbhOFj6KhR3c3t89qXau1toOhRDX1uN3KmDkRQXh079hmNmdh9UHzyA89w6TYHgG0D+WvghvJUMlwuP4Eq9PiThfkFRapz6/Ry8Oz2Gxwf1RVK0H24c3IB/rT8IlSMvjs0gqgUEp6LJTmkIhAcRkvAEp4IkPMGpIAlPcCpIwhOcCOC/DLPUioVaawgAAAAASUVORK5CYII=;" parent="zkfFHV4jXpPFQw0GAbJ--0" vertex="1">
          <mxGeometry y="26" width="219.78" height="93" as="geometry" />
        </mxCell>
        <mxCell id="4rIS1Nqq_IUm1r-qYgcu-11" value="" style="line;html=1;strokeWidth=1;align=left;verticalAlign=middle;spacingTop=-1;spacingLeft=3;spacingRight=3;rotatable=0;labelPosition=right;points=[];portConstraint=eastwest;" parent="zkfFHV4jXpPFQw0GAbJ--0" vertex="1">
          <mxGeometry y="119" width="219.78" height="8" as="geometry" />
        </mxCell>
        <mxCell id="4rIS1Nqq_IUm1r-qYgcu-9" value="" style="shape=image;verticalLabelPosition=bottom;labelBackgroundColor=default;verticalAlign=top;imageAspect=0;image=data:image/png,iVBORw0KGgoAAAANSUhEUgAAASAAAAENCAYAAACvsbhoAAAAAXNSR0IArs4c6QAAAARnQU1BAACxjwv8YQUAAAAJcEhZcwAADsMAAA7DAcdvqGQAADxgSURBVHhe7Z0HfBPl/8c/aUvpnkALtJS9EZAlmwooUvaUlgIFBBUUGQJ/xIGoyNafKCAbKUhFGY6f+AMUWYJsi4BsEGhp00HpHvnfJZc2TS73XJKWC+33/Xr11SR398y7b57nkjxvVZNmLTQgCIJQAAfhP0EQxGOHAhBBEIpBAYggCMWgAEQQhGJQACIIQjEoABEEoRgUgAiCUAwKQARBKIZjlYDA94THTJ4d0hB9x7VAzUb+uHVZjZysfGFLcTQaX7TuNwihrZuhWbNmaFo/BJU9cqG+l4wcqIS9bEfj+RT69K2FtL/v4JGq5NI1ROPXC+++0xa3D5xHcvBQLJheD7G/XkJ6KeVHEOUJ2SOgps9UR0CID1bPPYjrsYkIG9Nc2CJGJTzd/0V0qecLXx9f+Ac/hecnLMTqhcNR16EEv3jt2xx9B7dHdeGpLdQaNA8fDKsnPNOh0Tii6ZCBqHDwR9zQcAHn9o/4TdMXQ1tUEPYgCMIWZAeg6nV88dexf5GdmYuTv95EEPdcmlxc+XkFPv/ic6z45CPMmjgXv/lEILKnJ3dhO8PTzwvO0MDROxg1K7sIx+guerfK1RHo4Si8UhwNKsC3WhCquBbfrk/ThdtDj6OrD/xM9uPTD0I1Xxc4aHT7Orn5IqBaCGpWrwp/wzQ8u2Loswk4/HuK9qlKlYnDh+6g87Be8BWOJQjCekSnYJWqeWDoa63RKrQmWnYN0f7x067gen5ISczkplKP8O+1ZDxUZwpHGOOPVv17oOLp7Th2VzdVUWnUcG44BF2cT2DPuaaYs308Grk+j6nTBqFJ/lnsPa+GS61emLHgQ0wK64iugyLRtwlw5WQsEnN1abg3Goq3F7+HqB7PoNuAMNTJToN/fQec/vYY7jl206bp/tMvuJyt279B1Of4oNUN7PozXvvcpWYvTF/wAV7p0xndB0egdxMNLh+7gIChXJ7PVodvUEO07RiCtINHcCOHS6P5QLzaLA7ffHsaycKUK0cTgp4RdXAv5jDulOB0kiDKI6IjoPotAlH3qQDUalyp8M/b3w1VgrzQsnOwdp87/yRp/8tFgxqoV8sZD+7rggFQF3Udt2NK5AhM3XIZGoe6CJ85Br77/w+Ro8ZidPhkbC/oi1njWsOZG21oHBpj1PTBcPhuKsJHj8PosR/hbrPOsqdfGlUdjJgZBb9f52DMqDGIHPkmDni8iClDayP2q+lY/GsiUg59gpdfWYz9j3SBxa9qANzi7uOe9pnAv/cRVyEQVSsLzwmCsBrmFOw2F2hij/4rPOOQffPVCTW6RCA8PByRoydi9rKPEKbZhW2/6KYzwE0c3nkC8cJoBXW7oZPnUWz79iqyuDxUBfex96v/IbtjV2jvNjXohHYVDuHr728hj9+ecxM7dv8Bc2MwE+qForPnYWz95ioyueM1WdewZeZwTNl6U9jBlKDqgUjhAhC/fyG5dxGfHIhqujhMEIQNMAPQsf9ew8/RF4RnlqCCs6snvDw94eaYhss/LsHrU9YhNk9/MechN1d4yBPgD/+EB7hfIDznuRePB26VUcWNe1zJF75JajwwuPWSl6BGqvCYCZ++OhHxBserCrgyFEjcy+EDlci9Hu1LcuMwQRBmYQagwa88jVcWdBOeWUIuru5dhVWrV2P1+q3Ytf8s4vMlrtq4RCRWDkA1wxJxI5AqGQl4kME9fpCEpMqBqG6wvUJgAApvhRfkI6/AA97ewnMOXy9P4RFHvBrqSoEIMjhe5eQKD5eim9TcuEp4pOPu3Tj4BgbCxTAIVaiKQN943L8jPCcIwmpEA1BuTtH3e5ycHeHuVVF4VnxbiXL1V/z+sD3ChzeAK3/PxzEIfUb1gPPvv+Isv/3KQRzL7IgRw+vptrvWR/jANij8QFxzC3fuBaHz0O4I8fRCzQ7jMKBVUblxhU+/A4aPaAA37niVS31ELonGgkG6u0iZmVnwrlUPAQZfE1Dfj0NmYPXi95mqV0NAXhzuPxCeEwRhNaIB6PyRf/HjpvP4dcfFYn/7vr6A/TF/C3uVLCrNdWz7eC3iO7yPr7Z9ha1fL0e/vO+wYP1p5GrvCf2DLYui8aj7QmyJ5ravmQqvQ7/gtv541U3sXL8b6a3ewIqvvsRbz6Xh98OJwlY+/WvY+vGXSODS37T1K0RvXYDOiZvxacwt7fbbv3yLg8798MXOpRjoLwShi3/holcIavNTQAG3OjXh+88F/G06MyMIwkLsbklWfrZT0bcyPLISkZRlWjT+ezyelSvB8eEDpOaIbOfGRG4VC5CZbe5b2nz6AfDOTURCevF9NBoVKrpWQF5mNgq0938c8dSrKzHk+nS8uzeNe+6K5977DI2+fwX/OW14A4sgCGsQHQEpCf+BU05Kgmjw4VGp8vEoMV40+PCokGs2+PDo0o83CT48KpUGOVk52uCje56P8zF7oOrRD7W4bQjug54uPyPmVI52O0EQtkGL0hMEoRh2NwIiCKL8QAGIIAjFoABEEIRiUAAiCEIxKAARBKEYFIAIglAMCkAEQSgGBSCCIBSDAhBBEIpRKlYMOZA5o3TQeLTBuBmD4HP5OG6mm+b/ONqDIOQiewRkmRVDDmTOKBU0+cjLzUWeuSYswfYgCFuRHYAst2LIgcwZYvBl8ncvHsBUFb3g71lUHrNt8CgWO9dtw58JwnMOc+1BEEojGoB4K8boOR0w9p3OhX/NOlRH6KAGqP90IDQFGsR89qewd8nBr/nz15VcVAuqxl2FnTB90zuYMHYpotcsxJTnQ7T78OaM2au2YdOS9/Hx2hise3cYGrkXXei8OWP+hq+x+qP3sGjNSkzvZBAohTSfN1g1sd7IpVge1VR4pjNnzFq5FRuWzOeO34o184ahQUUNGg6ei5c6+MKzbRQ+/HAiOnoIBzRqgUZpN3A1XXjOkX7tBlIaNkVjMzMcjaYWBr67BNOfFV/Z3qXD6/hySQRqGgSbNq+uxvLRjbXPJdvAqI6S7UEQCiMagErDiiGH8mPOyEdOVjay8wwXwC7i0aFfcdK/I7rVFV5wbI2ubbNxeP9p5DvWk2wDQ2xtD4IobZhTsNtWWjH82k3E4rWbsW75LAxu5KV9rW7fGRjfyUf7WEf5NGeoVLfx48K3sOJ3tfCKEdlH8esxD3Ts2kD7tEK7zmidehD7+GUYWW1giK3tQRClDDMAWWPF0GhC0HdMKFJi3sXHu1PQ+a3PsHDW25ga0QROyWnCXjxkzhCDXwjtxP7DcOnYDfU1TmjfqQ3iDu7DdT7IsdrAEFvbgyBKGWYAss6K8QB7l83Cyn3XceW31Zg+5WPsvXAOOz94E2ti84R9eMicYY78c//DYXREaIv26NT6Lg7uE1a/ZrWBIaz2IAiFMTyNC7HVisF/EhR35RaSCnQXa776Ig78sAf7YhORbzhVsZQyYs7QaLzRrG8EetYt+mTPGJXqH/zvYAY6Th6FFtd/w359Wqw2MITVHgShMKIBSAkrhhzKjDlDVRNdhwxG37ZVhRfEufbLQaQEVMLF/QeQKgRuVhsYwmoPglCaJ3JNaO7N/Ik3Z2gcHOGUn2f1iJDVBoaw2oMglEJ0BGTv8Nfsk27OUBXk2zQdZbWBIaz2IAilICsGQRCK8USOgAiCKBtQACIIQjEoABEEoRgUgAiCUAwKQARBKAYFIIIgFIMCEEEQikEBiCAIxaAARBCEYihmxbCUsmDR0NWhP2o+isW/aaZpi+VtT8aN0oZl9CDKHrJHQCVvxZDG1EBRFiwafB2GoYOZlRKN8+Z/RGpXxg0GYtYQi2AZPYywOT9CcWQHIGusGIY2Bo3KBd6+bnDkf8YtwF9gvH2iqo9zoe2Bx6yBoixYNIyQNFbYYNwQK5Mec+1h2Iaqin6oFuijfWyMQ0UfVKvmV2yb3PpKYmD0YJWlRPIjFEd0CsZbMYa+1hqtQmuiZdcQ7R8/7Qqu54eUxExu2vMI/15LxkO1+dWFPRoPw9uL3kNUj2fQbUAY6jlVxaDp7RD37THc56YPvH1i+oL5eLl3B3QZOAJhjfNw8ehF7SJmjV/8EJOerQ7foIZo2zEEaQeP4HqOP1r174GKp7fj2F3d8FylUcO54RB0cT6BPeeaYs728Wjk+jymThuEJvlnsfe8WmuQmLGASy+sI7oOikTfJsCVk7FIzNWlwVsj3l5cVM462Wnwr++A01w57zl206bp/tMvuCysS90g6nN80OoGdv2pWzhfV48P8Eqfzug+OAK9m2hw+dgFBAxl10Eqb76N0HwgXm0Wh2++PY1kYcqVowlBz4g6uBdzGHfMTD3NlUmdz7W7VHs4duXqG4Xamg6YMHkY+gyNxJAOHrh28BTi8vilR5xQf8BcLHo3CqFtumHwsOdQLeEoTtzJEu2zGznFy8fbQAa9Nxdhjmdw7Ibx8o0c2vx17X0pl29782WRkx9h/4iOgGy1YmgcmmA0N5dX7SyyMdxu2Q019dtVtfHizLHw2TcTkWPGIWrkVHxfYTimjdANp80ZKIx5Ei0aeuTkbY1xQ6pMrPbQ0QhNXb/B1PFRGDX6HRx264+RYYG6TS5dMXJsMI7MicD4V7h+m/8bXFu0QCXuWHl9Jm0DMcV8WeSeI4R9w5yC3bbGitGwE9o4HsL23UU2hm93/oHC97x6z6KL7zkcOJoJ3ypVEOCbg+OH/kKV5i3hLzm1ePItGoXIyNsa44ZkmWQZNW7h6H//Rga3PT/tNPZz86Gq1YXMsu/ivtoLDbp0RD3fCsi9ugOLP/8NiYblk4BpAzFBoixEmYAZgKyxYsDfB77JSTCQcyJPnYSHwmOt2aFCYwx/dz7ef1/3N29QDSTmVYCfsIs4ZcCioUdO3nwAEQnI2pfMXfNSZZJl1MhGlkEUTM/IgKOjk/axCpcQvXgr7tUejnfXbMemJdMwpHklk3tMJYf5shBlA2YAssqKcf8BHgQEo5bBueIWElQUXHhbQ9ohLHt5Ijd8frnob/ZWXDF4N+Xeo4VHep58i0YhMowVVhk3pMpkiVHDDGkXd+PTuZMQMSwKH/7qhn6zxqCNQT+brW8p8bjzI0oWw1OxEFutGLjyC3652xZR0/qgWY1qCGneF6/1b1L0OcWVA/g9sxtGDqmrtU9oHHzR+fVPsHxU08JPycQMFBZjhxaNQmQYK6wxbkiWyRKjhgia4P74cOUc9PTngln+Q27wlIoCdx/4CE3C6jM5NhBLKJFzhFAU0QBkqxVDpbqLHfPfw76CTpgw933MfLE2Tsfshd4/oSq4huiP1yCx83xsjN6MLVtWYGTVK9j9y8XCdZJFDRQWYpcWDQFZxgorjBtSZbLEqCHK7UP471kvDPt0CzZt3oav3myCiyvXYp/gxWf2mUwbiFxK4hwhlKXU1oR2cHODS3q69gYij+apSYh+PRfzxq0uNs1y8qwEr1ze7CC8YICxgcJauDd7u7FoGCOVN7/NGuMGj3SZ5Bs1xNDABf5V3JCVqEaG4H7Tw6yvjTYQY0rqHCGUwaKfYshFownAwA+/wPgGGUhIdUCVZt0QHt4bfue/xlcn46AxOFEKcjKQaShLNYDfLT8vv9j+1qBNJ0sqHw1yMtJhTpShQgHy8s1fqLr0uWCba7oPqw5SefPb4m9o8Oyo5ri57zySgwbi5Q5Xsfarv5g/E2GWSaI9WKiQh8z0TOTy3842gllffurHKLslsPIj7JtSGwGpfFtg8Mh+aFPLH87Zybh57r/YHvMH4ozeMQmCKL+QlocgCMUQvQlNEATxOKAARBCEYlAAIghCMSgAEQShGBSACIJQDApABEEoBgUggiAUgwIQQRCKQVYMI0rfimFZHUraFFGeLBtilGT/6vozDEEpf+OeSN9oUAuh4a3h/M817XK4hCmyR0BkxbCcEqmDhaYIKfgft5Yry4YYJdi/uv4chLbCirUmONRCtxG90KhkVh8pk8gOQGTF0GG7FcPCOhiYIvSI5afHXJtqKW+WDQFJ8wgHq/ys/udxdPFHcHU/Zjkl+6ccQlYMBa0YPKw6/HxB95q+DJLGC4k21VLeLBscLPMIu/xS/c/3Zzd4ZVfGi1NfQo+u/RAxtC1crv2Jc/HZXOdyU7AR9RD3nWHfSfRPOUR0BERWDHnYYsXQw6qDIZLGC0ab8pQ3ywarf+WVn4U32j+dhxUvRWJcVAQmrU9Dzxnj0Mal+PFy+qc8wpyC3SYrhnmssmJYWAdDpPKT0ablzrLB6l9Z5WdRgHM/RONSJne8Kh/390fjQPoz6NBU2KzH6nO+bMMMQGTFkMAqK4aFdTCEZbxgtSl3kZUrywarf2WVn0UG1MVuRcQhIckNfpVchecCcvqnHMIMQGTFKGkrhoV1MEQqPxltWu4sG6z+ZZWf1f9a3FElwF14zBPETWcfQZ1gNI6Wec6XNwybvhCyYgiUphXDGqTyk9Gm5c6ywepfVvlZ/S/QtG8UWnhyx2ucULPvSIQ6H8eRv4SNemT0T3lENACRFUM4vhStGNYgabyQ0ablzbLB7F/W+cHofx0PsJ8r8JiVX2NT9HYsG+KE7xevwymjT+xk9U85hKwYHPx3M5SyYliDVH485tqUr2d5tGww+5dRflb/86icvFCZm9slPUjV3vCWQuqcL2+QFYNDSSuGNUjlx2OuTcurZYPZv4zys/pfS0E20jPkvclInfPlDbJiEAShGGTFIAhCMURvQhMEQTwOKAARBKEYFIAIglAMCkAEQSgGBSCCIBSDAhBBEIpBAYggCMWgAEQQhGKQFcOI0rdiDEQTXMN1dfHv4ns1642B9bIRe0f2akQlRnk3ZVhKSZtKyjOyR0BkxbAc8TpEYMrsl9HKtXiZfZuHYVinEOHZ44P/oWa5N2UYICv9EjSVlHdkByCyYuiw3YpRgFTndnjt1Y7wMKizGPz6Mt6BIQji2kdPsXq6VUagZ1FZHFwqIyjAC05G6ZprZy3l1JQhN33R88rAVCK3Pqxrobwi+lsw3ooRNuYpODoVnTx+AW5c8MnD3q0X8M/pOATX95NcmJ63Ysx8czgaqpKR4VSA2D1nETKgIjaOWIZT3NCeNwS8PnMMnnZ9hAxXL+Rf2IqFC3biap4KTSOXYuoLdVFJlYT7KX/jmzcXYV9afUxY9zG81gzC0uNFw972M3ZgbPIcjN8QhHm7eyNxJ9CpVzXc3zNPu6g7bz2YMnMsWrulIZ076fIvbseSJdtxURg689aEWTNfLCzn+Z9iUb+PI9Zw5Tzp2F2b5pmR07E7Vbd/w5fW4f8q/Aejvzinfa6rRxRauWcg190b2bHbsGhBDCoMW2a2Dt4xn6LiqInIW/0qFh7STblCRn6O5dW/xqCFh7QXb81eM/Dm6LaolJWKAm9PJB1YjrdXHEGStkzP4/72ArR/Lhhu3q64t3MRovOHYnKPKqjg7YOcM19g9nv/RRyjnXk0baYhZkIq5oxfi2vClEtTcxS+XFoNmwcvwBEz01tz9dbaHyTaXOPwrLb8d6PT0bp7TXj4V4HTnd34ePaXOJPJLxnLmzLmYHZEY2jU6XBxy8QfX87FiiMpoueF8WL1OlPGJNQ+tBBLDxguCqzD0vT3ZejOAcPz6o2t1QvPi11puv4wVx8e1rVQnhEdAZEVQx7WWjE0qQfxny/OosnLUxDqK/Iu6FgHbdq54MTCsQiPikLkuHVQh0aiT+EMrQlaesbgtdERGDnzZ7gOfhsTfWIwOSoSkRM24sHTwxHWgN3OPOXNlGFd+uZNJTrM14d1LZR3mFMwsmJIYJUVQ8fDIyvwxcnaeGnKC9qT3xB+Jb8d78/DprMPUdG/BmrX9gCygxBUS9gBt/D796eRplEh+9JJXHiYgjMHjyOtQIW8+GM4e9MflQK43ciUYYpV6UuYSrRI1Id1LZRzmAGIrBgS8OlbbMXQwd9rObbyUxwNisLUPlWLTXQ08EG7yLlYtnYzVi6YgfF968Ithzt5C3fKRHqa8BAF3LQiDzk5wlOuDfK5+mp3ldPOXKLlyZRhXfpG55UJ5uvDvBbKOcwARFaMkrZiFKHKOoO1y/ej8qgZ6FPVIJGmIzC5vzsOvz8eYyZOwcz3NuCUNZ/OkylDlNJOvxisa6GcY3iaFEJWDIHHYMXIjF2P5T+7oWcXg/mOoyMcctORlJytHYn4tBiALoXTLwsgU4YJtqZvMaxroZwjGoDIiiEc/xisGCpVHv7etBTf3jD4YuK5Hdh4OgSvbf4aG9etx8IBufjnurDNAsiUIYKt6VsI61oo75AVg4P/2NverBj8ca58mvkJiE+z/RvnZMooji3pW4rca6E8QlYMDnu0YvC752U9QrpIQLQGMmUUx5b0LcGSa6E8QlYMgihl6FowD1kxCIJQDNGb0ARBEI8DCkAEQSgGBSCCIBSDAhBBEIpBAYggCMWgAEQQhGJQACIIQjEoABEEoRhPrBWjca1A+Lho8CghGVkiX6cvbWw1I5SGWYHsFpZBdgvlkT0Csi8rhh8CG3ZG/8kLsOqz6egZUrRo+2PDQjOCSX1K2KzA/6iU7BZFyEqf7BaKIzsA2ZcVYwU+XfQO3pzwChadDcHEWeGoY7B+i7l09YgZEfTojzU0PVhiRnDyCERwgGexeorWx+B4Pbq8rTRJkN1CeEU8fUv6kOwWj48n3orBLyz/6pr58Fg3BIuPaiTTlTIi8JgzPVzKlWNG6InbGzPRaWAtFBR4wTvzT6z9aCn23sqVtC3ojRu2mCR4yG5BdosnEdER0JNixdCS/zdiL6sQFFKNma6UEUHK9KCDZUZohtDGxzGHO3Zc5EjMPRSA8dOGoAaXNqs+NpskOMhuQXaLJxHmFMy+rBim8MXJyMiEu4cnO10pIwLTcMEyIyTgYMzP2iUW+OnPpW07cbp6e7QvihHmsdUkwUF2C7JbPIkwA5B9WTFM4VfwCwj0Rvw9Lkgy0pU0IkiZHrSwzAhJUBercBzUqX7gRvJsbDRJaOEuCrJbkN3iSYMZgOzLimGKQ8gA9Gp4HefOpclK16wRQYbhQprKCKxqUN6K1RDoo0aC3pnIYbY+JWCSILsF2S2eREQDkD1bMRy4dyRHBye4+YegaehofDB/MJx+XI1v+YuMka6kEYFhuGDD5TV8AGo48Z+4eKL56CF46tYRHBYCkKRtwUaTBA/ZLchu8SQiGoDs14pREV3n7MGu3bsQ/fk8vBoWgpubpmHa+ljtccx0JYwILMMFm8s4cK4h3tkcjU3bNuGtljexavl3uC9ZHx02myR4yG5hWfoWQnaL0qHMWjEk05U0Ipg3PZhD95G07uPcH7L9UMktCwnqDJMyM20O2rytM0nw39chu4Vl6VsK2S1KHtERkK3wJoD+767FgskvoFX9+mjebTCmjeuCrJPHYay3yksTDxI8WltFVo5VJ49kushC0oMkkxOWh88qJyVedvAxJj8rGfFJmaJlZtVHl3eCVRe6SpWP8zF7oOrRD7W4fBDcBz1dfkbMqUJns1mk6mxLmXik25rRHgX5ksGHx5b0LcGSc5qQD1kxSgCNqjnC57bE9SUbcFz40hpR9iC7RclDVgyCIBSjVKZgBEEQcqAARBCEYlAAIghCMSgAEQShGBSACIJQDApABEEoBgUggiAUgwIQQRCK8URYMYyNGE3rh6CyRy7U95KRU4JLLmg8n0KfvrWQ9vcdPCqBr+8boqvDQDTBNVxX5wmv6vBq1hsD62Uj9k6q8Mrjw9CkkVICbVmSpglN8BBFzR6supTm+VJekD0CepxWDFOjgaERwxf+wU/h+QkLsXrhcNQtqeUWeHybo+/g9sWXtLAS8TpEYMrsl9HKtXiZfZuHYVinEOHZ44P/AWsxkwYD0zqJUJKmCaXNHqy6lOD5Ul6RHYCssWLIsU9YbsT4HCs++QizJs7Fbz4RiOzpyaUlYjwQMGd10GNoOTBEn6ahscHR1Qd+JvuZGiXM16EAqc7t8NqrHeFhUGcx+EXXvQNDEMS1j55i9XSrjEDPorI4uFRGUIAXnIzSNdfOWoxMGnrsxTRhidnDHHyf+bsXD2Cqil7w9zS0npg5R8TMJWbOF8I6RKdgvBVj6Gut0Sq0Jlp2DdH+8dOu4Hp+SEnM5KY+j/DvtWQ8VBusX2mAzlgwF4vejUJom24YPOw5VEs4ihN3dD9P500M0xfMx8u9O6DLwBEIa5yHi0cvIqlAhcYvfohJz1aHb1BDtO0YgrSDR3A9xx+t+vdAxdPbceyu7p1apVHDueEQdHE+gT3nmmLO9vFo5Po8pk4bhCb5Z7H3vFprdZixgEsvrCO6DopE3ybAlZOxSMzVpeHeaCjeXvweono8g24DwlAnOw3+9R1w+ttjuOfYTZum+0+/aA0RPA2iPscHrW5g15+6VcZ09fgAr/TpjO6DI9C7iQaXj11AwFBzdXgWKVtXILXXK2iduB9Hbmdr0/F5Kgy9vGKx/cht7cVQs9dMfDj/DQzv+gx6DBuB0Mp3cezEbWRqyxSFuo7dMWnKMPQLD0dHl1tQN5uKj6YMQq8h4QhrmII/fruinRJItbOW5gPxarM4fPPtaSRz+0v1m2i/5OvayLDdf76g6wu+3S7l6spbW9MBEyYPQ5+hkRjSwQPXDp5CXJ6uDLxp4u1FRX1Qz6kqBk1vhziuD/i1lHI0IegZUQf3Yg7jjsgUUWfPmIswxzM4dsN0qUa3rjOx/o0QnPjhDFK0dXRE29c34J1mV7DrxH1UrP2C+XPEsWuxc0DqfNGv+0RYhugIyFYrhrR9omSMGBrUQL1aznhwX7/maXHjAcvqwOt8Rk0fDIfviiwHd5t1lj2cljJKSNVBk3oQ//niLJq8PAWhviLv6o510KadC04sHIvwqChEjlsHdWgk+hTO0JqgpWcMXhsdgZEzf4br4Lcx0ScGk6MiETlhIx48PRxhDfjyMQwhHCYmDXs0TTDMHix7xqNDv+Kkf0d0qyu84NgaXdtm4/D+08h3rCfD/KHD1vOFEIc5BbttjRVD0j5hrRHDCTW6RCCce9ePHD0Rs5d9hDDNLmz7RT99MDIesKwODTqhXYVD+Pr7IsvBjt1/QHxMJwLTomGeh0dW4IuTtfHSlBe0F7chqoJ/sOP9edh09iEq+tdA7doeXHsGIaiWsANu4ffvTyNNo0L2pZO48DAFZw4eRxo3qsmLP4azN/1RKYDbTUY7m5g07NE0wTB7sO0ZR/HrMQ907MpFZY4K7TqjNfcmsI9fJlKW+UPA1vOFEIUZgKyxYjDtE1YZMVRwdvWEl6cn3BzTcPnHJXh9yjrECkN5E+MBy+pQyRe+SWo8MLj+8xLUkP05lJRRggF/b+PYyk9xNCgKU/tULTax0MAH7SLnYtnazVi5YAbG960LtxzuhC/cKRPpacJDFHBTijzkFK45lod8rr7aXeW0M5eooUnDXk0T2uzNxTcG/EJtJ/YfhkvHbqjPTTHbd2qDuIP7cJ1vUFnmDwFbzxdCFGYAssqKwWHWWGC1ESMXV/euwqrVq7F6/Vbs2n8W8fkSZyXL6sCXo3IgqhtsrxAYgMJb6wX5yCvwgLe38JzD18tTeMQhw6JhWociVFlnsHb5flQeNQN9qhok0nQEJvd3x+H3x2PMxCmY+d4GnLLmLJfRzmImDbszTbDMHjLIP/c/HEZHhLZoj06t7+Lgvtu6DZaYP1jnC2EVhk1fiK1WDGn7hPVGDItgWR2uHMSxzI4YMbyebrtrfYQPbIPCz0s0t3DnXhA6D+2OEE8v1OwwDgNaFbUDy6Ihpw6Zseux/Gc39OxiML9wdIRDbjqSkrO17/w+LQagS+H0ywJktLOxScMuTRMMswfLnsGjUv2D/x3MQMfJo9Di+m/Yr0/LEvMH63whrEI0ANlqxZC0T1htxLAMltWBv9eyZVE0HnVfiC3R3PY1U+F16BcI743cSXsTO9fvRnqrN7Diqy/x1nNp+P1wkQOBZdGQUweVKg9/b1qKb28YfDHx3A5sPB2C1zZ/jY3r1mPhgFz8Y8Wiw3La2cSkYYemCZbZg2nPELj2y0GkBFTCxf0HkCrU3xLzB+t8IayjVJdklTIW8JSWEcMQ/s1eyurAfyzrWbkSHB8+QGqOyHbuPc6tYgEys8VHfrr0zRklrKsDf5wrn2Z+AuLTbP+2ubl25utuaNLQYy+miX/gJsvsIceeIQXrHDGEdb4QlmHRTzEsRYU8ZKZnIpc7acUoyMlAZvFfJRTCn0v5efnQ2HiSa9PJkspHg5yMdJiJL1wdCpCXb/5E06XPXUC5pvtYWwd+97ysR0gvoRPcXDvzdY+/ocGzo5rj5r6in2JI9Zu1dRKDN00M/PALjG+QgYRUB1Rp1g3h4b3hd/5rfHUyDgXBA/Fyh6tY+9Vfkj91UPFTIhvKo62TxDliCOt8ISyDFqUnFIVME+UbCkAEQSiG6E1ogiCIxwEFIIIgFIMCEEEQikEBiCAIxaAARBCEYlAAIghCMSgAEQShGBSACIJQjCfSitG4ViB8XDR4lJCMLDM/8yhNbDU/lKQ5Qg/ZLcxDdgv7RfYIyH6sGH4IbNgZ/ScvwKrPpqNnSNGi7Y8NC80PJvUpSXMEB/8DSbJbSEB2C7tFdgCyHyvGCny66B28OeEVLDobgomzwlHHYH0ac+nqkVMmQ8OFJeYHJ49ABAd4Fq63wyNaHzHbgjZvUzODLLME2S20z821Idkt7BfR34LxVoywMU/B0amoc/wC3Ljgk4e9Wy/gn9NxCK7vZ3Zhep1dYQ5mRzSGRp0OF7dM/PHlXKw4ortAeFvD6zPH4GnXR8hw9UL+ha1YuGAnruap0DRyKaa+UBeVVEm4n/I3vnlzEfal1ceEdR/Da80gLD1e9A7PLxT+6pr58Fg3BIuPaiTTlVemKLRyz0CuuzeyY7dh0YIYXMrtjnm7eyNxJ9CpVzXc3zMPb2ytrn3tzMjp2JXGb++J2xsz0WlgLRQUeME780+s/Wgp9t7KFa9Phi5N/vjdqSqtvWPKzLFo7ZaGdC5o5F/cjiVLtuMiN13QODzL7fs87kano3X3mvDwrwKnO7vx8ewvcSZT1xaaNtMQMyEVc8avxTVuCiFVV6nySNdRugy83WLmm8PRUJWMDKcCxO45i5ABFbFxxDKc4stUcxS+XFoNmwcvwBGRKaLObjEJtQ8txNIDBpFCwL37O9g85Damv7wBN7V1dES7aVswOXcxxnx2Cs61X2C0YVF783aLWTNfLCzr+Z9iUb+PI9YIZSUeH6IjoCfBiqEl/2/EXlYhKKQaM13pMpk3XOhgmR+aIbTxcczhjh0XORJzDwVg/LQhqMGlzaoPy96hw7xZgofsFmS3eFJhTsHsx4phCp9cRkYm3D082elKlolluGCZHxJwMOZn7RIS/HTj0radOF29PdoXxQjzyDIzSJglOMhuQXaLJxVmALIfK4YpGo0rAgK9EX+PC5CMdJllkjRcsMwPSVAbzhry4qBO9QM3U2Ejy8wgYZbg4S4ksluQ3eJJhBmA7MeKYYpDyAD0angd586lyUrXbJlkGC6kqYzAqgblrVgNgT5qJOidiRxm62OJmcEMZLcgu8WTimgAslcrhgP3juvo4AQ3/xA0DR2ND+YPhtOPq/Etf1Iz0pUuk7Thgg2X1/ABqOHE5aPxRPPRQ/DUrSM4LAQgSZuEJWYGM5DdguwWTyqiAcg+rRgV0XXOHuzavQvRn8/Dq2EhuLlpGqatj9Uex0xXqkwMwwWbyzhwriHe2RyNTds24a2WN7Fq+XeFvnApm4QlZgazkN2C7BZPKGXSiiGZrqTxwbzhwhyGH/H+kO2HSm5ZSFBnmJSZVR9d3vLMDMbwH0mT3YKvE9ktnjRER0AlhQpZSOLm3GLBhycvTTxI8GjtA1k5Vl0ckulKlInPKiclXnbwMSY/KxnxSZmiZWbVR5d3gsXBh4e/QXs+Zg9UPfqhFpePHum6Wt++xvB2i/7vrsWCyS+gVf36aN5tMKaN64Ksk8ehVZoF90FPl58Rc6rQIS2KqiDf6uDDY0kb8m32KDGego/C0KL0NqJRNUf43Ja4vmQDjgtfyiuPkN2CsAYKQARBKEapTsEIgiCkoABEEIRiUAAiCEIxKAARBKEYFIAIglAMCkAEQSgGBSCCIBSDAhBBEIphUQDirRivL+2B4VPawEP/0+rHAG/FaNU3HOHhur8Rg/sgtE0teBb/vbXN8HaEsMHPIJD/UVEJo6vDcLSvJp62WN686eKdBeHan1fwZoexcyYjtIp1ZePNFB/N64+AUqibHFjlL822J+wX2QHIfqwYvvAPfgrPT1iI1QuHo25JLSnBU4J2BPE6DEMHMysCGufN/1iymOnCVhMHmSkIO0R2ALIfK8bnWPHJR5g1cS5+84lAZE9uHCRmdRDQ5SNiShAwZ0fQp1mUv87M4Geyn6lJw3wdiiNpZjA2XVhgqRDLn8wUhD0iKibkrRhDX2uNVqE10bJriPaPlxEG1/NDSmIm1Pce4d9ryXioFl9JV2dlmItF70ZxU6VuGDzsOVRLOIoTd3Q/UecNFNMXzMfLvTugy8ARCGuch4tHLyKpQIXGL36ISc9Wh29QQ7TtGIK0g0dwPccfrfr3QMXT23Hsru7HjSqNGs4Nh6CL8wnsOdcUc7aPRyPX5zF12iA0yT+LvefVWtvEjAVcemEd0XVQJPo2Aa6cjEViri4N3o7w9uL3ENXjGXQbEIY62Wnwr++A098ewz3Hbto03X/6BZeFdZIbRH2OD1rdwK4/dSuN6erxAV7p0xndB0egdxMNLh+7gICh7DpI5a1dR6j5QLzaLA7ffHsayfxzx66F5bmUy5ctCrU1HTBh8jD0GRqJIR08cO3gKcTlibfhjRwVcjQh6BlRB/diDuOOyIqIOjPFXIQ5nsGxG6bLMbp1nYn1b4TgxA9nkMKViQ82bV/fgHeaXcGuE/dRsfYL5tvboPx8ezLrT5QLREdAT4IVQ4MaqFfLGQ/u69c9LW51YNkmbLUjSJk02CYMdt4mpgsTzFsqzOZPZgrCzmBOwW7bjRXDCTW6RGhvQkeOnojZyz5CmGYXtv2il/EZWR1YpgRb7QhMk4YEMvI2MV2YIG3KEIXMFISdwQxA9mPFUMHZ1RNenp5wc0zD5R+X4PUp6xDLTTl0GFkdWKYEW+0ITJOGBHLy5i5MQ9OFKQxThhm0Scp4DxGDzBREScMMQPZjxcjF1b2rsGr1aqxevxW79p9FfL7ElcQyJbDsCAX5yCvwgLe38JzD18tTeMQhw6RhWgcBVt4cYqYLSzHJn8wUhJ1heLoUYq9WDItgmRJYdgTNLdy5F4TOQ7sjxNMLNTuMw4BWBt99Ypg0JOsgw8xgbLqwFNH8yUxB2BmiAcg+rRiWwTIlsOwIKtVN7Fy/G+mt3sCKr77EW8+l4ffDRZ4HlklD0oQhx8xgbLqwELH8yUxB2Btl0ophCPcGK2lK4D9KlrIj8N9VcatYgMxs8ZGfLn1xkwbbhGE+b36bmOnCEgzzzyczBWGH0JrQdozGvw/mz/bGhplbdN+GtgFN0FAsnqTBstnfIM6GgE4QJQkFIIIgFEP0HhBBEMTjgAIQQRCKQQGIIAjFoABEEIRiUAAiCEIxKAARBKEYFIAIglAMCkAEQSgGBSCCIBRDdElWc/BWjL7jWmiXZ711WY2cLPYv40sC3ijRut8ghLZuhmbNmqFp/RBU9siF+l4ycswteWEFvJmhT99aSPv7Dh6V8M8VrKkDb5IYN2MQfC4fx81028vDWzbefactbh84jxSRPEuy/rr6hiEo5W/cEym7BrUQGt4azv9cg1pqWRUO3uixYHo9xP56CekK/IyE1Q+led6UdWSPgMiKYRklUgcLTRhS8D/8LGbZEKNEzRR8fQehrW6VWFMcaqHbiF5oZH7ljyLI6FFmkR2AyIrBDRdttmJYWAcxk4RIfnrMtakWY8uGAMtMYa795LYPj6OLP4Kr+xXbVwxz5SejR9mFrBgKWTF4WHX4+YLuNX0ZzOXHT2Gk2lSLsWWDg2WmkGw/I8sFT/H24evbDV7ZlfHi1JfQo2s/RAxtC5drf+JcfDZXeW4KNqIe4r4zrJv58pPRo2wiOgIiKwYbW6wYelh1MEQqP1ab8hhbNlj1Z7WfPLzR/uk8rHgpEuOiIjBpfRp6zhiHNi7Fj5dTfjJ6lE2YU7DbZMUQxyorhoV1MEQqPxltamLZYNXfEsuFWQpw7odoXMrkjlfl4/7+aBxIfwYdmgqb9cg5J8joUSZhBiCyYpjBKiuGhXUwRCo/OW3KXSzFLBus+rPaTxYZUBebpschIckNfpVchecCcsrPoS2+SGyWAxk97BNmACIrhvCcw3YrhoV1MEQqPxltamLZYNWf1X6s9tHijioB7sJjniBuCvUI6gSj8YKcc4KMHmUSwyYvhKwYHKVpxbAGqfxktKmJZYNVf1b7sdpHoGnfKLTw5I7nRh01+45EqPNxHPlL2KhHRvnJ6FE2EQ1AZMXgT9bSs2JYg1R+ctrU2LLBrD+r/Rjto+MB9nOdPmbl19gUvR3Lhjjh+8XrcCqn+KhPTvnJ6FE2ISuGRjkrhjVI5cdjrk35eopZNpj11+Yn0X6M9uFROXmhMjdHSXqQqr1xK4VY+TUaVzJ6lFFoUfpyRElaNh4nZPQou1AAIghCMUTvAREEQTwOKAARBKEYFIAIglAMCkAEQSgGBSCCIBSDAhBBEIpBAYggCMWgAEQQhGJQACIIQjHsxophqwGiLJgz9BjaK5KDh5IRgiizyB4BlboVw0IDRNk0Z3DNoDGyV5ARgijDyA5AllgxDA0PTh6BCA7wLFrXhYNlgDDcrqroh2qBPtrHesq0OcPIXkFGCKIsUypWDJ1FYDRCcjpi0ptD0LXncIx8oTYe/nUc11ILhO3mDRCXcnkjRRRqazpgwuRh6DM0EkM6eODawVOIyyu75owb/Do5IvYKMkIQZRXREZDNVgwtzRDa+DjmjBqDcZEjMfdQAMZPG4Iahe/i5g0QOhqhqes3mDo+CqNGv4PDbv0xMkxnuSvL5gxje4UWMkIQZRTmFOy2NVYMLQk4GPMz4gr41fMycWnbTpyu3h7tC02ZEgYILbdw9L9/I4PLLz/tNPZzc4Cq1c0oEQp58s0ZJvYKHjJCEGUUZgCyxoqhIwlqg/sGyIuDOtUP/lWE51IGCC3ZyDI4s9MzMuDoyK9qL0UZMGfwgUrkXo/2Jbmx3wgyQhD2CjMAWWvFACojsKrBFVOxGgJ91EjQz4ZKAO49WHik58k3Z5jYK3jICEGUUQxPu0JstWLo8EXn4QNQw4k3Inii+egheOrWERwuoQBUVs0ZJvYKHjJCEGUU0QBksxVDy2UcONcQ72yOxqZtm/BWy5tYtfy7EvukpMyaM4zsFTxkhCDKKqWyJrTG4VnM290bZ0ZOxw/ZfqjkloUEdUaJmSH0lEVzBp+Xob2CjBBEWUZ0BFSS5GclIz4ps8SDD49KpUFOVo7NafOH56QkmL3w+Ju4jxLjzV5sKuRKa2m06ceLanSM68DndT5mD1Q9+qEWtw3BfdDT5WfEnMrRbjeHqiDf6uDDw2oDQ1jtQRByKZ0RkKo5wue2xPUlG3A80/qLgiCIsg1peQiCUIxSn4IRBEGYgwIQQRCKQQGIIAjFoABEEIRiUAAiCEIxKAARBKEYFIAIglAMCkAEQSiG3VgxyiOG9osUk6VF7IeyZBwxhP9NW6WmPdG/d2c8FVQBCTfu4lGBLl9N8BBFbSSlja5PwxCU8jfuWWGhYaFBLYSGt4bzP9egllgSR/YIqNStGKWMmIFCSfiTv5j9QkHYbVM2jCPGuLZ6FUvfG4r6zoBf6Bv45K3n4cf/KpdHaRsJA9vPZ75PB6Ft4QqlJYxDLXQb0QuNzK8Qo0V2ALLEiqGHv8jETAssa4Ye3fFBqOrjXGhv4JE2XDjBOzAEQdwxesxbNOSV0TiPEsHIfqFHX2dDg4YeOWUVs4jocajog2rV/Iptk2qb4pQB44gRNZ9uDvcTm/Hhlxvw2dqDyGrUFLWFbZbYSOy3z+Th6OKP4Op+oukw+4+xnYXob8F4K0bYmKfg6FSUqF+AGxd88rB36wX8czoOwfX9JBem520TU2aORWu3NKRzjZh/cTuWLNmOi9xwT7dcR0/c3piJTgNroaDAC96Zf2LtR0ux95ZuyQneJvH6zDF42vURMly9kH9hKxYu2ImrefrjeyNxJ9CpVzXc3zMPb3x1FTV7zcCbo9uiUlYqCrw9kXRgOd5ecQTVRy3D1BfqopIqCfe5Iec3by7SLgLPLmPxPMQXz7cOTZtpiJmQijnj1+KaMMTX1TkKrdwzkOvujezYbVi0IEZro2CX9XncjU5H6+414eFfBU53duPj2V/iTCa/xIcT6g+Yg9kRjaFRp8PFLRN/fDkXK46koGnkUtG2MUSjqYcJ6z6G15pBWHq8aFv7GTswNnkOxm8IEm0rqTLz8IaNWTNfRENVMjKcCnD+p1jU7+OINSOW4aRjd22a/JIuu1N1+zd8aR3+r8J/MPqLc9rn5tqrwjDx/jbGpetbiB6ZhLff+BE1p83HyOx1GLfwYOF63Jqao/Dl0mrYPHgBjpiZatpvn/GmlEmofWghlh4wXBtZh65P34Pv77+jxnMd4ZLjDF/nW9i9+CNsPqdbZJfVf3KuH8P+E0N0BGSrFYNlm9Bh3pqhUdXGi1zFfPbNROSYcYgaORXfVxiOaSMMh5xGVg3HOmjTzgUnFo5FeFQUIsetgzo0En1CxC0a8spoau6o1mUMJr06yehvOFp5FsVxOfsY2y+kDBryymreIsJdaRg5NhhH5kRg/Ctce87/Da4tWqASd6xcw4gxT6JxxJjMg+uwRc0Fuo1LMKzCHrz7aVHw0cKwkdh3n0mbUnR4o/3TeVjxUiTGRUVg0vo09JwxDm1c+P5h9Z+c+rFhTsGssmLIMi1IWDPqPYsuvudw4GgmfKtUQYBvDo4f+gtVmreEf2Hlihsu+NX6drw/D5vOPkRF/xqoXdsDyA5CUC3tZlNkldHU3JGbmoj4Bw+M/tRIzxN24JCzj4n9QsqgIausEhaR7Lu4r/ZCgy4dUc+3AnKv7sDiz39Doj5vWTz5xhFD+NPIv01fdAvJRmZOAeLO/InrWVwtPQMR6C1M3xk2EnvuM6YpRUsBzv0QjUvciItf4+n+/mgcSH8GHZpym1jll1U/NswAZJUVQ5ZpQcKawR9foTGGvzsf77+v+5s3qAYS8yrAT7c3R3HDhQY+aBc5F8vWbsbKBTMwvm9duOXwDSvsYIysMpqaOxLO/YAdO74x+tun7UQ9cvbhC1bMfiFl0JBVVvMWERUuIXrxVtyrPRzvrtmOTUumYUjzSib3K6QpA8YRQyr3w6xZnfFgzXRMeGcXnIe/jVda+6Lj5C/wfy8UDXm0TSR1Dtl1n7HIgLqYXDQOCUlu8Kvkyi6/rPqxYQYgq6wYskwLEtYM3r6QdgjLXp7IDTFfLvqbvRVXzEWUpiMwub87Dr8/HmMmTsHM9zbglNHZzIUj4RGHJTYIAxqEL8SqlauM/uaid6WiE0POPib2CymDhpVlNSTt4m58OncSIoZF4cNf3dBv1hi0MbAcFWsbUZ5840gxGjRCvcRfsXX/fWRd+xoffHYZractQniTbFy9LEyMWTYSu+8zFu6oEuAuPOYJ4qabj7iBAReUWOUvgfrxGB5eiM1WDFmmBQlrxpUD+D2zG0YO4UYx/PEO3L6vf4Llo5qKflqmxdERDrnpSErO1r5r+bQYgC4G0y8TA4UlNggDbu/9AosXLzL624gjBrfE5OxjYr+QMmhYWVY9muD++HDlHPT05y6M/IfcG1UqCtx94CN0a4kYRoyxQ+NIMa5exa1KrdGzuQ9U3PHJZ3/CMX66VeECzl8S3tYZNhJ77jM5phSepn2j0MKTK5/GCTX7jkSo83Ec+YvbwCq/jfXTI2r6460YjhUc4OZe/DsQ+XkFOHuYLadSCaaF12a8j6/65SC7gisend1qZFoosmY4wQ2uKUexaoHOmqEquIboj9dg0rT52DgwF9kOTsi4xc03Yy6aX/f43A5sPD0fr23+GmOSMpB95zAuXQeXsg6tgaJNFL7Y2Q5bxk7HTrWcMpqSqb6Fa6LT6qJj5Oyjs1901tovrnFvOHqDxpSZ72NTWA5yXd2RfnozFsbc4raprCprIbcP4b9n22P0p1sQwY1avF1S8MfKj7EvndvGHW7aNjLSZMA6B/SGjRkzF2JLn3RkIR3HvvkFt4fr3pH1xpGWU3njSAbizn6HXYcTMUy7Vbq9+Eox6xS3C5+sCsH0WesRnZMOBw8n3D+yCVvu9MFLs17A5ff+i1StjeSczkYi0iR23WeCKaX+3qP439UbwovGPMB+LsExK7/GG3CGZ94l7Fi8Dqf4Wxdg9J+sa5xNqS7JygVGUdOC4Ud0LGuGk2cleOXyxwsvSMAbJlx5+0R+AuLTTEdqYhYNc2UsbfjvTxjaL/ToymPOoGFbWTVwgT83Qc9KVCND+MavnpIyjBjDKjPfDo/LOCKGhnv78/L3RkFyItIN2kQj00bCY699JteUonLyQmVu7pv0IFX7gYAh7P6zrX6KrAkt9zsCZR2Nfx/Mn+2NDTO3KP5taKI4mqChWDxJg2Wzv0FcCQZkojjKBCCyZhAEwUFWDIIgFEP0UzCCIIjHAQUggiAUgwIQQRCKQQGIIAiFAP4fXsbeq8IYOe0AAAAASUVORK5CYII=;" parent="zkfFHV4jXpPFQw0GAbJ--0" vertex="1">
          <mxGeometry y="127" width="219.78" height="290" as="geometry" />
        </mxCell>
        <mxCell id="4rIS1Nqq_IUm1r-qYgcu-16" value="" style="edgeStyle=orthogonalEdgeStyle;rounded=0;orthogonalLoop=1;jettySize=auto;html=1;" parent="WIyWlLk6GJQsqaUBKTNV-1" source="zkfFHV4jXpPFQw0GAbJ--17" target="4rIS1Nqq_IUm1r-qYgcu-9" edge="1">
          <mxGeometry relative="1" as="geometry">
            <Array as="points">
              <mxPoint x="410" y="120" />
              <mxPoint x="410" y="120" />
            </Array>
          </mxGeometry>
        </mxCell>
        <mxCell id="zkfFHV4jXpPFQw0GAbJ--17" value="CartItem" style="swimlane;fontStyle=2;align=center;verticalAlign=top;childLayout=stackLayout;horizontal=1;startSize=26;horizontalStack=0;resizeParent=1;resizeLast=0;collapsible=1;marginBottom=0;rounded=0;shadow=0;strokeWidth=1;" parent="WIyWlLk6GJQsqaUBKTNV-1" vertex="1">
          <mxGeometry x="520" y="-60" width="180" height="376.75" as="geometry">
            <mxRectangle x="550" y="140" width="160" height="26" as="alternateBounds" />
          </mxGeometry>
        </mxCell>
        <mxCell id="4rIS1Nqq_IUm1r-qYgcu-14" value="" style="shape=image;verticalLabelPosition=bottom;labelBackgroundColor=default;verticalAlign=top;aspect=fixed;imageAspect=0;image=data:image/png,iVBORw0KGgoAAAANSUhEUgAAAIoAAABdCAYAAAB6vP7zAAAAAXNSR0IArs4c6QAAAARnQU1BAACxjwv8YQUAAAAJcEhZcwAADsMAAA7DAcdvqGQAABJeSURBVHhe7Z0LWBRV/8e/w4LAwrIsdxEFlYuSlwzTBO+imUp5RxBE1L9WUkimlVmvl1dJK+2ilvlipYKXNDR7M01QFCXNvJQphaJoyh1BrgvszjuzDLjL3maXpaD/+TzPPM7Mb5Y5l++cc2b3e47UY70fp0Eg6MGM+5dA0AkRCoEXRCgEXhChEHhBhELgBREKgRdEKAReEKEQeKHxC7d+DhJE+3RX7H+edROXSh4o9v9OaFqC/s+OQYef9yDjPsWdbRs0pO0Z+Im4Y+lD5N35DRd+ykY5TJdWWtQHE8YI8fP+DORRf20ZqLUoNuYCxPr3xLtXryk2dp8991fTdfJK/Hu6D3fE4oQnnpuOwM4NR+rxvxM2bTMw1EcCib0Ejp374On567B1XSi8zUz4xbekL0KmDEIn7rAlGFp+akLxENogu7wcdyurFBu7z57jC00LIHT2gLvECma0aiHRtDnEbp7wsO/AnWHPdYDIwQ4dQEMg7gwvZyuYCyVwdfeEV6eOcGRiVkxMGV3xxvt3ZO6hfH+V+wid4SZ6JH4zK2d4uNrBvFl6DaMOWd9vwuYtm7Hpg7V4bcFynLSficjRIo15bKQhvZ3gZqv5YaRhAYm7B1ysVeONf1M57wJrezioXadeH/rKVxMqXY+/vRgv+PnCTWiNnPIKxTlPkS3yqqvxSeYfuFZapjinDSuvsXh5aTQCbKpQZyOG9OpurI/fh8wac3iNfRVLogbAqaYMcrEIJakb8damMygRjMLKQ+NQlAwMHuuO3G9WIoGaj7hnvOFElSC39Bq+WrIex8t9MT/hHdhtm4yjvhvU4ikVFHf/2XjCugJV1naQ/ZaEdfHJuFFPgTYbydznaeTulWPQmM4Qiq1xP3k9EmXTEBPsAguxPWovbcHrK46oNes03RWTVyxEt9Pr8H5qIXf2ETTt05S29889+uygV/djzoNlmPe5h1oe43b9DquuYxG7dA76C8tRaWkP2fW9eO+9vbhe2fA3bHpOw2tLZ6AH9QBV5nL88t1V+E4QYFvYBlzgyu1SxGIcKmu4vsf/JeANi48QteWK4lhbfVhM11x+ulBpUYa4usBPbAexhQX6MOMUdmP3/ezsFDFd0FR3hDGJcjixDLNnzUZkxBKk2s5A7LRujNS748mBVji/bg7Co6MROTcBxSMiMcGT+zC84S3Yi9jIMEUBXt25GO+eKELp6Q/w/AvvqmVCU5ymumEGU+j2x5cicvZcREfE4bBFKF4JU25eH0M/0T68FDUTEUu/h/WUt7DAfh9ioiMROf8LFDwRivF+3KUqyFBbI4W0Xs4d64dGF/h07YCC3HzujGoeaTNvhDOilqS8gchZcxAVHoO98hC8Nrc/OjBPPm3mj1mLp8Ds6ziER81F1Jy1uNd7CO9uR1d96CtfTWh96zlfVKzYeOMzAkNE6Uj66gaqmSeSrrmJXUtDEZt0G5T8D+xftRJfXn4IS8cu6NbNFpB6wKMr91ncRnryeeRL9SdYKz4jMVRyBalnqyFxcYGrpBbnTv8Kl7794NjUpeTg1OGLKKcpSDMv4LeHpbiUdg7lcgr1+Rm4fNsRTq7cpUpQ1B38d92b2HRKV3mYo8vQmQgPD0dk1AK8vmEtxtMHsftYKRdvlkfv4RgsOovdB26ghikvSp6Lozt/gDRoGPqycb/BGGhxGnsO56Cejdfexv5DP6Ja8WEe6KgPY9AqlMTsW4qNN66OcCwuQr5Sd0fJ61EnZ54O2GNg5HJs+M8OfBL/KuaFeENYy2S+SRfMdXXcrrGw97fwR+i/VmPVqoZt5eQuKKq3gAN3CZhirizndiFnuox61NZyh0waZEyDYbxUKXSwFsFOJIJQUI7f//seXo5NwFWm22ugWR7Z9BYWIFe5kbqfjwJm/OQiZPadmIFxSTEKlMqzvrAYujt/JXTUhzFoFUr8E48rNt7kF6PYyQ0eSn+RMreGrRUzuOoVhpjnbJC+ah5mL4jF0hWf42ceOWakxO1pRiVeUIKS8tPY8PwCpjl9/tH2ehKyHimyFanDjaOf4tOtW7F1exIOplxGvkzHffOKUOTsCnflGujkBpeqQhRUMftsfpzd0EkpbuHmCgm3D7kM9XJbiMXcMYPEjns/Z9FVHxz6ylcZFaFIZTJuDxCamyu2RpRjGsk6gVMPAxEa5gch09RTVr6IfC8R8ZOZXlUggFldJUoeSJmnGLB/fCKGNnU7mqmuroG4qw9ctbxeqsWzUnGqejgipjKtlaKPl2DIyx9g46xeEDR1PcZB02L0DpmJ0d6P3lZazA22vAYhPNQP1mx6BR6YMCsYHU6dwGU2npWGjOoghIX6NMStfRE+6UnmHYiDzsHd+x4YMm0U88JhB6/AuZgYYMkFGXTVB4O+8m2OilCSc+5i2x83sPNmtsrGnmNjuqDom0h65zMUBq7Cl0k7kZgUjyFFO/Dhvhzgyn58cdETL+3Ygy8StmPdxDr8kc19UAt3jh1AWodnsSX5fUxyVM9M8zglv4nEd7ahaMhqfJG4A7t2bUJExywcOnYdspa2KJQXhk2dgpABHbkTLYeis7H7nf8gnymvnbt3ImnPRjxb/zXit19EHTsmYcZ1u9YnomLUOuxKZOLb4mB3+hjuNH6euo3k7YdQGbAIm3Z+hjfHlONUehEX1VMfDPrKtzkmt0KyD6+lxBXiuiIUVj5qhWhmAGnNnpcVIr9cT+vEwX7G0toC9dVSyDVUtra4ucgJdsz9S2q4EyaANhPAXMaMY0zcjTWUlzNsa9j0qlcF+z2IyNkJgocFKKvVEGfaGKGlHNVSzWWqrT5Y9JWvMsQzS+CFStdDIGiDCIXACyIUAi+IUAi8IEIh8IIIhcALIhQCL4hQCLwgQiHwggiFwAuBi6vbCm6/CdaFv6xPLzzj4a6wQeZVm/BHk78Zmhai21MjERwcjKH9fOFiXoLb9x7q/a2DLw2O/OfgVXEVf5ab9nchvtAO/TBpgDUycxpNUy1HrUVpKy781oC29MbkFZux/vnR8BEBcptuGL3oY2x9IxiuPAzGmmhLswVoM08EPOkOC3EfjAnsAkrUA0/1tOeiLUNNKMa68JWd5ua2bujsKlLxgeh3oqs751lXuaNNkwNDAWVpB0eRusNfH+wvpT6hr2CmOA3LFy5G/Kat+GzzGix6YQ2udI/By+OaLEHMte10toDIAT3Gvo73FwRA2CUE6+LnYYC7uMV+HBaVrod14S/s4YfudiIMdHLEGPeO8GXO+UvEyKmoRGGNlLtSA4JhWLY3Cp61QVi4ZCqGjQ5FxDPd8PDXc7hZJufi89DT+mnEvTIZj8ku4+gvxQqn+OL41Xh+XCCGTgrDeP96XD97HSVyCsJhS7F9kSfOf3sJpUzXwBbugJc/x9u9s3DwfC5ope6iwSm/HOMFl5Bxi7WINYMaiLnLA5G5YTWO3n9UcFRtLrL+lMLR4iF+uVEKz2dew5rVixA67CkETw/DCOd7yDh/B9WC4Wrpv+sfh4UjO0Hi0QMDgjxRnnYG2bWOCHguGJYX96JsyBq1+K3ahtkC2vLcUE7R8BaMwsLY6Xg2PBxBVjko7h2HtbGTMXZqOMb3KMWPJ7NQ0by7rClGYZUQ/oGB8HK3wYOMr7DnyGUUN9k9jUelRWmJC7+B3hjhfw7LZs3G3MgILD/tinmvTEWXJkU3c6Lrcc5XnD6BC45BGO6tOGQKsT+GDZAiPeWihjGFHqe8iyc6W9zAtcx67sQjSi4dxI7UbMgtfNr3bAHHkQgfZ4NjCd8i5+yXSLjbBzMn9TZJi6L1rcdgF76CQqTt+x55zJNBUdXI3J2Mi50GYZAbF27uRNfnnJeexYkMWwQNaygVi4FD0L8sDcevqWdcr1NeLIJtVSWaeXdUaPezBUqOYsOqL5BRWImaynJkfrsBK3f8YhKzlVahGOzCV1CCYuX5UfV5KC5zgGNTY6TBia7DOU9RMpxPSYdV0HD4MuOGQYOfRF7acWQbk/E/7yHPlqkYHcOtf8psAer2Pry+6Qx3ZBq0CsVgF74CZvDVUSkLlu5ws2f6zcY5UM3h4ZyXXfkB6QjCiMcHYXD/e0g73ugaNZCqX3H1li+Cx3GvIxzsuCfgxQQkvPgEBI/9f5gtYBwqQmmRC1+BBENCJ6KLOc1UgAh9o6aiT84ZpGsTCg/nPEX9gR/SqhAUMwuPZ59ESoHitBr6nPIUdQ8HtqfAPvQtLBnnDycrpvrMndBn0ht4aXgFjh25BJl5+54t0JqoCKUlLvwGfkfqlR54e0civtz9Jd7sdxufbvwauVqeFL7O+ZvH0lDq6oTrKako0/bU8XDKSy9/glfXnoJNyFv4bO9BJB/YjjeCaRxZ8y/svcVUUnufLdCKmMxc3TAJvGHS9LdSBzgJa1BYXMX7G09TOOcNccoLhA7MiKQMxVXqzvT2PFugtdA6RmkJspoHyC+pNuhr8frylhcYJZfxfiplVczAu5lIWCiKRk1pHm+RsLCfqa2p1ZpfbXFT5PmvwnRCoYvx+/mryDPBlzuEtgeZ10PgRat0PYR/HkQoBF4QoRB4QYRC4AURCoEXRCgEXhChEHhBhELgBXHhExc+L9RalLbqwjeFm5248I1HTSimcOFTlg5wd7NX7DdHm/vczEoMR7F1kyeDvc5a7AA7K8qotdubQ1z4LcPELvxodKMDMT9mOiZMi8TUQFvcTPsZedyivLrc53Knp7Fqy4twunAEvzItpqBbODZ+OB30yWMwm6DZza4MceEztB8Xfk/0sv4KcfOiMSvqbaQLn0PE+AZntV73ee43+Hh/DcYvCIEz7YyQ+SGo2fchDuXSPNduJy78duTCz8HZI9dQxShdVn4RKT8VomMnrrPW4z5nH46cA5twRDgNMUtiMNnqED7++o7K3B1dEBc+k/7248KXokZpVf/KqioIBJzvlof7nJLfQvJ32eg7rDeyDh9EDlNQJoO48FuEVqEY58LXAQ/3OS3wx8wpfriWkQn/aeHwa2ZY1ud21wlx4bcIFaG03IWvAz3uc7bC/CJiMLI4CR+s2Yg9paPxUoRvU/+qz+1OXPiti4pQWu7C144+97l51+mIGS/FV5u/QQFViMNbDqAuJBYzujeIVe/a7cSF36r8LVZIY93net3uxIXfahDPLIEXWgezBIIyRCgEXhChEHhBhELgBREKgRdEKAReEKEQeEGEQuAFEQqBF0QoBF5oFArrwv9oYH/Fxu63R2jbJzFnWQxGuLT+LxR/5b3+LtSE0l7Xwldzu9My1NfVoZ6ru1Z1wze7lz7+Sme+qVATirEu/EbY/9lb4u4BF2sBaMoKYomQ85s0uMuVnejsWvcOzHXK6HPAa3L4a3S7V1xFcsJu/FSoOW7KdfaV72VUWtsBpnPhM9j0nIa33l2B6OCnMHzieHQ3c8WUV59C3oEM3Odc7DbfHcPvnOfUL3oz/h1wCwd/ymcKWACvsUt1OOC1O/z9Z6i73bNlj+4nmKQezxv0munW2efW+WfvlVlneFqbzyhoi6i0KC1x4dNm/pi1eArMvo5DeNRcRM1Zi3sBo+DFxfUi6K7HAa/d4W+MG74i/SQuOJlonX01jE9rW0XrW4/BLny/wRhocRp7DuegniloqvY29h/6EUpea53od8DrcPgbQ80ZnMgQmWadfTVMnNY2gFahGOzCd5JAUlKMAqVyri8sBg9vsgL9DngdDn8jYNfZ/yklHdYq6+z/YNw6+2qYNq1tAa1CMdiFz7rLnd3QSekvWri5ounlWs68GchtIRZzxwwSZizURC/jHPDKGOSGZ6i/chzpFLfOfsCfOPlDy3zBhqAvrW0NFaG0yIWflYaM6iCEhfrAmn3LsfZF+KQBzIifg87B3fseGDJtFDxFdvAKnIuJAZZckEFguANeGYPd8AwUMnH8lLRpnf1U5f8ZRAl9Dn9D0ZfWtoiKUFriwmfHGLvWJ6Ji1DrsStyJpG1xsDuXivuNceo2krcfQmXAImza+RneHFOOU+lFXJTBCAe8Moa64RvJSjmJcjcnXE890aJ19g1B74yCNojJzdXsa6bI2QmChwUodYvA1necsC1sA37mKoH9nkVoKUe1VL2FMsYBr4wxbnjaLRQffeiDA7NW45SOqaKGOPz5oC+tbQ2tYxRjYQeJFUX5KKvVrD8KdRpFwmLMOvTKGLImPU07oO/YaXgxdjzwzW6c0TNlwpB19vmgL61tDZMLRYWqu/jl0k084A7bFAI3+PTqjNpzHyF+9402PfmqLUDm9RB40botCuEfAxEKgRdEKAReEKEQeAD8D4/wcSVMeXv8AAAAAElFTkSuQmCC;" parent="zkfFHV4jXpPFQw0GAbJ--17" vertex="1">
          <mxGeometry y="26" width="180" height="93" as="geometry" />
        </mxCell>
        <mxCell id="zkfFHV4jXpPFQw0GAbJ--23" value="" style="line;html=1;strokeWidth=1;align=left;verticalAlign=middle;spacingTop=-1;spacingLeft=3;spacingRight=3;rotatable=0;labelPosition=right;points=[];portConstraint=eastwest;" parent="zkfFHV4jXpPFQw0GAbJ--17" vertex="1">
          <mxGeometry y="119" width="180" height="8" as="geometry" />
        </mxCell>
        <mxCell id="4rIS1Nqq_IUm1r-qYgcu-17" value="" style="shape=image;verticalLabelPosition=bottom;labelBackgroundColor=default;verticalAlign=top;aspect=fixed;imageAspect=0;image=data:image/png,iVBORw0KGgoAAAANSUhEUgAAAL4AAADeCAYAAACDgLrHAAAAAXNSR0IArs4c6QAAAARnQU1BAACxjwv8YQUAAAAJcEhZcwAADsMAAA7DAcdvqGQAAC6dSURBVHhe7Z0HWBTX3od/ywICssDSRRRFQaNiiV3swasRsWBBQVTUT0yCEmNNriVqlJii8QY15qpJ7BqNLblGIyqKkhhj1BBLsCvSFUWQPt+c3YEtbJldWFzY8z4PD8yemTll/nvmzHLOu4LWfu0ZUCgmhhn3m0IxKWjgU0wSGvgUk4QGPsUkoYFPMUlo4FNMEhr4FJNE6Orm/iH3Ny/6j2qJoCnt0eQ1J9y/mY2iglIuRTUMYwPvbv0REBCA3h184Wr+BPdSnqNMIOD2qBoMI0anocPQ5EUSHuVWzzm1wTgOwpLFXfDg5FU8bTQaMbN9kHTqBvKqqU4Uw6NTj9+mW0O4eTlg48J43EnKQuCkdlyKaph6zRH84Tp8Mn0AfERAWX1vDHj3S2x8PwBu0O//Zk2Dl+KjMT7cFsEZrw8bgx6NpFuV06sXhhGizagRsIj/CXcZNtAf/ITTTBBGt7fg9qDUBnQK/IbNxPgr8REKXxbj4ql78GS31cGwQeET8h7C7OOx8J3ZiIndiK/XrcC7b63AlWZRmDlYdizDmMPe3QueDpbcK+Q1S4gc7WDJvkGE9o3QxMUK5jZiuHl4oUnDBnBi06yU3jya0knA2rh4ogGbhxkj/7pcPjYucBcJuRS2caxc4OlmB3O5/SHqg9H9M5FwJkeyKRC8RMLZh+g1ZhDE8vtRjBq1Qx1nD1uMntEJHfs1QYc+XpIfMrxp5OOInKyXyH78Ao9uP8Xz7JfcEUoIumLKwh64sXo5jj2WBYSgKBXJjwrhZPEcV2/lwOvN+Vix/F2E9OmGgDHj0M8lBYkXHuClsC8+2DMVr1kPxKz3gtG69DIetpqFd/o3hNizJbr4eyE3/hzuFDmh47AA1Lu0B896raiUfrdIAKsmgzA7ZjmmD+6B3iPGIbBVCa6fv44nZWyPLezD5hOB5sI38E70GAwNDYW/1X1k+83CyuhgDBoVisCWOfj1dDJekKFMuxF42y8N3++/hKfc0KaI8cKAsGZ4vDcBD0GHO7UBtT2+b3t3NG/rhqatnCt+7J1s4Opphw69pOOKh/88kfxWiasXGlncwrUbJdwLMp78eRBbT95BmYUPOne1woVVkxEaEYHwKZuR3S8cQ7y4HdGcDcg9iA4fh1nbbyJp22x8eioLOWe/wPS3PkXcC8UgU5XOCLwxdt5kOJyYh/BJUxAxfhaOWITgvXHyw6HW6CDaixkTwzB+3s+wHrkIkQ57ERURjvBp3yLj9RAEtpDu6djADTZpqXgs3ZTyKBVpFu5o4MJtU4weXkOdB2yAJ51/xG2x8HmIsxfBNj8PeRqefQVl/2DfsqX47vJz1HNqDG9vW6DQE55NuR1wDwkHLiC9sAq9qE9/9BZfwcnzLyF2dYWbuAi/nf0Lru06wKliaHIfZ45cQi47PCu8cRF/P8/Bn/G/IZe9I5SkJ+LyPSc4u0n39Gzojhw28F/Kt0FxCtKfusODe86gGD+8Aj/x6G38vONvbosnj1KQZssGWn1uWwUMHNA1fCFWb9qKDTFzMDWoOWzYoYkspkpQXMz9qS9uTuywqhVClizHsmXSn6XBjZFVYgFHbhfgJfJyuT9Rxo77S1BUxG2yZSgtY9+k3BYpHKNiLC95qQrvT0rNwivwR771Ot6K6ctt8ST/LyTd9UXAYMVukDxkdnx7Mza//TqErcchalh9JCybikmR0Zj34Tf44xm3owbYtwb3l2oU0jOe4EnuWayeHskOf6bLfhbsRDKfO5cSKSlpELu7w0o++C0awF2cjtSH3DbF6FEb+MVFsjGKuaUQ9e3qcVuKaeoQCFKwf0scHEIWYe7gVnC2YsPR3BltR7yPGX1f4PjRP1FqLoRZcR6ePC2U9JgO7Yejd8UwRzUvXxbAvqkP3Mwq97qESunJJ3HmZV+MH8XeTdhMGDMxes38AmsmtIFQRc+tjezUNLx0b4iG3LaEhh5wK0lDaga3TTF61Ab+1XOP8NN3V3Fq33WFnxO7/0bc3mvcXpopvLwBc1aeQf2gRfh6z0Ec2L8F7wcwOLpiCfbcZYPuyj58e8kLM7buxrebt2DV8GL8c4c7WA0Pju9HvOVQrD/wOUY4VQ5c5XRB2W3s+Pi/yOq1HN/u2Irt22MxvkEyDh2/jlI9enxc/wvX7bzgbcNts9g0awLxP3/jmu7vI8orosZWYAltHNkR/TNk5yveLcjn/dZiN9iXZiI9V/udhECOqWdtgZKXhSr/A6wu3VzkDLviLDwp4F7QAzJUa/v2Boy6MxtLjuWy29b414df4rUjb+E/l6r6QEKpKXiN8auD0vwnlYKeIBAwKMhJ4x30BHJMUUGR2mkP6tJLcqsW9ASBoBRX9x6GIGAomrL5oNEQDLD6GXv/qHgaptQC6JpbiklSYz0+hWJM0MCnmCQ08CkmCQ18iklCA59iktDAp5gkNPApJgkNfIpJQgOfYpLoHPjEsjDz8wCERHeGrYNsxmZVICaGpl0HYtTESEyfNA6DO3nAQo+Zk+ogJoaOQSHo7lFz/6QmJobFMaGSaQ1Mo1FYuXQY3KqxTrrA2HbG5A+i0M9Vdf6MqC0CR3aD+ysq36tAp8DX1bLAB2piqAGYUpQUF6NEXXOK2yFoZHfFqdZ1HJ0CXxfLAh+oiYE/QmsHONVXfOMI6tnBSWRVUVZp+RvC3VZWPgkvknBg8y78nsltszCwgNjDE67WSvuaCIazLPCBmhgqYJim7J1vIQKFfyLxbj73qgybPvOw5V0vXPjxT+Sw5yRB3mXmN1jsl4yDF1JRz/tNzIlh6xbojz7B4QhqDSRfTEJWcXn5p6L+/47jZqEA9V8bjUWffoiIgG7oOzwQzQpz4eRrhkv7E5GqZsZrXUNtj19lywIfqIlBjlIUFRSisKSM21bkxdlTuOjkj77NuReEndCnSyES4i6hVOiD0HmTII57H+ETJmNiaBT2lAVh/pROsFS6wzBmrTBh9kiY/TALoROnYOLklUjx62VSwxwCr6GOXpYFFseukfh001ZsXjMfI1+zk7zWPGgOpvZ0kPxNTQwyBIIH+GnVvxF7Jpt7RYnC8ziVaAv/PtJ3l0XXXuj0LB4nyLKv5n3RU3Qeu/bfQgGbp6AsFce2/YJC/z6o9BTWoie6WpzF7iP3UUL2LbqHfYd+RRXu27USXoGvj2WBYW/tQZP6IWfvEnx8KAe9/v0lVs1fhFlhrWH+lFMaUBMDb8gCmAtxCbDy7wtf9nmne8/OSIs/gTukIUj5MzOQKn+zeJyODPZ5xFVuiaQEZzHET7KRIVe8ksxs8FjjX6fgFfh6WRaQgWOr52PDiTtIPr0Rs6M/xrG/r+DAR3Px3yRuaENNDDpReuUXJMAf/dp3R89OKYg/8UCakJaFLBc3eMhfTfau45qfiQzlxwVSVxd3NJTb18LdDVX7mKL2oTbwq25ZeIm05PvSh0OW0uzrOPnjYZxIyqpY5E1NDDIYxh5+QWEY0NyKe6UyAsE/+CU+H/5RE9D+zmnElZ/r1imced4doSEtYE3KL/TEkAkBsDxzCpe5XSpIjkfiS3+MC/GR7mvti9ARnWFqylu1gV8dlgU+UBMDh6AJ+owaiaAuDbgXVHP7eDxy3JxxPe4knpV3IMwd7Pp4E9J7LMO2Xduwc/caDC35ATFbLqFYqfzkmWn7Jzvw4o1V2L6D3fe/s2B39ji4e4fJYFRrbk3dxMCYCWFeyj4v6PNmYyE3p3piF9gWkPJrvqykjCIXZwifZ+BZkdGEQI3Ba4xfU5i6iUFQVqp30BPIoUU5mVqDnkDK+CIr3SSDnkAtCxSTxKh6fAqlpqCBTzFJaOBTTBIa+BSThAY+xSShgU8xSWjgU0wSGvgUk4QGPsUkUbv0UB3EshA0pb1kGeL9m9koKuA/jaCqEFtCp6HB6NfJD35+fmjj6wUX22JkP36KIn0nuvOAGBOWLO6CByev4mmj0YiZ7YOkUzeQV4XpBQRil/Du1h8BAQHo3cEXruZPcC/ludppFroiba9haPIiCY9yDdc+mmAcO2BEF2vcuC9df2ws6NTjG8KyoAnVtoSx6O0jhthBDKdGbTFw2ipsXBWC5mqmIFcVMpnLEMaEumiXkIcx80LHzh6wsG+Lf/VoDIGoJbq9xq28MwJ0Cnx9LAvyq/kZgRXsxTYKc9xJYKkyG6i3IRQj+edYrFu/DrFfrMT8yIU47RCG8AEi9lyVrQvlqMtHq73AAMaEOmuXkEfkiJaDFuDzyI6waRyEVTFT0cXDXq/1DYbAoJYF21ZjsOgT2Wp+H/MGCJ7dFWncan5NZoNWYyvbEORtCYkp0lu3gMmGZctR6G15AYevtKlkXTh2NVtjPtrsBUz74Go3JtRZu4Q8BdnIzLdBqx490MSjPp4mfo/dRy8j20i+Kkxtj19VywJj1hoT5wRDcEC2mv9Bh75oUp6uxWygzZZQDoPG8GlqiYzUdO4VReuCtnw02QvIWNsQxoS6apdQwKk/QgfXx/HNP+L++e+w+WFbhI3wM5oen9dQRy/LQsue6Cw8iz2HZKv59x/4FRX9Hy+zgSrM0bh3GELZ3id8YiQWrF6JQOYgdh0vf3hSsi5oy0eTvYDFIMaEOmqXkEfw5BhWL/sWiZl5KMjLxY0fV2Pp1qtVWm9QnfAKfH0sC3BygPjpE8jJu1CS/QTPub/5mQ1UIYCltQh2IhFshLm4+dNnmBm9GUkl5Q2qZF3Qko9GewGB/V3dxoQ6a5dQgeDeXiyIPcdtGQ+8Al8vy0JqBjLcGqGpObfNYuPlKWtQnmaDyraEYtw69hW+2rgRG7fsxMG4y0gv1dD0PPJRay9gMYgxoY7aJWoTagO/qpYFJB/H8ZQuiHhvCPwae8CrXRBmDGst+yyBh9lAmy2BFzzyUWsvYDGEMaGu2iVqE2oDv6qWBXJx9y3/ECfKemLawmWYN9Ybl/YeQ1Z5Og+zgTZbAh/4GhRU2QskGMiYUCftErUIg665NbOxgVVeHvK5RmTavoMdM4uxdMpGhVupJrOBNluCLuhjUCDDD0MbE+qKXaI2wWuMrw8M44ZhSzYhJupNdPT1Rbu+I/HelN4ouPgblDsuTWYDbbYEXdDHoFATxoS6YpeoTRi0xxeI22Pk+KHo3NQJloVPce/KUezZ+yvSOLsahfKqoHoRiklisKEOhWLM0MCnmCQ08CkmCQ18iklCA59iktDAp5gkNPApJgkNfIpJonPgE8vCzM8DEBLdGbYOshmbNQGxBnQMGocAX2vuFRl2foMx1r8xt2UYiG1hcUyoZOoC02gUVi4dBrdqmMVIbAtNuw7EqImRmD5pHAZ38oBFNc6OlLZbCLp7vLr/VRLbwvA+WqaX1iA6Bb5xWBbCEL1gOjpaK15EcbtAjOlZsS6vSqiyEZDJatS2oDvGalvQKfCNw7JQhmeWXTHjbX/YaukV1Z3bzMoeTvbWFeUg+1nbO8LOSqA+X2pbqFO2hVpoWeiPnJ2xeDboLXTKisO5B4WSvBzaBmKQXRL2nJOuntJ07jLngVi2/m04XzyKv9g4FnqHYs3aMWBOH4fZENU2ArQbQW0Ldci2oLbHN2bLAvMsHv9Zfxmtp0ejn7hyz6HVHpB6GF/uK0BgZBBcGBcETQtCwd61OJTKqM2X2hbqlm2B11DHuCwLUp6fi8X6i974v+g34ay8v5Zzk+Lf3x+LozajETU3CsFWh/DlDw/YAFBfL2pbqFu2BV6Bb1yWBSlkjJ24YS3Oe0Zg1pAGigMNHucWlN3Fgf/dQbs+fkg+chD3yQOrJtgLRW0L3J91wLbAK/CNy7IgQ1DwJzatiYPLhDkY0kCuKjzOzQhbIWxkC1xLvIFWo0PRQmmBtnK+1LZQt1Ab+LXFsvAyaQvW/GyDAb3lgkfLuUlgtRgfhf7ZO/HFijXYnTMAM8b7asyX2hbqFmoDv7ZYFgSCElz77nPsvyt7QNR2bvOmYxAVWIjv1x1GhiATR9bvR3FQNMY2k96eVOZLbQt1ijpvWdDXHqCcL7lLUNtC3YHXGF8fjMWyoK89QDlfaluoW1DLAsUkoZYFiklisKEOhWLM0MCnmCQ08CkmCQ18iklCA59iktDAp5gkNPApJgkNfIpJonbpoTqIZSFoSnvJMsT7N7NRVMD/3+hVhdgCOg0dhiYvkvAot2b++0vMCksWd8GDk1fxtNFoxMz2QdKpG8jTcwqFtA7B6NfJD35+fmjj6wUX22JkP36KIi1TiXWBEbXFkKCmyL32sPJyQIpuPb5xWBZqzhZAJqZVv1mB1GEsevuIIXYQw6lRWwyctgobV4WguYbp1zojboegkd0Vp1HrSU1aGWoKnQLfOCwLUmrEFmAAs4KUYiT/HIt169ch9ouVmB+5EKcdwhA+QKRYRs6cUI60Xg3hbisrtzzybS1P+Tnl20ho7QDHSvtJ281DbFXRbtquQ22lFloWatAWYAizAmR1SEyRHi9gsmHZchR6W17A4SttKpkTjl3NhlXTQZgTw9Y50B99gsMR1BpIvpiErGLpOeq/NhqLPpW1dbPCXDj5muES29aPORtD/f8dx01ubW6LiHX4qONdHPw9XbItbbeP8NaQXnhjZBgGt2ZwM/FvuI1WY52o5ajt8Y3ZskCoCVuAQcwKKmDQGD5NLZGRKg1CZXMCY9YcofMmQRz3PsInTMbE0CjsKQvC/CmdYMn2zIxZK0yYPRJmP8jaOsWvF+9hDiNohnHzIuB46gNMmjAJ4ePn4qTtWESP9tZ6HWorvIY6xmhZUEk12wIMYlaQYI7GvcMQyt5xwidGYsHqlQhkDmLXcemQqpI5oXlf9BSdx679t1BA2rIsFce2/YJC/z6QPGW16ImuFmex+4isrfcd+hXq78VK+PRDL1ECdn5/S1JXpuA2ts8LQfTOe9wOdQ9egW+MlgWVVLctgASBijeh5KUqdXwCWFqLYCcSwUaYi5s/fYaZ0ZuRVFJ+UiVzAqlXZgZS5W8ij9ORwT6nuJKlkM7sg/KTbGTIFbUkMxs81qRLIefPzkK63PGCMrYMZZXrXlfgFfjGalkgKKRXsy3AIGYFCcW4dewrfLVxIzZu2YmDcZeRXqqhfGlZyHJxg4f81WLvRq75mcggt1BSbxd3NJRLt3B3Q8VHD2WlKCmzhb09t80ithNxf7GkZyPb2R2ecscLzK1hayV7+NV2HWobagO/NlgWDG0LMIRZQS9uncKZ590RGtIC1qReQk8MmRAAyzOncJmkJ8cj8aU/xoX4SNOtfRE6ojMqPnRl7uPhY0/0Gv0GvER2aNJjCoZ3lDNdJ5Pz90DIuBaSdhNY+SL8sx2ICZbWXNt1qI2oDfzaYFkwuC3AQGYFXREwd7Dr401I77EM23Ztw87dazC05AfEbLmEYrZexLa2/ZMdePHGKmzfwab/dxbszh6H1CJKrsU9HNhyCHkd30Xstq/x73/l4kxC+ZUg57+NnR9/jUz2/N/t3IYdO2PQK2sr1u69L0nXdh1qI7XesmBIWwD5XNvQZgVdIDetemIX2BaQelW+bKS8IhdnCJ9n4FmRinT2HmBTrwwvC1XfsaXnd4M9226ZSl5DbdehtqG2x68qNWVZMKQtoCbMCrpATlmUk6ky6AmkvC+y0lUGPUHAPluoC3qC9PzplYKeoO061DaoZYFiklDLAsUkMdhQh0IxZmjgU0wSGvgUk4QGPsUkoYFPMUlo4FNMEhr4FJOEBj7FJNE58IllYebnAQiJ7gxbB7kZfjUIw9igadeBGDUxEtPGD0dAOw/JSqRXBWPbGZM/iEI/V/3LQGwOi2NCJVMjmEajsHLpMLhVoU7VUaa6jE6B/+otC+wFrdccwR+uwyfTB8BHxFbApS2GzV2LL2a/gQZkPk0NUKlcTClKiotRwmWvq5WATC6rdpuDUpm0oWuZazs6Bf6rtiyQGYI+Ie8hzD4eC9+ZjZjYjfhqzTJEz/gUN1u+g6g3XSXH8rcKmMPe3QuebN7lyFsOBPUc4eHuIPm7HJXWgRdJOLB5F37PVJ1O8naqrxjEgnp2cBJxNgND2BzkyqRXneo4tcuyUNwVUxb2wI3Vy3HsseziMAUpSMr1xZRRHvjjyCU81WIVIG+2JoPmYcXydxHSpxsCxoxDP5cUJF54gJeSYyPgzfTAtKgxGDI6HKN62OJ2/B9IK1FTrlJZfsIRldPTus/Hlne9cOHHP5HD1pvk32XmN1jsl4yDF1LBtA+ufpuDxCghLdONYt3rVBdMCppQ2+MbpWXB1QuNLG7h2g3ZV3uW8+Kv63jo7gkv1coZRYTN0LmrFS6smozQiAiET9mM7H7hGOLFpeM1tLH+HrOmRmDCxMVIsBmG8YHukhR97A8vEk7jorM/+jbndhJ2Qp8uhUiIuySZ5lszNgf961QX4TXUMRrLgr0Itvl5UDFdnI38POSb2cJWw9fjl0NWLO1bthTfXX6Oek6N4e1tCxR6wrPii5Pv4/zRa5IFNKW5lxDHjhcaNFSjVeBDwTmcShTBv4/UW2LRtRc6PYvHCW4Zl+FsDvJUc51qObwC32gsC49SkGbLvklUBbeXJzxyHuBeRQbqYeCAruELsXrTVmyImYOpQc1hw97aZXFXiAK5EVxefj6EQrlV8zpCFoj8HpcAa/++8GWfK7r37Iy0+F9wpzxD9rdhbA7yVG+daju8At9oLAv5fyHpri8CBkt7KoHrICz9JhYRrezRgX2OsEu+jtskQZtVoM04RA2rj4RlUzEpMhrzPvwGf/B2cUjRZh1QTi+5cgIJAn/0a98dPTs+wulfZJoGw9kcdENbneoSagPfGC0LZAH7/i1xcAhZhLmDW8Hp+TF8uSMLAz5Yh7m90rH5qzjp+l5tVgGhEGbFeXjytFDSqzq0H47eFcMc7ehsf2AR4AZOnCmEf9QEtL9zGiflboXGYHOoiyYFTagNfGO1LBRe3oA5K8+gftAifL3nEDZH+aGo1Bz17v2G3zkjkjarAK7sw7eXvDBj6258u3kLVg0vxj/KC4E1oKv9oZzkuNPIdXfG9ZOn8EzurmYMNoe6aFLQRK22LAhtxLAry8GTIm+ErpiLJnFLEHOi3D/JHqvBKkDOa02MAqWZOn1VfjnarAOq0hn3EPxnrQ/2T1iOM+V6QBby8aYx2By01akuofMXQ/CFWBZGrFiPqS3ykfnMDK5+fREaOhiOV3dj28U0MHINW1aUj5eVP6GUQHYrLSlV2L8cprgABexxAuYpkuJ+RMKdPC5FigBlKClV/b4mpyspeIE8NUYCbWgqF0E+nWEc0f7NIQgOGQLns7HYdOmJwnHEYJB+l0H/Ce1w78RVPPUcgek9bmHTtr80fqmDgAwRNaTrinyZ6zrUslADEJvx6PcGwf7WGfx0+HdqmTACqGWBYpLw+jiTQqlr0MCnmCQ08CkmCQ18iklCA59iktDAp5gkNPApJgkNfIpJovOUBWJZCJrSXrIM8f7NbBQV6D7PRR8YRoxOQ4PRr5Mf/Pz80MbXCy62xch+/BRFBpxOS+wHSxZ3wYOTV5HD5UMsD97d+iMgIAC9O/jC1fwJ7qU8r7b5LdK6DkOTF0l4lPtq/svLOHbAiC7WuHG//CtI2dcajULMbB8knbqBvFcwrYGYI6bMCYbDzd9wL69y/oyoLYYENUXutYcap3oQdOrxa9KyUHnVvzNeHzYWvX3EEDuI4dSoLQZOW4WNq0LQ3EBTaSvZD8hrSpaHsvreGPDul9j4fgDc9FykrbquY9CDWyBVkwYExswLHTt7wMK+Lf7VozEEopbo9pqDNLE67A9VQZs5QtwOQSO78/pia50CXx/Lglk9B3h4OCqs6i9HF8OClGIk/xyLdevXIfaLlZgfuRCnHcIQPkDEnktmEhDaN0ITF9k8dXX56Go/ILMXlS0PX69bgXffWoErzaIwc7CsPbQZHMrLqM1woCldXb0U8rFxgbtIthDZzMoFnm52MJfbXwGRI1oOWoDPIzvCpnEQVsVMRRcPe8kaieqwP2htcxZpvRrC3VZpAbWcOaIceYuHLhjMskAuvO/whfhkSQT6de6LkWP+BY/M87jwUDr3WGfDQpETOg4LQL1Le5CYIu19BUw2LFuOQm/LCzh8pY3EKvCa9UDMei8YrUsv49jVbI352PSZp5v9QKDa8iAoSkXyo0I4WTzH1Vs58HpzvgaDg2IZH7aapbGuz3qpNiBoqpfUsBCB5sI38E70GAwNDYW/1X1k+83CyuhgDBoVisCWOfj1dHLlIUFBNjLzbdCqRw808aiPp4nfY/fRy8jmvvarqvYHbW1ez/tNzIlh6xzojz7B4QhqDSRfTEJWcXm9ZPaM+q+NxqJPZRaPZoW5cPI1wyXO4qEJtT1+VS0LsOqD8ZMb4dwHYZj61hRELD8N6/bt4cy+q/UyLKiAQWP4NLVERmr5HPzm7MXeg+jwcZi1/abWfF6cPYWLTjrYDzRYHp78eRBbT95BmYWPFoODYhn1sTZoq5eU1ugg2osZE8Mwft7PsB65CJEOexEVEY7wad8i4/UQBErXvivi1B+hg+vj+OYfcf/8d9j8sC3CRvjJXEhVtD9oavNSoQ9C502COO59hE+YjImhUdhTFoT5UzpVMuWRGa8TZo+E2Q8yi0eKXy9ewxwCr6GOXpaFwhSkZtuhRW9/+IgtUHxrHz5ddxpZ5Fh9DAsSzNG4dxhC2R4sfGIkFqxeiUDmIHYdL38Au4eEAxeQXr7IQ1s+hedxKtGWv/1Ak+WBQ7vBQamM+sCr/e7jzJFLyGWHZ4U3LuLv5zn4M/435LJ3hJL0RFy+5wRnN25XOQRPjmH1sm+RmJmHgrxc3PhxNZZuvSpb7FJV+4OmNm/eFz1F57Fr/y0UsPkJylJxbNsvKPTvg0pPky16oqvFWew+IrN47Dv0K9RbnhThFfj6WBbIGtMdn+7EY+8QLPnvHnz32XsY1c5ZOo7Tx7AgQQBLaxHsRCLYCHNx86fPMDN6M5JKyoOoBOyzjwwt+RD7wYW4BFgp2A9OqLcfaLI8cGg3OCiVUR94td9LsHHLUcbWowRFFd9SWoJStkPW9NYT3NuLBbHnuC1FJE2i6WANaGxzUq/MDKTK3ywepyODfU5xlVuWKcFZDPGTbGTIXZ6SzGzwdQbw8ksQy0IhWeqkI7nXD2HtwkPsbckeLd6cgYXzJ+Fh+Kf4tcKwsAHXZREhRW678qr/Ytw69hW++k3+deV95OCRT+mVX5CAf6Nf++tw7JSC+G/J94FL0yT2g45S+wHpgaSWh/+TWB7+t092ByTj1E7vfI23sQ7/F99VYnD4YdZUHHhIFrO7YdzanvDm9lWHNsOBQjrP9jMInP0hqQr2B7VtnpaFLBc3eLDdcUVAs3dd1/xMZJDHBfnnV9IGLu5oKLevhbsbxND8HcTlqO3xq2pZYBoNw4oNH2CAE1va0ufsG/cZyuo7QCJY1sOwoBc88hEI/sEv8fkV9oM4OauBsv1A2fLgbMWGo7kz2o54HzP6vsDxo3+i1Fx3g4PO1gYe9TIY1WB/UNvmt07hzPPuCA1pAWtSL6EnhkwIgOWZU7jM7VJBcjwSX/pjXIiPdF9rX4SO6Ay+H7SqDfyqWhbw4CyOXrbDmLXb8d3WXdg2tzWub9iEE3lsxfU0LOgKn3wIt4/HI8fNGdfjTmq1HyhaHg7iwP4teD+AwdEVS7DnLltOPQwOulob+NbLEFSX/UFVmwuYO9j18Sak91iGbbu2YefuNRha8gNitlxCsVK9yLPU9k924MUbq7B9B7vvf2fB7uxxkHsHHwy+9JCBFZzYAVpBVjbyVaw11dewoCua8lEHGcLI2w+UEdo4siP6Z8jOV7wDknLranDQVld16frUS19qyv5Ablr1xC6wLSD10hye5BqJXJwhfJ6BZzqIA3g93FYFAQrwhB2PqQp6Qkmu+otG7ANFBUXVMhVAUz7qIA9iV/cehiBgqOQLG5QpzX9SKegJpNwFOWk6aUu01VVduj710ptGQzDA6mfs/UPzOFpQVlqlOw85tCgnU2vQE8g1epGVrlPQE+hic4pJYvAen0IxRmjgU0wSGvgUk4QGPsUkoYFPMUlo4FNMEhr4FJOEBj7FJKGBTzFJdA58YlmY+XkAQqI7w1Yy1bJmIOaBjkHjEOBrzb0iw85vMMb6N+a2DAOxLSyOCVWYukBsC027DsSoiZGYPmkcBnfygEU1zo6U1jkE3T1e3T/XiW1heB/F6aXEtrBy6TC4GXomqBqIbWHyB1Ho56o6f2JbCBzZDe4ayqdT4L96y0IYohdMR0drxQqJ2wViTM+KtX1VQpXRgEyEoraFumVb0CnwX71loQzPLLtixtv+sNXS26g7t5mVPZzsrSvmrZP9rO0dYWclUJ8vtS3UOdtCLbMs9EfOzlg8G/QWOmXF4dyDQsm5HNoGYpBdEvack87G1nTuMueBWLb+bThfPIq/2DgWeodizdoxYE4fh9kQ1UYDtBtBbQt1zLagtsc3VssC8ywe/1l/Ga2nR6OfuHJvo9VAkHoYX+4rQGBkEFwYFwRNC0LB3rU4lMqozZfaFuqebYHXUMd4LAtSnp+LxfqL3vi/6DclbyQFtJybZH9/fyyO2oxG1NwoBFsdwpc/PGCDSH2dqG2h7tkWeAW+8VgWpJAxZuKGtTjvGYFZQxoo3mh5nFtQdhcH/ncH7fr4IfnIQdznHljVwjYotS1URtIkWppOHa/atsAr8Ill4a2YvtwWf6SWhXcQNiYCK07ZYOj8SehMvA4VloBI9rY9XfazYKfCFz8rmAWUEBT8iU1r4uAyYQ6GNJCrBo9zM8JWCBvZAtcSb6DV6FC0UFrkrZyvxLbgLrUtSJDYFnwltgV5yDi149ubsfnt1yFsPU5iW0hYNhWTIqMx78Nv8AcP94WmOhMU0nm2o0HgbAupVbYt+KNf++7oSWwLJ7gVs3K2hQrkbQvyyNkWypHaFjSjNvBrg2XhZdIWrPnZBgN6ywWglnOT4GwxPgr9s3fiixVrsDtnAGaM99WYL7UtqKCW2xbUBn5tsCwIBCW49t3n2H9X9pCp7dzmTccgKrAQ3687jAxBJo6s34/ioGiMbSZVDKnMl9oWKlHbbQt12rKgr4FAOV9yl6C2BRl1wbagtsevLl6lZUFfA4FyvtS2oEQdsC1QywLFJDF4j0+hGCM08CkmCQ18iklCA59iktDAp5gkNPApJgkNfIpJQgOfYpLQwKeYJGqXHqqDWBaCprSXLEO8fzMbRQX8/x1fFYhxoNPQYWjyIgmPcvX/N7guELPCksVd8ODkVTxlHNn8g9Gvkx/8/PzQxtcLLrbFyH78FEVaphLrAjEEDAlqitxrDysvB6wixI4QM9sHSaduIK+az80HYkeYMicYDjd/w728yvkbsu7K6NTjv3rLQs0ZB8ikJ0WzAsl/LHr7iCF2EMOpUVsMnLYKG1eFoLmGqdM6w8MQwJdKbVQH7AjVhU6B/+otC1JqxDigZFaQUozkn2Oxbv06xH6xEvMjF+K0QxjCB4gUz8+ZE8qRlkmFLYBDnSGg/Jzy9SN2AsdK+0nr7CGWGQpUtVFdsCNUF7XMslCDxgFlswJk+SemSG/DAiYbli1HobflBRy+0qaSOeHY1WxYNR2k3hbAoskQ8JizMZTbBAgtItbho453cfD3dMm2tM4f4a0hvfDGyDAMbs3gZuLfcButuo1qux2hulDb4xurZYFQE8aBSmYFFTBoDJ+mlshIlQahsjmBMWuu0RagryGgHEbQDOPmRcDx1AeYNGESwsfPxUnbsYge7a2+DWu5HaG64DXUeWBklgWVVLNxoJJZQYI5GvcOQyh7twifGIkFq1cikDmIXcfLh0NK5gRttgA9DQEV+PRDL1ECdn5/S1JOpuA2ts8LQfTOe9wOKqjldoTqglfgG5tlQSXVbRwggVTpTSiApbUIdiIRbIS5uPnTZ5gZvRlJJeVHKZkTtNkC9DQEVEDOn52FdLnjBWVsGcqUy62IpFry72cdeNV2hOqCV+Abo2WBoJBezcaBSmYFCcW4dewrfLVxIzZu2YmDcZeRXqrh3NpsAdoMAWWlKCmzhb09t80ithNxf7GkZyPb2R2ecscLzK1hayV7UKzUhrXcjlBdyBdRAWO3LBjaOKBsVtALbbYAbYYA5j4ePvZEr9FvwEtkhyY9pmB4RzlDdTI5fw+EjGshqbPAyhfhn+1ATLC01CrbsJbbEaoLtYFv7JYFgxsHVJgVdEWbLUCbIUAguIcDWw4hr+O7iN32Nf79r1ycScjiUsn5b2Pnx18jkz3/dzu3YcfOGPTK2oq1e+9L0lW1YW23I1QXtdqyYEjjAPmYTpNZQRfYDk2jLYDkpckQQD7rtqlXhpeFqu+00vO7wZ6tc6aS11C+jUphU+vtCNWF2h6/ujCkZcGQxgFtZgVdIMXTZAvQZggQsM8W6oKeID1/eqWgJyi0UR2wI1QX1LJAMUkM3uNTKMYIDXyKSUIDn2KS0MCnmCQ08CkmCQ18iklCA59iktDAp5gkNPApJonOgU8sCzM/D0BIdGfYSqZa1iwMY4OmXQdi1MRITBs/HAHtPCqt7qlJiDlg8gdR6OeqfxmIzWFxTKhkakRVz0dMCiuXDoPbK2oTbeUnJoXAkd3g/gqvGUGnwH+1lgW20eo1R/CH6/DJ9AHwEbGFd2mLYXPX4ovZb6BBFefT8KVSuZTMAbraH8gkLQWbgzYTgRLUpKAfOgX+q7QskFmGPiHvIcw+HgvfmY2Y2I34as0yRM/4FDdbvoOoN10lx/I3E5jD3t0Lnmze5cibEgT1HOHh7qBQbpV2BzlzgKp0rVYCZZuD3Pn0KQ81KfCj9lgWirtiysIeuLF6OY49ll1QpiAFSbm+mDLKA38cuYSnWswE5II1GTQPK5a/i5A+3RAwZhz6uaQg8cIDvJQcGwFvpgemRY3BkNHhGNXDFrfj/0BaiZpylcryE46onJ7Wfb5GKwHTPljR5iBnIrhRrHt5qEmBH2p7fKOzLLh6oZHFLVy7Iftqz3Je/HUdD9094cWnQxE2Q+euVriwajJCIyIQPmUzsvuFY4gXl47X0Mb6e8yaGoEJExcjwWYYxge6S1L0sT+8SDiNi86qrQRkqrB2m4Me5aEmBa3wGuoYhWXBXgTb/DyomHLOXqk85JvZwlbDV+yXQ1b+7Fu2FN9dfo56To3h7W3LltUTnhVfvnwf549eQz5bztLcS4hj79kNGqpREvCh4BxOJYpUWwlYVNsc5NGjPNSkoBVegW8UloVHKUizZd8kqoLbyxMeOQ9w7zm3rQEGDugavhCrN23Fhpg5mBrUHDbs8EAWd4UokLsyefn5EAqlX/6sD2Shxe9xCbBWsBL8IrUSSHdghxJq3uwS9CuP5JQ8+idV1BWTgiZ4Bb5RWBby/0LSXV8EDJZ2YwLXQVj6TSwiWtmjAzt+tEu+jtskQZuZoM04RA2rj4RlUzEpMhrzPvwGf+h4JRTKpQLl9JIrJ5Ag4KwEHR/h9C8yxYFqm4NuVCoPNSloRW3gG5tlQSBIwf4tcXAIWYS5g1vB6fkxfLkjCwM+WIe5vdKx+as4yXBAq5lAKIRZcR6ePC2U9IoO7Yejd8UwRzs62x9YyN3vxJnCCivBSblPPKpqc6AmBf1QG/jGaFkovLwBc1aeQf2gRfh6zyFsjvJDUak56t37Db9zViVtZgJc2YdvL3lhxtbd+HbzFqwaXox/7nBpPNDV/lBOctxp5Lo74/rJUxVWAglVtDlQk4J+1FrLgtBGDLuyHDwp8kboirloErcEMSfKHZYkX/VmAnJea2IlKM3U6ev2y9FULoKqdMY9BP9Z64P9E5bjTLlikIV8VFhVm4N8ftSkwA+62NzAMIwj2r/5Bnr0CULLpKV4b/utSsHGOA3B8gX2+Gbeds7Frz+M52h8+g6D1Qu+R5qeQW0K0MA3MOSz7NHvDYL9rTP46fDvSFOjWaHULDTwKSYJr48zKZS6Bg18igkC/D8jnwO0auAHwQAAAABJRU5ErkJggg==;" parent="zkfFHV4jXpPFQw0GAbJ--17" vertex="1">
          <mxGeometry y="127" width="180" height="249.75" as="geometry" />
        </mxCell>
        <mxCell id="Ipfjhb78sDThEaW0pg_N-0" value="Store" style="swimlane;fontStyle=1;align=center;verticalAlign=top;childLayout=stackLayout;horizontal=1;startSize=26;horizontalStack=0;resizeParent=1;resizeLast=0;collapsible=1;marginBottom=0;rounded=0;shadow=0;strokeWidth=1;" parent="WIyWlLk6GJQsqaUBKTNV-1" vertex="1">
          <mxGeometry x="520" y="350" width="240" height="490" as="geometry">
            <mxRectangle x="340" y="380" width="170" height="26" as="alternateBounds" />
          </mxGeometry>
        </mxCell>
        <mxCell id="4rIS1Nqq_IUm1r-qYgcu-159" value="" style="line;strokeWidth=1;fillColor=none;align=left;verticalAlign=middle;spacingTop=-1;spacingLeft=3;spacingRight=3;rotatable=0;labelPosition=right;points=[];portConstraint=eastwest;strokeColor=inherit;" parent="Ipfjhb78sDThEaW0pg_N-0" vertex="1">
          <mxGeometry y="26" width="240" height="8" as="geometry" />
        </mxCell>
        <mxCell id="4rIS1Nqq_IUm1r-qYgcu-154" value="" style="shape=image;verticalLabelPosition=bottom;labelBackgroundColor=default;verticalAlign=top;aspect=fixed;imageAspect=0;image=data:image/png,iVBORw0KGgoAAAANSUhEUgAAALoAAAAkCAYAAAA+YiDCAAAAAXNSR0IArs4c6QAAAARnQU1BAACxjwv8YQUAAAAJcEhZcwAADsMAAA7DAcdvqGQAAALSSURBVHhe7d2/btpAHAfwnxEMiB1RkQy8AlPJmDeoEZWSjB27dujAUFWw5TVwpFbpI3SETHkFhkSyxc7En+v97HMF+GIIAvvgvh/pZJ+5JBfzPXO2Y8UR0nw+J1YsFsNlmiAIqFarqZrert/v0O0Y+peE/hEV1BLgrCHoYAVnNpu9a+oymUyoWq2qml6eH23oXxL6txL0crmsNsGxyX2u1vROMUg6JvXv/8loqVQiuao2w7E4jrN1P+cZJJyMApwwBB2sgKCDFRB0sAKCDlZA0MEKCDpYYe2GEa6jHx9fR8cNo3VZ9M/YI3rw0A5DEZf+k3rhXUbUd9rkvaoqWKvAqd9lJGWJQ/7htklD+QnDnzJCDIla+4bdPPE+N7EUCgXtdlPKvv3jIAmevsj9z6sGGIqe7EtvpKqxUU9QZyD8sBK14T6H5accEuxlIFxyhdvh7d/Fj3DJxRWDl6hJ3nbZz/x+cNnm0O2Y70d7OM2hf+6u7di+/TMv6Bxo6skov8UXAxlg11O/sAp3GORwfXWQ8IAwJ+QMQU/atR3bt39mztE7DWqo1aQa3f4S9Hij/rDnokHNaE1xqXGhVgEUM4P+e0xjtar11F85Ub2irtocaSLokGBe0D9eU09G9+/mieerR+3PHgV8JaXVJTk94TmALEPZHiCdgUf0Fn3xXOq2+jLSMRnuyzuiT9dy4rIueLjfOKIDJBk5dandPJLvPdPVyvTk2fPVvDweCNFrX+kbDTp/aKy9Vi7n+vK1u0tcS7cdnjDKGA/Obfs5zzuP5/qEkSO/UCwWC6rX6wh6Bjjovu+rmt5yuQyXfHMkja7d5kDiOr+/LG6XNtim0ylVKhVV0zvF/uGInrG0NzF2ikdMHZP6lz4kAc4Egg5WQNDBCgg6WAFBBysg6GAFBB2sgGdGM8bX0eU+VzW9PK9TW/HMKL8JKMctkA/8a5cU6J/e6fWP6B/zPrBKTquZxQAAAABJRU5ErkJggg==;" parent="Ipfjhb78sDThEaW0pg_N-0" vertex="1">
          <mxGeometry y="34" width="240" height="36" as="geometry" />
        </mxCell>
        <mxCell id="4rIS1Nqq_IUm1r-qYgcu-155" value="" style="shape=image;verticalLabelPosition=bottom;labelBackgroundColor=default;verticalAlign=top;aspect=fixed;imageAspect=0;image=data:image/png,iVBORw0KGgoAAAANSUhEUgAAAMIAAAAjCAYAAADG+dUWAAAAAXNSR0IArs4c6QAAAARnQU1BAACxjwv8YQUAAAAJcEhZcwAADsMAAA7DAcdvqGQAAAO2SURBVHhe7Z27TuNAFIaPERSIHgUBRaR9AiqMRBOJB1hHQVpSrXgFOrIU2aSjpqWyV1qU7AOslGalmIqGdqUUIDmip+LiPXMLDrETWDnYSv5PsjxjH8+MJvPPmcmJFStkKMLj46M8Ly4uyvM4+v0+FQoFnYvnreWlbSdA+0ZB++JZ0GcA5hrr4eHhvz3C3d0dra6u6lw8Wc4YaN8oaF88sUJYXl7WOTBtuP91Kp5ZGWh5b1/sHmFpaYleXQZTwLKsif2c5UDDHgGAOQNCAICBEABgIAQAGAgBAAZCAICBEABgIAQAGCsIgkFERwR4np6eaH19PfWAmv/dotNPAbW+jA+ApMqtR+XNHh2Fx2TrS3lC9Df3v87F8/z8LM8LC+PnrDi71wE78/kKjN24oN79/T2trKzoXDyz0r4PiyxDCKOM+5ANsxK5zXv7xstkWlw2ydpvUnPfkoPBssrk3ZrrHvWVlRrIVpN8memTN7C3qHkpLw5smiy04Xs+NTer1KYa7ZgypK2xM+Uyst6yurd/Rmdcz6B8Rog4mgcziPAIUfSP8HQuPbp1Ch0vUBm/Ieto+CIThG6FQqp3Od0NG+SE7o24znc8R19Xz5u0el7b3bihw2WZsqVdxeVSzb0GlyrvcNkJdtHymGi96jlTRrq8pZ/F5yGOSaRtJxDL5kmkXe9b7QRpti8bjyBpUGlbnAtU+sxDWVKkYqVNrT/CJ/Sp86tNjT2xqPGpc8JPyDSzfUgu2/WEF5E4VN5VLtLe4+Eex22PrrjOI700s7+65Fy0qDMoY4uKGypV2C2Tc91TnumyQ7V6KZdLK5Ae2QmhwoNeJ19Qomj/7fHA7VDrwohFUbPNsmaNqhdEVz2ziHoZxImwENo6Kdko8lMRou3ZKFGZlEj837UXAYKZJUOPEI+cjU865IuBOzQTO8RLF7m5NMe7Nt488I3fkUgPkYQQJLFn8tgTDYsRzCa5E4KcjSu8wbWjM7FNpXqbqud6e6s3ve/awEoPUKPTH8qL+Oe8ka6UqZTgSYQg6aCKZdGckD8hDPYMwzOx/S0g93pHLY02q0ReQMeTZmo9+NW3RjYd37g8uNdkGTs803d/HnBtCUhBRvYlYKZJfFVTLD3mmg+IQQhBcv/rXDxZfk8/T69q5tAj5AARV2Cvs+XnMxAH0gfvLGeI8AiT+jnLGReRZQDmDAgBAAZCAICBEABgIAQAGAgBAAZCAIBBZDlDEFkeJav2JXoE+ZseHFM9QH7AP+agfYnMT/uI/gGoglod1/4wWAAAAABJRU5ErkJggg==;" parent="Ipfjhb78sDThEaW0pg_N-0" vertex="1">
          <mxGeometry y="70" width="240" height="35" as="geometry" />
        </mxCell>
        <mxCell id="4rIS1Nqq_IUm1r-qYgcu-157" value="" style="shape=image;verticalLabelPosition=bottom;labelBackgroundColor=default;verticalAlign=top;aspect=fixed;imageAspect=0;image=data:image/png,iVBORw0KGgoAAAANSUhEUgAAAOgAAABbCAYAAAB598mjAAAAAXNSR0IArs4c6QAAAARnQU1BAACxjwv8YQUAAAAJcEhZcwAADsMAAA7DAcdvqGQAABUHSURBVHhe7Z0JWNTW2sf/YUBgZBvZEYsgmyiuqBVUcLdVXFBBULSo19pPFPe2VluXq1Zta21d7u1irWuxKlr71VZBRVEqtahfragoihZFBQRZB2bIl8xEGCDDzMAAg5zf8+Qhyclz3pNk3pyTzOQH1cm7Gw0CgaCT6HF/CQSCDkISlEDQYUiCEgg6DElQAkGHIQlKIOgwAhtbu5XcfA26txFhWZfOeMPRAZnFxcxUwpU0PLRJL8xYHASLW5dwv5Di1vJD0yL4jB6D9gXX8U9+7dvWhryeIAz08Ya3t8LkSOF+aibEpr0r2nSv0AUDw3zQ6vZdZEvrHrOhoE27YFSgM/JvPEQB1fDt0+R8EdRHaQ/aWl+AKK+O2HT9hmxi59l1jQYthaSsDBK1vgSyQo8xwfBtxy3WGbaeSRjgJoLIQmEyN4Y+W6zYJj1nBISOQEcjtqBxcQ5ahX8Hu3FLShB1ReD4vmjLLdYHteJpdL4I6qI0QR2FrZGWn4+HhUWyiZ1n16mCplvBtI0ZWoGGQGgNO9PKpNYzsoajrRn06apnkab1YW7nBEeLVtwaBqY3jPn2AP54VrVOyrANHOwsZPN8qNpWYGwBy9YG3JIcytAMlqZG0CtntytD6q9bsW37tsrph0t4zvZCCm3ig6YFEFo7wp7ZD71q+1gX9Awt4ODQpkr79YUi2Do4oX1be1gy+2mkUEbDACIHR9gY1+1Cqm68KufYvB3aWzNXqTqcL8X20pQRzEVCCLRw3F4leIe4XhbmmOPpgQ5mpuhjZYlhDvZwZ9Z5icyRXlCIZyVibkseBP5YFh0BV8FgzIkKxuiwMPgZpSPbewHWRQVhxIQwjPTMxe9nU5HP9EvtRyzF2jXzEeL/OoYEh2KgdQYSkx6gWBDA1DMTrX85iZtl7HwEXGhfzIoMxqiJ4Zjga4K78X8iU8IOpyzRc8wQGCZH4+Lj2rcV+i/FzvlOSPr5CnKZpGOTqve87/ChdyqOXhKjx9ihsnoSM3iGabJ949pUygxxQ92QeeQkbokpGLUfgUXr12D2m74YMC4UI70kSLmYgpzymvXQtDOCVi7HSMEVJN4r4tZWwl6w3Mcux8aPIjCwVwDGBw+Dw7OLSHpYAq9JazFnUFuIHD3R288J+fEXcK+UQuuOE7Fi00pEDHkdAWNHooM4H5buekg+nIhHcKkSr3p8TeOlSeXnpqPxcCxYGIRO0qv49e/OGpwvwMQrGCs2VrbXTd8eQYv6IJNp7+NGGJI3F3h70P62NvAwN4O5gQG6MPeh7MTOe5iZycpU0wndTQ9i7rTJmLL0VxiPX4G3LQ4iMiIc4bN24WmPEIz0YDYTdECvPkZI2jAdYRERCJ/xLbIHhmOUk7yWqnREZ+MfsWBmBKZO+xAJwjGYMtKOK6uO8m0Lzp/BZUs/BLjKFpk2+MC/txgJccko12M/GBQsnHuiZ/ceFZOrZe09Ek25YNLS6bCIXYrwt2YgYsoCHDcIwUImgfmRopS5yIkl5dxyNYz8MWV6O1xYNhkz32HqW3MWxt26wYrpXa7vWYRNZ7KQe/5zzH5nE+IKmIuMnhemLhoPvSMLEDZtBqZNX4cM7/4Kw9vq8aotaxhPjitzEY5GVHgoFuy9xa1TRPk5oPU6YRpzv0rFVLb3QfcAtJeVEhRR+RQ3KStbNmlGOs4dT0Y+TUF88zL+fpGLK/GXkM/0JpInibh63xJWtkwqlN/GodWr8P3VFzC0fA0uLiaA2BGOzlw1VUjHxRM3UMRcXaX5yYhjxlL2bZXddNayrfgiziSawM+fvUIABn36wycvHrE3Xg6tDODiPxlhkyunoZ4KQ28+3AZhgOgaTl8shsjGBraiUlw6/xdsunaHJc+QjaIe4H83fICt55QcV3EGHmebwWOAH9xEBii7cwibtp1FlrKexaMf+hicxw/H0yFhtqFK7+PQsd9RzBVXj1cjvqbxZNxHQkwSnjCjB35qOQee/dBLcB7Rxyrbezjmd9QcSxBUJui+tHuySTOKUZjPzaKcGUJJUFrKLUICKXPhZk8rDQv0CV+Oz77ZjR3rF2NmoCuEzHCN/3MhRsnLTxxDYVERBALZoxselG9LUVIkxSXAyC8A7szQrm+/XsiMj0VaRdBSJO9aiEWLF1VMOy4oVMaHrSUsDbwQ8tEarF4tn1YFvYYsiQHacJtoAoWb2LdpPx65hOCjr6Px/ScLMaGrlfL7WisRRDnZeKpQLHmWjTxuXhUax5MhQVkZN8tLLefL0gKi5zlQvJWXZOfgBTdPqERlgq7v0U02NQidQxE5pjUSVs/EW29HYenK7/Cnup+qeiC9dgoJ8MPAbn3RzycD8bEPuJI68jQHOfnn8dnst5lh4OzK6b39SK21F1JOfsoxbFk+B5ODI7D2jBCj330LvRSuR8xljJtjYONb26Gtwtk0sLOFiJtXB43i1ZfHT/HUth2cFeoXOjnW6WL2qsOboGKplJtjDpy+vmx6iWJZvREIoFdWiJznYqaXBSy6jcUA3uGtdqGo2zgVXwS/yKnolnYWcU+5grqSehrnigMwZQIzAmB2hNYTof+8z7F5amfep5I0bQ7vQGbo7Mr/HQ3dbgzW7liGoey9r/QFHj3JQ3lrC1gYysuLi0tg7uwGWz2u7tR4JBb7ITTEDcZsfGN3hI3rxQzW5VSPV2NZ03j1JfUkTmb0RsTCUfB+zQFOXQMxd0wnnue8BN4EjUl/iK9v38Geu2lVJnYdW6Y1rh3CrmQnzN39A3Z9uxMbxpbhdhpX1sDcPRmPXFsrpMSdRl4de7mXUOV3se/jr5HVfw127duNvXu3Yop9Ko6dTIGUr26qPfwnjEdgb3tuRTUenMeJq2YI3rIX3+8+gD1LOiFlxzeILeSKTx5GfKvR2B7zKcZZ0rJ7+b0b96Fg8Abs3bcH+79eALPzJ1ExLqger/qyhvHqC0Vl4NCalYgt74dZy1dj6SQXJB/8DVlcOaGSJn8flKYpGItsYS59hif5Wuydmwh9UyuYlWUhR8WPrmg9AfSlzP14LRcHGkawtBGiJCsbRdW+rmGPm6GxASTFYpRzdbBfGZlaW0Hw4inySque1urx+OJrGq8+6AmFMCoslD1EYqG7zMG+eWVYNeO/db4teBUhL2wTGh2atkXQxs0IeLAbu0+lQeLgjUHjgtEpZR3e3nG11otWS4MkKKFJoETdMH7KaPRytkQr8XPcv3YC0Qd/RybPDztaMiRBCQQdRuXXLAQCoekgCUog6DAkQQkEHYYkKIGgw5AEJRB0GJKgBIIOQxKUQNBhSIISCDrMK2H1ewlNC+Hy+iAMGTIE/bzbQUS9wD+ZL+r10zFi+qs7xPRXf5T2oM3L6sdsbuiKoJXbsHH2ULiZMjtm3QVjlmzB54sGw55S/8dSNQ12xPTHBzH9NQ5KE7Q5Wf3YNy3cQhZisnk8ls9ZhPVb/4v/bF6NqLmbcMtzDiLfkHuUXtajaMJjLX9tOAuecmMeMf2pikdMfw3Dq2H1o/pgxnJf3PxsDX57pPDhLMnA9Xx3zJjggD+PJ+O5Qp2siY/FI2Ib/t3zHo7+8YTfYFdaaQwkpj9i+mtseHvQZmf1s3FCO4M7uHFTIl9WoOCvFDy0c4STGh2IcoMdMf0R01/ToPIpbrOw+pmbwqSoEIV873vn5aNAzwzMYKAeENMfMf01DSoTtFlY/f7JQKYJkwR8t8jt7GFb+AgZudxynSCmP2L6axpUJmizsPoV/YXr99wx5M2qnlz2AU2X4QMgSvk/yAZc5VJIyk1gbi4rliHi6Vq1YrAjpj/NIKY/XngTtLlZ/VgJ1eGdcbAIWYElb3rByoiCQGgPn5APsWhwAQ5/F4t8NinodDx85Ij+EwfDydQM7X1nYGxPTl3HoTWDHTH9aQYx/fHCm6DN0eonvroDi9edQ+vAFfgq+hiOHNiKKN8iHHn/PURzejuKuo+YncdQ2HM+tu75Ch8My8e5hKouOW0Z7IjpTzOI6Y+fV9LqJxCKYFaei+cl/LvGftcmNCxHsZg/nrYNdsT0px7E9FcT4iQi6ATE9McPSVCCzkBMfzUhCUog6DAqv2YhEAhNB0lQAkGHIQlKIOgwJEEJBB2GJCiBoMOQBCUQdBiSoASCDkMSlEDQYWpNUNbq90UfH9nEzhN0E9aeN31ZJAbaNP5vTpoydktAaYI2udWPoJQaRr2mtOdpGFstGyChAqUJ2tRWPz0jc1iaG1e8O8m+lWFs3gZmRsp/l1m32PzWPVUWupflygyBqpDHbQs7k6rbK8bVN7FDO1vTKu+P8hr8eMyC6tRfm11PbTQw99VmHyTww/tbXNbq946HO+yExkjPL5CtczI1kcmrd9y8jRu5yrUHtN4grDo2HI+jy9F3WDsImSR7FLMR+6QTETnEBgbmFii9sh3vrTyBxzKr32IsmdYbViV5KDc3Rc7pzVix9QJy7Mfgky3DcfXdSOy7T0PPeTK++Lg7YqMW42gmF6wamsTOpOTWvXlL30IP4wIUGZtB+vd+bFgfgzsSVrolrytjXyF8BreHiaUN9B8ew8fvfYUrxS/L38SVKYtwLE9+0fD817d43+ALTNt+TbasDCPnEYhaOh0+wnwUGlpAmhKNTz6JRkrhy3qH4sGuYvQb54zycjOYF/+Bb9Z9it/Sy9A5/FMseMMVVlQOHufewI9LNiK2aHCVtqiuX/l+VUdu+5sDl/Mb8Onpmm5RxeNwNJ9th/K6+dpeKRwj8MHbg+qE1e/xT/jyUAlGvh0Ia9oagbMCUXJwC449VnXVVS+2eta9WkyCdYTWc0UYc1EQxb2P8KnTMS0sEtHlgXh3hg9aVfSU3hjodQnLpr6FGeFTsPy8LWYunIDXmHLlRj056tWvyX6psA3WQHndqtpOqInKp7hNZfVjX/9LP7wVJ4RM77ckEkFGx/DlkQdMYqk6qerFVs+6V4uFrq64BqCf6UUcOHwHJUy9VPlj/LbnFMR+/ujKbQI8Q/zBX2WvWVFUMW4eiEFy277oq861Qa361d8vlbbBGjTAMWvBqEzQprT6UeX3EPNLGrr6eyP1+FGkM0mnGvViq2fdq8VCV1fYuM+e4rFih/ToCZ4y98w2Qm4ZOciuorfLRHZeGzAjRtWoVX8D7FcFDVl3y0Nlgjal1Y8WeGHyeA/cSLwJr4lh8NCWoIqlvtY9NQ2BNcjMQpa1LRwUj3xbO9gUPcPTCgmsNezsFdpg6AA7i2w8e8ItMyg16qlVf9OitO2EGvAmqC5Y/dinkB5TIjEoez8+X7sZP+QOxdwp7tr7Px0aWvdqoIYhkJc7Z3DuRV+EhXjIbXsCR4yaOgStzp3BVW4TJtXRP2QsXtNn/+eJKbpOm4Au6ReQwCVorUY9tepXH1W2QU3Rug3wFYc3QXXB6qfvHIzIkWL8uO0nPKWe4fj2wygLjMKkDtoZLmls3auGOoZAPig6DQc+/gZPfFdjz4E92P/DZoyWHMH6nckoq4h7C6eveeLD3fvw/YHv8UH3+/jP5iMV/5+kNqOeevVrgCrboIZo2wb4qtPsrH60/jCsiZmHHtU+bHT2L3h/6lZcr8OHUF3rHh98hkB12sh20oYia5iUsHErT4Hi1xY/i9vASliCZ9lFNax5qox6yuqvC+rYBjVB2zbAV5lm5yRiT66+gT5P118OSZlEjae8DU992sj3/Sqh5cI7xNVlKIqGVFKGshqTVCeSk6VebaSzcSvpOjIrnjwTWjLE6kcg6DDNrgclEFoSJEEJBB2GJCiBoMOQBCUQdBiSoASCDkMSlEDQYUiCEgg6DElQAkGHqTVBm5vVjxjm5NBGHgicuwpffv0N5vc3rnJcaDgjIGwI3A21f4zI8dc+ShO0WVr9mtJuV42mtNfZjZqFWR2zsH/Dauz5o6jqcdFjEjR0BDpq5+2xqhDDn9ZRmqDN0eqniWGONfBZtjbgluRQhmawNDWqsPvV1fhXm71OHduewLwd2lsbqdXG6rQyaQNnO0u8uHMVt3PyUMT+ppfH+qeIsv3UGGL40zoCG1u7ldx8BazVb46nBzqYmaKPlSWGOdjDnVnnJTJHekEhnpWIuS15EPhjWXQEXAWDMScqGKPDwuBnlI5s7wVYFxWEERPCMNIzF7+fTUW+zOq3FGvXzEeI/+sYEhyKgdYZSEx6gCLr4Vi9/X9gdfkE/splqnUJw+YtwaDPnsRNuWiwJrLYM9H6F2absgBZO1xoX8yKDMaoieGY4GuCu/F/IlNCQei/FDvnOyHp5yvIpdjXvwToPe87fOidiqNJj2Ho/AYWrV+D2W/6YsC4UIz0kiDlYgpy2H/Hzu2jsrq9Jq3FnEFtIXL0RG8/J+THX8C9Urltb/F6pmykH/yDwhHYCUi9fB1ZZS/rnImOxsOxYGEQOkmv4pxoRq1t5Pvhfe+Zm/EvP2tYtGVje6E8+QxuFbHHgjsupS4YGOqGzCMncUssNxsq3c9qyA1/yzFScAWJ93j0DBocf2XHiFAV3h60eVv9FFFumCs4fwaXLf0Q4CpbZNriA//eYiTEJUOq16Fexj8+e516tj1X5sIWjajwUCzYewsFCWdx2Yq/jcreo0zcPlsh9kf46ZHyD716ZkNFiOGvsVH5FLf5Wf0UqcUwJ76IM4km8PNnrxSAQZ/+8MmLR+wNJlkawvinlm3vPhJikvCE6dlklFxg2mjK30ZtoNZ+VkIMf42PygRtflY/RZQb5ihKiqS4BBj5BcCduQfu268XMuNjkcYGbwjjn1q2PQnKyrhZBraNfzBtNK7SxlPyNmoDtfazPhDDX31RmaCvrNWPQXrtFBLgh4Hd+qKfTwbiYx/IC+pr/OOoYq+ro21Pci0WCRTXxp7/4OwpLTqhtLSf9YEY/mqHN0FbhNWPgaJu41R8Efwip6Jb2lnEPeUK6mv8Y6hhr6ujbY/CTcSeE1e0kee/L9QdDfeTGP4aH94EbQlWv5fcPRmPXFsrpMSdRh7Xa9TX+MdS3V5XH9teatxZ5NsxbTx9pqKN2kDj/SSGv0aHWP1UUC/jH7Nv1e11bMekqW2PtgvBF1vccHjqGpwTU01qNiSGv8aFWP10GJpug25vDIavfyA8r6/Cwr13ZInRko5BS4d3iKvLNAern9YQ2MGtczuUXvoC6w/Ik5OlRR2DFg6x+hEIOkyz60EJhJYESVACQYchCUog6DAkQQkEHYYkKIGgswD/DzWH/OWFp22DAAAAAElFTkSuQmCC;" parent="Ipfjhb78sDThEaW0pg_N-0" vertex="1">
          <mxGeometry y="105" width="240" height="91" as="geometry" />
        </mxCell>
        <mxCell id="4rIS1Nqq_IUm1r-qYgcu-30" value="" style="line;html=1;strokeWidth=1;align=left;verticalAlign=middle;spacingTop=-1;spacingLeft=3;spacingRight=3;rotatable=0;labelPosition=right;points=[];portConstraint=eastwest;" parent="Ipfjhb78sDThEaW0pg_N-0" vertex="1">
          <mxGeometry y="196" width="240" height="8" as="geometry" />
        </mxCell>
        <mxCell id="4rIS1Nqq_IUm1r-qYgcu-32" value="" style="shape=image;verticalLabelPosition=bottom;labelBackgroundColor=default;verticalAlign=top;aspect=fixed;imageAspect=0;image=data:image/png,iVBORw0KGgoAAAANSUhEUgAAASoAAAEeCAYAAAA90ViUAAAAAXNSR0IArs4c6QAAAARnQU1BAACxjwv8YQUAAAAJcEhZcwAADsMAAA7DAcdvqGQAAEFrSURBVHhe7Z0HWBTX+od/S1FY6aAggiiKGo29V0AxscYusWCJ3jRbbES9dq8x1nvzjymaqIktgcQYU64lNqzRa+yx9wYqIEqv85/ZHdhddnZmtqCDfO/z7MPO7syZ0/bbc4ad86rq1W/EgCAIQsHY8X8JgiAUCwUqgiAUDwUqgiAUDwUqgiAUDwUqgiAUj+xA1bF/HYxfHoHICc3h4lGef1XZMF5dMHvRYFRXMWAC++Ojeb3gy9A/OQmitCErUL3aqgp8gzywamYcbpxPRPcRDfl3zKd633n418AQfqvkYBh7vNq/DxzjfsdNRgXc+R37mZ4Y0MiR34MgiNKCrEBVpYYnzh29h+zMXJzYdwsB7LYUduU94O/vhXLQjWAc1J7w9Q9CtSqV4e3lBie997jAoq5YBX4u9vwrWhimHFzZfbl07N0DUa2iE/9O4TEBqOxRDnbFR0quoRjQ8TEOHUjRbKpUmTh08C7aD+wCTxpVEUSpwugHnz7+LuyIqQHsHXQBw8tXzQapPOzc/DeunExAYC0v3L2SzL9rCMM4oFbvGZg2pC6YpHQ4qTPx5+qZWHk4Ba9GLcfErjXho0pGfMoF/DB1CfakqeBUvQsmRL+FZupUpLMBLv9iDJYti8HFdBUYu46Yt60bErcC7br4I/6XeZi48TKcqnXB+OgRaOKchgxnN+T/vRmLF23FtTx29MTlo/kkxL79FDNGf43rKv61asOwerk/1vdbhMPQvkYQhPIxGlHVauSHmg18Ub2uT9HD3VuNSgFuaNw+ULOPqSClwSkUQ98KxOEZQzD6vVEYuWA/nBs1gg87ijm/YTKW7ktEysH/4N33lmqCFGNXE4PZgOO5Zzqihr2F4YPHIqagJz4c1QzlikY+NVHTPgYTogZpghSjCsabbGDz2B2NqBHsOYZOxK+OkZg0SDel9KrsC3VCPB7w2xruxSPB0Q+VK/LbBEGUCkSnfnfYgHT+yD1+i4UfmYiSfR/xSW6o3aEtQjwdkXvtRyz9bD8STR1bMwztXI/guy3XkMXuoyqIx84NfyC7bSh0V8Ju4dDW43iYzacR0hEdPM9g75FMeFaqBF/PHBw7eA6VGjaGNx/cAqr4IYUNVJn65829j4dP/OCvjbcEQZQSRAPV0e3XsWPT3/yWPFS4hE1LN+NBcCTmfBWDb5dNQv+GPsbXkArx9Yb340eIL+C3OR48xCN1RVRS89vIQ24u/5SDO8axLiLnLMD8+drHvL5VkZjnCC9+Fy6oMgLn1LxEsz6CKFWIBqp+7zXBe4vC+C35pF7chk9mjsGQgSOxcJ8ab3w4As0d+DdZ2HET/4wlIRGJFX3hr58TdjRUKeMxHmXw28V5lIzk1INY8e477BTyXd1j2mZc5UdQ9+8nwNPPD076wcqxMvw8HyL+Lr9NEESpwChQ5ebk888Ah3L2qOCm+82U/numYAJ7YeEXM9DZ2x7If8YOjp6ioIIHCn96lZmZBffqIfC14wPItX048Kw1BkfWhjMbVBj7APQYFoFyB/bhtHYPY67uxYHMMAztXxNq7hg7T7Qf/x/8e9irsOcDU1J8AjL9qqCKZounij988xIQ/4jfJgiiVGD0X7/yzo5oHFYV6gqGvzfKzyvA6UN38TQxk39FGIbxQvt3ozG8fRAc81Vwd0rBn+s+xrLtN5HPXYOq1BET/zkSbas9xMa3JmNrkgrlqkZg3JTRaO2Tg2xHZ6Sd3ozlK37ClUzdf/1ODZ2MbU91I7FyVTthzKRR7DG5yLZzQMbtI/juky+xP0EbTBnXzpj/VXscGjkLf7DpcDh3nIVvOp/Be9O2IVn/2hVBEIqmxNajYuAE70pqZCUmIaPAMCgwjEoTEPMys1HABwxuIFTesyJcshKRnCU/Sw6uPnDL5Y7hX+DhfmPV4P0v0P/GZMzZmcpuO+O1uZ/ilV/fw/+d1L/gRRCE0hG9RmUNKmQh+VGyUZDiUKkY5GTlFAUpDu5pTspjs4IUR16qcZDiUKnycTb2F6gi3tDcQoPAHujstAOxf+XwexAEUVqgFT4JglA8JTaiIgiCsBUUqAiCUDwUqAiCUDwUqAiCUDwUqAiCUDwUqAiCUDwUqAiCUDwUqAiCUDwUqAiCUDyyA1VptNDIQUmmGsalOd6aMRbhlYTPz7g2QPd+reD3gvJHEC8KWYHKlhYaOZRZUw2Tj7zcXOSZikOeDdGzX2vDpWsIogwgK1BZYqGRw8toqrF39oB3sSVyVOXd4O3qVHR+U+VA2nlsXfMd/veY32Zh4AhP/wBUci62L0GUIewr+frN5Z9r4Cw0A8Y1Q9PwamgcGqR5VHvFG4EhXkhJzETSgzTcu/4Ez5LE16USQ2uqmYklc0YivHkY+g18Df6Pj+D43SzUfXMhxnSsAs+AOmjRNgipcYdxM0drqpmyiH2ve1uE9o1Cz3rA1RPnkZjLjoTsQzEjZjRecX4dEyf1Rb3809h5Nkljqpm8aAHe7dYGHfoMQve6ebh45CKSC1d0aNgH79dPwA9bTuIJv5JDDhOEzkNq4EHsIdwVWLOYYaqj79yZ6G5/CkdvGi9Bqg6NxtoPgnD8t1NIYdPkglKL8eswu/5V/Hw8HuWDu0qWo8J/d+FytgoVXhmAWUvnYmREK4T17o4a2anwrmWHk1uOIl5v5QmCeNkxGlFZbaGRQ6k21eQjJysb2Xn6i7zrSDu4Dye82yKsJv+CfTOEtsjGoT0nkW8fIqMcWhi7uhg2uR/sfpqIwcNHYfhbH+F+/fY07SPKJKJTP4ssNCxeLd/B0q/XY82/P0S/V9w0r9XsOQWj23lonpdmU41KdQe/L/4nVh5I4l8pRvYR7DvqgrahtTWbji3bo9nTOOy+wJ5TVjl4ardDS8eD+P7X28jj9s25hR+3/QnLx7EEUXoRDVSWWGgYdurUc0Q4UmLn4ONtKWj/z0+x+MNZmDikHhyepGr2eZlNNdyCfcf3HIJT2zDUYqe4rds1R0LcbtzggqGscvD4eMIzOQmP9LKX9zgJT/nnBFGWEA1UllloHmHnig/xxe4buLp/FSZP+Bg7/z6Drf+aiq/O5/H7vNymmvwzf+AQ2iK8UWu0a3YfcbvvaN8wpxxc/iv6oYrevo5+vrDNvzEIonRhFKistdBw/zlLuHq76IJ1ftJF7P3tF+w+n6iRO3CUZlMNw7ijfs8h6FxT95/F4qhUV/BHXAbajh2GRjf2Y09hWuaU42ocjma2xaDIEO2+zrUwuE9zvKAfThDEC8UoUJ09fA+/f3sW+368aPDY/f3f2BN7gd/LSu4cxPbTbhj4yUZ8u/47bJhaDxe/+Bq70/m3d21BXLk38PnW5ejjzUDF3MB3H3+Nh23mY8N3G7D5+3/jjbyfsGjtSeTywa84qoLr2PTxV0hsvwDfbFqPjRtXYmjlq9i262JRwMTFc7joFoRgvWmXukY1eF75G9wlJUFU1RDavx96tqjMvyDM9V1xSPH1wcU9e/GUP5855VAVXMHGJZuQ1mkxNm5i9/1qItwO7gI/NiOIMsULXTO9tJpqGDt7OOTn6QKemZhTDi6PrhV9YP/sEZ7mvLCmIogXitGI6nlSWk01qoJ8i4MUhznl4PKYlviQghRRpiELDUEQiueFjqgIgiDkQIGKIAjFQ4GKIAjFQ4GKIAjFQ4GKIAjFQ4GKIAjFQ4GKIAjFQ4GKIAjFQ4GKIAjFIztQlWYLDcOoUb3l6+g//B28PbQ3Ihr6G62oaS5SxpiSgKnSBpGDIxBSTvqc1hprbG3neRH1Rbw8yApUz9tCY0uY8jXRd+5nWPJuZ4S4sgWu2AC9pn6C/0zuhMrc/X0yMTLjSBljbAwXIxr0egdDB72PN9sVX2VPACuMNdyN0Da385hZX8/LRESUDmQFKnMsNAZGGHVF+Lnq7Cl2ThUR4OsGh2LfzFori7EpRj8tVXkv+Pt5GBhrCt/XN9VwFhgv3tjCrcAQEjkJQ9zjMHPMZCxauQpf/ns+Joxbist1xmBs10r8frrzOLj4IdDXtWjNKg5BM46QMUZTDnFLjlA5ChGy8hRh3wSd2uRj/54raBQeBleB0Y0pY43ZbVICdh79+pKqDzETEVE2MbopmbPQdB/RAPYOus7s5atmg1Qedm7+G1dOJiCwlpdJwQNj1xHztr2O+JgCtH4tEGp3ZzzYugSb8gdgbEQlOLp7IOfU55g2dzsSVCqNKWZ89Ag0cU5DhrMb8v/ejMWLtuJaHid10KZ1f1M6mnWqBhfvSnC4uw0fT1uNU5mF73fDqaGTse2pdjWDOv9Yg+mO/4fhn59hu3dLTP3hPaTNGYUvLxgu+lchbCa+GfQAH769BtftO7HpdMadbzLRrk91FBS4wT3zf/j6o+XYeTsXr0Ytx8SuNeGjSkZ8ygX8MHUJdmdwx+jOzVlyJkS/hWbqVKSzASf/YgyWLYvBxXQZ5dBYeWZg2pC6YJLS4aTOxJ+rZ2LlYW2g4HBsMxUbhydh+pQHGLWuE469PQW/JOtWcOCMNR9Gv4k6qifIcCjA2f+eR60e9vhq0Aqc0JRPfpswzSch9u2nmDH6a1znV4lgqg3D6uX+WN9vEQ4LrNOstfOMQfDBxVi+Vy968+i31c+p2vyYqg+h+uYkH0TZxWhEZRsLTT00do3FuOFDMDR6B5z7zcI7HrEYOzIKUW9/g0dNItG9Ntt5ZZhigFfwqvMPmDh6JIYNn41D6l4Y2t2Pf0+CSkEIdLyGC5d0SyAXknbuIu76BSCoKB7XR3jdY5gxbARGRQ3FzIO+GD2pP6qyIwghM44+8iw5IuUQsfJwMIwT2oW3QuLBvbj+LA5x52sgrKO/5j0OecYaeW3CURJ2HmNM14dUfRNlD9Gpn6UWGuA2Dvx6Eqns1Cv70gn8/SwFp+KOIbVAhbyHR3H6ljd8fNndZJhiuLSObL+ADPbc+aknsYedO1SuYkIRUxx3V7hkpCNdaAXlp6lIs3ODmyu/jceIi92BBDaP3FTn0ndbcbJKa7SWExNl2WVEyiFl5anQHmFN4nFw303tNOzASQSFR2iCqAZZxhqZbcJSInYeI6xoV6LMIRqoLLHQaMlEulY4w1LAjgjykFO0Fl0e8tkvXc1HQI4pBtnI0vvEpWdkwN5ezwIhxr37SHBhA2AFflufwMrwTX+A+0Wzq2Qk6c9Y8hKQ9NQL7KxEGll2GdPlkLLyeIeHo5GqApqNno+5c+YhOqIK8qqGolPhwFOWsUZmm3CwwcPWdh5jrGhXoswhGqgss9CYgQxTjCgF+cgrcIG7O7/N4qkbIgEZ53D+Zi1EdDP8ptYsQfx6B3hePIvL/GtARfhV1jtneX/4eSTh8UN+m8XAjKOPJZacYpiy8jCMD8LDX8WtPd/j97h9iOMeu2Lx+2lXdOj0KlRc9LCxsaak7DzmYrK+iTKHUaCy1kJjFjJMMaIwt3H3QQDaD+iEIFc3VGszCr2b6vKrUt3HlrV74BE5C1O71YWPkwr26spoFjkbkzulYcu63UgtCojsuSN7o6oDmw/GFQ2H90eD24dxiA9URmYcfSyx5OghauWpHIHQkIv4Y9MO7Nu/n3/sw6Zfj8GpfQQactfYbGysKSk7jzmI1jdR5jAKVM/FQsMjyxQjgkp1C1vXbkN60w+wcsNq/PO1VBw4lMi/qyX79BeY8tEBVOg5C6tjtuGn71ZiQpsM/DR9GmIMlC6XsfdMHcxevwnffvct/tn4Fr7890+I5/NR3IyjjyWWHANErDzBnUMReDYOcU/4fXnyTuzDUbRGRAtH2xtrStDOIxex+ibKHopZM92UKUYO3O+H1OULkJktPuKzV3vCrSAFT4pJFfT/df5bthd81Fl4nJRhIJbgEDLj6MMNAi2x5BQiZuWRg62MNZqp8Quw8xRHqr6JsoPoNarniSlTjBxUyJUMUhz5GU+MglRx8rOe4GFypuAHQ8iMow/3siWWnELErDxysJWx5kXZeYojVd9E2YEsNCyMqiEGz2yMG8vW4VgmfSgIQmlQoCIIQvEoZupHEARhCgpUBEEoHgpUBEEoHgpUBEEoHgpUBEEoHgpUBEEoHgpUBEEoHgpUBEEoHvtKvn5z+eeicBaanqMaodor3rh9OQk5WTZeSaEE4Sw0wa06IiIiAu3qB8JT9Qz3Ep5ZdbsHZ1UZNaUvPC4fw630kv81u34ZOjSuhUoOybh1/5nNbi/hrDNzZrfAnb1n8SRwABZNDsH5fZeQbmH6z7t+iJcbWSMqstC8WAtN8TIUVAhG5w8+xarpEfC1gfiAuwmZrDOEkpEVqMhC8+IsNEJlWP3ZQnzw3kKcqTEW47t5FqVvqh4KMWm5IesMoXCMpn6chWbAuGZoGl4NjUODNA9uuhcY4oWUxEwkPUjDvetP8CzJcEXuIuxDMSNmJGrad8KYCQPxxuDBaOt0G0n1J+KjCX3Rpf9gdK+Tgj/3X0UaO63gLDSTFy3Au93aoEOfQeheNw8Xj1xEMreCAJ9WMNMGb48diB4DotC/jQuux/2FhLzC90ejwn934XK2dnpRe+Rn+FfTm/j5fw/ZT1xLjJrZBpdWLMDOB7rOz2Tdx/nUWhjV3x9//XoST+zD2HSGIyinLcZM7Y/QzpEY2jUYz84dw/WnBaj75kKM6VgFngF10KJtEFLjDuNGPneM7tychWbKIna/7m0R2jcKPesBV0+cR2KudDm0FpqZWDJnJMKbh6HfwNfg//gIjt/NMlkGVU48rt7LhrfjM5y73QDTY03Xg2j6HA374P36CfhhC1sX/FQvhwlC5yE18CD2EO4KrLSptc7MRHf7Uzh6U2AZU722uZTL1ZXp8gvV780c43MSZRejERVZaBRmoREpQ/Kpn7F+7w1IrgojYbkh6wyhdESnfmShUYCFRqwMcpGw3JB1hlA6ooGKLDQKsNCIlUEmUpYb7guIrDOEkhENVGShefEWGrEyNH1/Dda83wT2+RL1wGIyfRayzhBKxyhQkYVGWRYaoTKoHHzQoM90jAtLw67tp5DPTqvE6kHUcsNC1hlC6RgFKrLQKMtCw2FYhp+xdctaTI9gsH3hHMTcZKTrQSJ9ss4QSocsNCylyUJjr/aCB54iKcO4rFL1YCp9zVSYrDOEghG9RvU8IQsNVw5pC01+RrJgkOKQqgdT6ZN1hlA6JHdgIQsNQSgbClQEQSgexUz9CIIgTEGBiiAIxUOBiiAIxUOBiiAIxUOBiiAIxUOBiiAIxUOBiiAIxUOBiiAIxVMmLDRS2NcIx6CubVC/fn3jR8VMXLiRBMaC2zoYVEf44GYod+U6kvItOP55mmcYLzR7oxeqpZ3HvdSy+et8xqsx+rRwxqXbRYuUyaak28oUQnlmAvtbbRGyBikDEePaAD16Vkfqhbua5cjlIGtEVZotNEIUN56oyrvC08NT86jUoAsGvd4ElfhtzwpOlq+SZFcdYYO64BULVkJ57uYZ+KBJr4Foo4BFN5+3kYaxC0LT5v5wdG+A19pUhcq1Dlq94sG/K01JtJVUHYjm2RYWIWuQMhB5NkTPfq0NlxWSQFagstRCI2R00X/f3j0Q1SrqPsVyLC5SZhup8wsZT/Iu/ILPPv9M81h3+AHw8AjWfbZS+9qv55HHR31OkuDuF4QAj3KabX1MGl704LLh5OoFL7WuAynFPKOPfh0KWWO483hXMPwQqMq7wdvVqWjVUG1bmm8WEjPSyOoffJ+Sk8ci2Dap02Ualr/TFOqqPbF40Wi08HeXtSaanLYqRKj/COVdlpVHJM+2sAjJb2Pj9hA0NMERnv4BqFSsf8qlhCw0po0uhXaSV5xfx8RJfVEv/zR2nk2SZXGRZbaxwCijbzxxqh2BvkH38dMfF5FdFKDsUa1LNBYu+ACRoa0QMXAQwivex9Hjd5DJNoBpgww79RsUgoSftHYYn7YTsXz2a8j9az8uJqsUZp7xRtNeESh/MgZH4sWtMerQaKz9IAjHfzuFFPZYrn5ajF+H2fWv4ufj8ShfvavFZiFT7SPdPwz71AHPUaJ5NJjKZyXhcYYaddu0QTX/Cnhy9Ad8v/00ksQXj9Aio63OXktBUNcPhfuPpr8a5v1u3YnSVh6JPFtrEZJs4+Cuku1R2DcrvDIAs5bOxciIVgjr3R01slPhXcsOJ7ccLVrvTQqjEZVtLDSmjS5aarJBJwYTogZh4sbL7DBWjsVFntlGi+VGGUHsa6B5SyccX/wWBo8ciahRa5AUHoUeQex7EoaXQrxajsNH7/hix/w52HqD7U1KNM8YYNoak3ZwH054t0VYTc0mWz/NENoiG4f2nES+XQ2rzEJC7SOvfxj2qbRD+3HCRziPRteNvDticLcK2LXmN9w+8i3W3G2AIX3qy1tlVk5bOYaY7j8aDPMuq49K5dlKi5BoG9uHyGgPLYxdXQyb3A92P03E4OGjMPytj3C/fnuzpn0colM/yy00UkaXWzi09Tge8iMBuRYXWWYbDVYYZQRQFVzBj/Pn4dvTz1DeuyqCg12A7AAEVGfflDC8cLg3HYOFY6rijwVz8NN1/itPieYZA8SsOUew76gL2oZqvxkcW7ZHs6dx2M0tB1oSZiFZ/aNYn8o6zObRVTiPxVAl78SK+d/g6ON0ZKWn4tJvKzBv/Vl5a23JaCvR/qOhWN5lIJlnay1CYm0sqz14ardDS8eD+P7X25pLKKqcW/hx25/sTMQ8RAOV5RYaKaNLHnL1F46UZXGRabbRYIVRRgAGHmgZNRMrvl6PLxZNweieNaFmh+Jcn5A0vKA2eke1hKuTHezydd+6SjXP6BCx5qjycXzPITi1DUMtdorZul1zJMTtxg2uQkrCLCSrfxj2KS6P/2Pz6GyQxz+0eTSB6lYspq08zG/JREZbifUfLcU+D2YglmdN85ouriiSbSzZHjw+nvBMTsIjva6W9zgJT/nnchENVJZbaKSNLgbYwOJiiBVGGSFeHYSxvSrg0PzRGPHOBETPXYe/9GpazPDCjkuxZfY/MP8XewycMQaN1boWU5x5xgzyz/yBQ2iL8Eat0a7ZfcTt5hegt9YsxGPQPhb2j7wzu3FIxeex6T3s/6MElDpy2qqeeP8xhVl9tDg2sAiZbGNz2oPrDxX9UEVvX0c/X5j+d5wwRoHKNhYacaOLEVZaXIyxwigjhL097HLTkfwkW/Mt5dGoNzrww3Ypwws3Ekx7lo3LGxdi1b1WmBrdFX7sd6wizTNmoFJdwR9xGWg7dhga3diPPYW2GmvNQixG7WNh/+BGlbsPZBflca/+KNsM3Ko1RbNgvW8EPWS1lYPp/mMKq608NrAImWxjc9rjahyOZrbFoMgQ7b7OtTC4T3OY+8MJo0BlGwuNuNGlOFZbXIyw3CgjyJkf8c3JIIxb/z2+WbMWi3vn4soN/j0pwwuPCo+xa8lSHPH/B6YPqwPHWwcUZ54xl+u74pDi64OLe/biKV+31pqFOIq3jzX94+qe/Uj1Y/O4d19RHs2BGxk1HzoHI9oIByoOqbYS7T8msNbKYyuLkGAbm9Ee3PW5jUs2Ia3TYmzcxO771US4HdzFzjPMw+ZLEcs1ugjBfdtYY3HhsJVRpjjc/s6evnDPf4yHqcYjSzkGGSGUYp4pCawyCwm0jyX9g/GLxP99EoItwxbggBkXqwthmCoY9tkyuH/1JlaekT7eVFtJ9R8hzO2jhTwvi5A57cH1N9eKPrB/9ghPc8z/bBuNqGyJmNFFCG43aywuxbHGKFMcbv+slASTnUyOQUYIxZhnSgCrzEIC7WNO/2AYLzTsMgDvT+gO/PIdDluYD+6nKQHup3DiHL8tgam2kuo/Qlhs5XlOFiFz2oPrb2mJDy0KUhyy7/WTjxv8a9jj7sHTuJ9neSVYzos+f+lBlXkF+/44hxQ2nL102FdH+15N4XguFmu3nEeqpWV0zEP6lbM4FZ9q0f2eLwLVswv4Y88F2ffRlQbIQkMQhOIp0akfQRCELaBARRCE4qFARRCE4qFARRCE4qFARRCE4qFARRCE4qFARRCE4qFARRCE4iELDYtSLTQcTJU2eLNnbeRcvo5kiTQssXvoQ1YaQ8hKYxtsYaWRNaIiC42FWGGh4eBu+mzQ6x0MHfQ+3mwnY5kDC+wehXA3jZKVRgtZaWyMDaw0sgIVWWi0oep5WWiKsG+CTm3ysX/PFTQKD4OrXjkKMWX3MKfONJCVRgdZaYx40VYastAo0ULDU671UEyoexkrF59D1dGd4LiHTSdTl1cxu8cDTT3IrDOunGSl0VYqB1lp+Fd1vGgrjdGIiiw0AjxvCw0LwzihXXgrJB7ci+vP4hB3vgbCOvpr3uOQZ/eQX2dkpdGDrDRGvGgrjejU7w5ZaDQ8dwsNR4X2CGsSj4P7bmrKcOjASQSFR+iCvSy7h/w6IyuNDrLSCPCCrTSigYosNFqeu4WGxTs8HI1UFdBs9HzMnTMP0RFVkFc1FJ0KByKy7B5m1BlbGLLSGEJWGh0v2kojGqjIQsPznC00DOOD8PBXcWvP9/g9bh/iuMeuWPx+2hUdOr0KFdfjbGT3KISsNDaCrDRabGyl0U9aA1loBHjOFhpUjkBoyEX8sWkH9u3fzz/2YdOvx+DUPgINuX+U2MjuUQhZaeRDVprnb6UxClRkoRHgOVtogjuHIvBsHOKe8Afz5J3Yh6NojYgWjprrHLawexRBVhpZcCMjstI8fysNWWhKgYVGDO6DY43doxAuHbLSSENWGtOY0x7m9lujEZUtIQuNNJYeV4i1do9CuHTISiMDstKYxJz2MLffkoWGKIKsNDIgK80LgSw0BEEonhKd+hEEQdgCClQEQSgeClQEQSgeClQEQSgeClQEQSgeClQEQSgeClQEQSgeClQEQSge2YGKs9CMXx6ByAnN4aJbGsAIzrwSNjgCtcrb/neknK2ie79W8OPuumY80bTnYAweXOzRtYFmbXHOfPHWjLEIr8Q+NyNP+seVBNp8R6K1v23S58wxsxcNttltL7YsP2c/+WheL/hyN4FZiK3rqzTCmWV6h0osr/CSIytQmWWhsdK8IoqBrYKzpLyJDiG8Labw4e4MzVJQ+uYLc/IkZcwohvmGFNvZXbgbOw3NMeLIyquZ5RfFJvYTsuFYasN5mZAVqMyx0AjBfaAE7RQ8YnYXcVtFLq7u4G0xhY/vj2nlBALmC320eTK2ougfVxKGFH2struYMMcImW2E8ipkPDGn/IXotxGjcoK7p9pm9hN9rK4vFlPtXhJtLVS/z8uG87JhewtNMfOKmC2Ea2BTdhdu7WVRy4qeJeXofYHRhJ754lJOsGGeqnWRsKLwx+WK21csMqTY0O7CNOprYI7hAr4ps41QXm/kGxtPdvz9quzyc7jUHYhZS3RtFOJQGX0nt0QCbxSx1n5CNhwLbTgvGUYjKttYaLRI2kJE7C7ybBUqeFRviqaNmxQ9anIrZorAqIJlWFH0KQlDij6W2V24pT6MzDEiZhvTJhND44kxpvPH2NXD8Cl9odqqa6M7jcNQTfMuj5X2E2PIhlMWR1SiUz/LLTQ8EnYKURuHLFuFI4JDh2DwEN2jcx3j6aMBsqwo+pSEIUUfC+0uLEbmGBlGHGOkjCci+avTDs3tDyJmm66Ntmz9EwbjImvtJ0aQDceaNaNKK6KBynILDY+EnULUxiHLVpGDk99MwuQpk4seXxyWEO/IsqLoUxKGFH0stLtod2CnDroKkjbiCCFlPBEpv7cHPJ8kw0D4k5SMZ/zzQjSnt9lni2w4ZRHRQGW5hYZHyk4hZnexsWWlCBtZUfRhQyv/jMXGRh2T5g8WIXOMuBGnWF6tJf4RHvkGorpe+uqgAMOAbwP7iTmQDeflxChQ2cZCwyNlpxCxu9jaslKEDawo+tjKkGIKk+YPluLmGCkjjtUmk+Jc3YVd91tg5KQeqF/VH0ENe2Jcr3p6/w9jsYH9xBzKkg2nLGEUqGxjodEiaacQsXHY3LLCYwsrij62NKSYQsj8oaG4OUbCiGOtyaQ4nBrqxwVzsbugHd6eOR/RbwbjZOxOJPLvc9jKfmIOZcGGU9Z4LksRc19YpuwUknYXxjaWFSGssaLoYytDirlwdSNkjhEz21hqMjGFnVoNp/R0zQVoDqbBGGwan4t5o1bhCtTPxX5iLi+DDaesUQJyB2O49szPykCmzmheBPdeXlYa0k0EIY15IyMd2WbOOuVQkCOcJ3PRlC8v3+A3MGJlthVc3Ty8yaDjsIa4tftskZRBhTxkpmciV+DX6kJ5tRSG8UWfhZ9jdO0MPH5qh0r1wzB4cDd4nf0eG04koCCwD95tcw1fbzgnKhbgzM/PU5RgTbsL1Z/mNZltzdlwGnXtgb6RPeBzcCW+Ppn8XMteWiG5A2EVKs9G6Df0DTSv7o1y2U9w68x2xMT+iQQL9V8vO9zvAwdM6gL3awfw+y//o3qSCQUqgiAUj9HFdIIgCKVBgYogCMVDgYogCMVDgYogCMVDgYogCMVDgYogCMVDgYogCMVDgYogCMUj+xYazkLTc1QjzbLEty8nISdL+J4WzvgSPrgZyl25jqR82/7qlrPQ9OhZHakX7iIVXmj2Ri9USzuPe6kv7te9nCWl2Rt9Ed6sPurX13sEqHDragJySvj2CO35bVcPnNVmzuwWuLP3LJ4wXB3ryvZqrSBUdMlF0oMnyNFf7sRK9NtV7FYbS+BMOIsmh+D8vktIfwG3qnBWn1FT+sLj8jHcSjc+f0mW/WVC1ohKuRYanZ3keRtCdEjYcEqckrTaGJbNO7ABXn97MVYtjkRNWy0Vw2HQrtZh1A9sYsKxAimrjw3L/jIjK1Ap10KjRdoQIm4dsVdXhJ+rLn07p4oI8HWDg97+HEJ2Fy2mbThCJpJCTNWLJXnjkDKpWGa10ZVt5X8+wofvzMR+jyGI6uxqUdkKMdWuhWnqtyGXby+j/bTt6u+ps7cI9QNbmHDk220EyitgQ5LTpwlDjL70OQtN9xENYO+gq0QvXzVqNfZlp3t5uHIyAbGf/o9/RxrO0jEh+i00U6cinf2g51+MwbJlMbjIDoO5xq3WZQqmDm8Bn6ynKHB3RfLef2PWysOaDzlnofkw+k3UUT1BhkMBzv73PJ+qIXX6zcQ/2njCVTUSC2tdwA9Tl2BPGnvual0wPnoEmjinIcPZDfl/b8biRVtxjTOo2LfD5G9fR3xMAVq/Fgg1OwJ6sHUJNuUPwNiISnB090DOqc8xbe52xLMdq1bvGZg2pC6YpHQ4qTPx5+qZWHnYUFMliOY83ZC4FWjXxR/xv8zTLPIvVi/m5U0P/rj7m9LRrFM1uHhXgsPdbfh42mqcylTBqc14rO5/B5PfXYdbmiBqjxbvr8LY3KUY8elfwCuN8ErqTWzg1q8yMQvh1gk7dzUXzQP82fMFmF82FtF25evr1NDJ2Mav9hoydDmmO/4fhn9+RrOtbdeRaFohA7kV3JF9/jssWRQLRxP9IP36TaS8/yrqqn6F0IK+WhPOGAQfXIzlAqvYSdWbdFvqyiO3TxOGGI2oSpeFRougIUSWbaYeGrvGYtzwIRgavQPO/WbhHY9YjB0Zhai3v8GjJpHozq3BL2J30SJlwzE0kcizl8jMmxE2tNoIwKAqQqqXw6P4h/wr5pXNnHYVglHVwCA2SHntm4ERw0YgauhU7HV5ExMGBJs27VhpwhG129iHyLYOWVv2sozo1O+O4i00Isi0jhz49SRSGRWyL53A389ScCruGFILVMh7eBSnb3nDx5fdTdLuImXDKWYikWUvkZk3I2xotdHggKod2DINHoyo4e9g2oqP0J35Gd/tKhxNmlk2q9s1HO1dD2HzD9c0+WSyrmNjdCQmbL7F7yCAtSYcsXozxzpkbdnLMKKBSvkWGhFkWUcykV60MGYBO6TPQ06R3DEP+Wy+uaxI212kbDjFTC+y7CXy8maM7aw2WlQo5+wKN1dXqO1Tcfn3ZRg/YQ3O8wJSs8tmi3ZNSsRDveNVBWweCorn2xBNsYQrTBJJu41c65C1ZS/DiAaq0mahYUMc/4zFxrYZKbuLWdjYVGMO5lptuIvp13Z+iS9XrcKqtZvx857TeCj2sxOpskm1a0E+8gpc4O7Ob7N4urnyz1geJiHJxw8BeserHJzh4qSbahv0Aw4bmHBM1ps5bWlBnya06FevhtJqocksbgixoW1Gyu5iNjY21ZiDOVYbi5Aqm1S7Mrdx90EA2g/ohCBXN1RrMwq9m+pV9FUu/TaIHFRb064qp1qIWrYJi/pqc23UDzhsYMIxWW/mtGVJmZXKAEaBqrRaaIwMIba0zUjYXcylJEw15iDbamMBUmWTaleV6ha2rt2G9KYfYOWG1fjna6k4cEjntVEx17H549V4zKb/7eYN2LR5Edonrscnsbc17wuZdmxlwhG025jRliVlVioLvFQWGlOGFZvZZkTsLpYgVi8vAq6uhaw2liBVNql25X5rpC5fgEwTVg9t+my/Ydv1cbrhPvr9IP85mXDMaUtz+jShhdZMJwxgvHtgwTR3rIveyP86vXTDBAzA0jEMVkz7AQkWBiHixUOBiiAIxWN0jYogCEJpUKAiCELxUKAiCELxUKAiCELxUKAiCELxUKAiCELxUKAiCELxUKAiCELxUKAiCELx2NxCU9pgGDWCW3VEREQEOjSuhUoOybh1/5nBvYLWIGUhsRYpC062a4ui899MDzbbEKRvpUmxdEEnPWxZH2SYKTvIGlGZZaGxASVhlBFKkylfE33nfoYl73ZGiCtQUCEYnT/4FKumR8AXlt1ZZHQeKQtJMcwvu4QFR//8ZhqCuJtnDa004sjKu5n1IQoZZsoMsgKVJRYarpOLGVZMWUaETCL6thMHFz8E+roarCllWZoqhEROwhD3OMwcMxmLVq7C6s8W4oP3FuJMjbEY301XRiFLjpCBRdCGo2ch0T9GyBIjbdMxZXUxbcERsqDoo03X2NKjQdBKw3aa8sY2Hql2K7LUmFEfhehbWxiVE9w91Zr2J8NM2cFo6sdZaAaMa4am4dXQODRI8+Cme4EhXkhJzETSgzTcu/4Ez5JMr/TMWTmmLFqIMd3bIrRvFHrWA66eOI/EXPaDYx+KGTGjUeG/u3CZX2e79sjP8K+mN/Hz/x6i7pvscR2rwDOgDlq0DUJq3GHcyA9jjxmOoJy2GDO1P0I7R2Jo12A8O3cM158WWJZmbkuMmtkGl1YswM4Huk6uyonH1XvZ8HZ8hrPXUhDU9UMsXPABIkNbIWLgIIRXvI+jx+8g057L02i84vw6Jk7qi3r5p3G37kQTedfm7VIu93wkgpk2eHvsQPQYEIX+bVxwPe4vJOSpBPN5M0clXp/wRtNeESh/MgZH72vLboBe3VzKYad+g0KQ8JO2njiby+RFC/Butzbo0GcQutfNw8UjF5FcuIRNwz54v34Cfthykld/OaBW75lYMmckwpuHod/A1+D/+AiO380SaTfDOtrx96uy64PDpe5AzFoyFyMjWiGsd3eEOFRG38ktkbDlKOLZPOUwQeg8pAYexB7CXYGpqdYwMxPd7U/h6E3j5VPVodFY+0EQjv92CimaMtqjxfh1mF3/Kn4+Ho/ywV1l92XOMDNrqS6vNbJT4V3LDif5vBKWYzSistZCI8+wYhqTJhHUR3jdY5gxbARGRQ3FzIO+GD2pP6pammalIAQ6XsOFS3n8XjqST/2M9XtvoMAxxKQlR4uhgcV03vUxbYkRtOnIqk8pC44xciw9RlYaERuP6bIb1pExpuuDsauH4VP6QrVVZ2250zgM1TTv8pBhpkwgOvWzyEJjjpXDLB4jLnYHEthve27If+m7rThZpTVaa/u0+bi7wiUjHcXWXDNA1JKjoZiBRRYilhghZNWnlAVHABmWHiMrjaSNRwipOhKpjzrt0Nz+IGK26awtW7b+CYNxERlmygSigcoiC405Vg6zSEaS/nWWvAQkPfWCdyV+21zu3UeCC/sBrcBvCyBqydFQzMAiC9OWGEFk1aeUBUcALl0pSw9bUH0rjbSNRwipOhKpD28PeD5JZr+idOQlJeMZ/7wQzenN+a7QgwwzpQPRQGWRhUbKyiFlGeFhwwH/rJCK8Kus91p5f/h5JOEx58G0JM2Mczh/sxYiuhl+FXPXKJq+vwZr3m8C+3oilhwRjPNuHgbHl5SxRoalR8hKI2XjsbbsBsQ/wiPfQFTXS18dFKCnO2Mhw0yZwChQWW2hkbJySFlGWARNImyTt4/sjaoO3H+TXNFweH80uH0Yh7hAZUGaKtV9bFm7Bx6RszC1W134OLEfMQcfNOgzHePC0rBr+ynkO4hYckwgnHf5GB1fUsYaGZae4lYaKRuPtWU34uou7LrfAiMn9UD9qv4IatgT43rVM/y/IBlmygRGgcpaC42khUTCMsIhZBIBLmPvmTqYvX4Tvv3uW/yz8S18+e+fNP9NsTTN7NNfYMpHB1Ch5yysjvkZW7esxfQIBtsXzkHMTXYfEUuOKYTzLh8jm04JGWtkWXqKW2kkbDzWlr043JfJjwvmYndBO7w9cz6i3wzGydid0G9ZMsyUDUpszXTuS1nUQiJpGdEzidh3wrxt3XBq6GT8lu0FH3UWHidlGP163Jw0ix9rr/aCB54iKcPwWO4YMUuOEGLnkYPQ8VL1aQ2mLD3cNFjISiNm47G27MWxU6vhlJ6uudjOwTQYg03jczFv1CpcIcNMmcFoRGUruD6Rk/LYZMOqkGsyoHCoVAxysnKMOnt+1hM8TM4U/BBYmiZHfkayUZDi4I7JSkmQHaQ4xM4jB6Hjuadi9WkNeanGQYqDu9B8NvYXqCLeQHU2T4WokIXkR8mCyjBry64Pw/ii15yvsWhsVzStVQsNw/ph0qgOyDpxDJqBbWAPdHbagdi/ilz3gqgK8i0OUhzm1D1XZ2mJDylI2ZhSYaFhVA0xeGZj3Fi2Dscyrf8AEKUHlWcj9Bv6BppX90a57Ce4dWY7YmL/1PxMhSg7kC6LIAjFU2JTP4IgCFtBgYogCMVDgYogCMVDgYogCMVDgYogCMVDgYogCMVDgYogCMVDgYogCMVTZi00WntLL1RLO497qZb/ypksM4aQZYYoCWSNqF5OCw1nbxmINiKLa8qCLDOGkGWGKAFkBaqX0UKjj5QNRdRU8uwcWWbY52SZIUqSsmuhydHZW47Ei9tQRE0lf9XG9Fh5VhWyzJBlhrAMoxFVmbHQGGHahiJmKjG+iZ8sM4aQZYawHtGp30ttoTFCxIYiZioxgiwzhpBlhrAe0UD1UltojDBtQxE1lRhBlhlDyDJDWI9ooHqpLTRmYtJUYgEG+SDLDFlmCEmMAlVZsdCYi0lTiZmQZUYPsswQMjEKVGXJQmMuQqYScyHLjA6yzBByIQvNC4AsMzrIMkPIwWhEZSu4PlOaLDTPE7LMaCHLDCEXstAQLxSyzBByIAsNQRCKp8SmfgRBELaCAhVBEIqHAhVBEIqHAhVBEIqHAhVBEIqHAhVBEIqHAhVBEIqHAhVBEIrH5haakraymIut88PdF+ZaowO6d38dHVvXR7BnHhJuPUSmDDmCuTCMGsGtOiIiIgIdGtdCJYdk3Lr/zOa3AOmbaJ4EDiDzC6E4ZI2ozLLQ2NJCYgFGphQb5oe7Ide/61x8uTAKzSurkJbrhbq9/4nPlw1FiIPlJxCyuzDla6Lv3M+w5N3OCHEFCioEo/MHn2LV9Aj4Gi6EIhvB8zDFTDRkfiEUiKxAZZaFxgILiZD1pBDugyRkUREyoAhaXoRMIpo0TRtyTOe3LvoOqoHjy8ZgxtJVWL92BWaPn4XfVRF4vYlu9Tc56YvlmQuIIZGTMMQ9DjPHTMailauw+rOF+OC9hThTYyzGd9PVPydkcPcLQgBbP4XIrhuOYiYaMr8QSsToXj/OQtN9RAPYO+g6hZevmg1Sedi5+W9cOZmAwFpeJgUPjF3HoiVZfk7llmd5Hfc3paNZp2pw8a4Eh7vb8PG01TiVWWg9mYFpQ+qCSUqHkzoTf66eiZWHtR8azqIyPnoEmjinIcPZDfl/b8biRVtxLY+TImjPk7gVaNfFH/G/zMMa1duY2LUmfFTJiE+5gB+mLsHuDN0SMdueao0vE6LfQjN1KtLZAJl/MQbLlsXgIjvN0KYplt8mmPj9ZDh8MhrL/hReClg6fRl5TmuFqT+8h7Q5o/DlBcMptlfj3ujheRYb/riJqt2iMXV4C/hkPUWBuyuS9/4bs1YeRjK/LI7UeTRyieaTEPv2U8wY/TWu81MpptowrF7uj/X9FuGwwIqeWvPLGAQfXIzle/UXEtZSodNsrO9/B5PfXYdbbJpcUGo5aSPG5i7FiE//QrngrpJ1VNhenPnlw+g3UUf1BBkOBTj73/Oo1cMeXw1agb9o6ldmMBpRWWuhMca0hUTMeiLHolLcgCJlm5FnfBHJL05h64aLqDv+cyyaOASvtwiGu95ql/LSl5HnSkEIdLyGC5fy+GN0JJ/6Gev33kCBYwiat3TC8cVvYfDIkYgatQZJ4VHoEcTvKLNujEw0HGR+IRSG6NTPIguNEWJ2FxHriQyLirQBpRiyrCOm88utxXT7v//CP8Ytx+G0QHQc9RHWrFuBqX3qoQKXJ1npy8gzOzpyyUhHuumltTQrTv44fx6+Pf0M5b2rIjjYha3PAARU53eQWTdGJhoOMr8QCkM0UFlkoTFCxO4iZj2RY1GRNKAUQ5Z1RNoik590Hr999TGi347C+8uPwKXvHLzXtpzM9GXk+d59JLiwwbkCvy0AAw+0jJqJFV+vxxeLpmB0z5pQ53DLMvM7yK0b9gB9E00hmpdkxv/ikPmFsDWigcoiC42ZmLSeyLComIL9uPLPimGl8YXxaohu/dogkL8QrVLl4tHZLdhxWoWaIVWtSt8gzxnncP5mLUR0MxzScNd6mr6/BmvebwL7eoMwtlcFHJo/GiPemYDouevwl4xPcPG6ETLRkPmFUBpGgcpqC40ZiFpPZFhUhBA1pVhrfMlwQ8OB4/HOgIao6MRd+HVDUPPB6Nk0F5cush9EC9MvnmdOerBl7R54RM7C1G514cOeS+XggwZ9pmNcWBp2bT+FfAd72OWmI/lJtmb049GoNzoUTfuEEaqb4iYaDWR+IRSGUaCy1kJjFiLWE1kWFQHETCnWGl9UWQfx2UfbkNd5DtbGxCImZiM+ndIeqVv+hdXHcixOXyjP2ae/wJSPDqBCz1lYHfMztm5Zi+kRDLYvnIOYm+w+Z37ENyeDMG799/hmzVos7p2LK5qFxk0jWDfFTTQsZH4hlIYiliIWs55wmLKomELKlMKNQKwxvmh+A+TlCx/HdDx8lAI2RPHvaLEkfbE826u94IGnSMowHNFyxzh7+sI9/zEepsob7RY/D1cWfRMNwziT+YVQHLRmOgHGuwcWTHPHuuiNuFFlIJaOYbBi2g9IsDAIEYStoUBFEITiMbpGRRAEoTQoUBEEoXgoUBEEoXgoUBEEoXgoUBEEoXgoUBEEoXgoUBEEoXgoUBEEoXgoUBEEoXhsbqEpDXD3mZFJpuQgkwxha2SNqMyy0Cgc7qZcMsmUMGSSIWyMrEBljoXGwICirgg/V50kws6pIgJ83eDADWn00KxGINM0U4i+mYRROcHdU22wTpWpNMkkIw8yyRBKooQsNK8jPqYArV8LhNrdGQ+2LsGm/AEYG1EJju4eyDn1OabN3a65O99c0wwnKnCpOxDRUyOLzCTnfzmNoN7l8Q1vJhFNk0wyGsgkQ5QmjEZUtrHQ1ENj11iMGz4EQ6N3wLnfLLzjEYuxI6MQ9fY3eNQkEt1rsx8WC0wzjF09DJ/SF6qtOjPJncZhqMbvLZ0mmWS0kEmGKD2ITv0st9DcxoFfTyKVnf5kXzqBv5+l4FTcMaQWqJD38ChO3/KGjy+7myWmmTrt0Nz+IGK26cwkW7b+iaLltiXSJJOMFjLJEKUJ0UBluYUmE+mp/FMUsNOGPOTk8JvIQz77Ja75SFlimvH2gOeTZOhPVvKSkvGMfy4vTTLJSEEmGUJJiAaqErfQWGKaiX+ER76BqK5nsFIHBeiCkESaZJKRD5lkCKVgFKiep4XGItPM1V3Ydb8FRk7qgfpV/RHUsCfG9apX+P8v6TTJJKOBTDJEacIoUD1PC40lphkuAPy4YC52F7TD2zPnI/rNYJyM3YnEwvcl0iSTDA+ZZIhShGLWTDfHNGOnVsMpPV2jXedgGozBpvG5mDdqlcGUUSxNzW+AyCRDJhmiVCD7FpqSpiAnA5nG/8k3gmF80Wfh5xhdOwOPn9qhUv0wDB7cDV5nv8eGEwlg9D50Ymly//3Ly0rFs/Rs5BcLUhxcMvlZ8vJUiOaYvHyDPBTC5GYiM9f4A8rtmpeVhnQzPrzFz8OV5SE7Qus4rCFu7T6LJwF98G6ba/h6wznRW1RU3FRM5H0pNPmQWUdcHnMy0pFt46sHRNmgVFpoVJ6N0G/oG2he3Rvlsp/g1pntiIn9EwkCTkCCIEo/pMsiCELxGF1MJwiCUBoUqAiCUDwUqAiCUDwUqAiCUDwUqAiCUDwUqAiCUDwUqAiCUDwUqAiCUDyyAxVnoRm/PAKRE5rDxUO3ooKt4Qwmb80Yi/BK4r9DZVAdYYMjUKv8i/29KmeZqd7ydfQf/g7eHTEI3Zr5w5G7Cc7GcJaZ2YsGo7qKARPYHx/N6wXfEjiPHKTaiLPMdO/XCn4vKH/Ey4esQPVcLTRSBpNC7NhANagLXjG9SolNIcuMHmSZIZ4zsgKVORaaQkxZYgrtKkUGFRbOeOJVaCcRMphwKx1UDIC/p86AUhzuZSdXL3ipdR9eu/Ie8Pf30phciqNNkywz+pBlhlAqRqsncBaaAeOaoWl4NTQODdI8OOloYIgXUhIzkfQgDfeuP8GzJNOrXnPWkVlL52JkRCuE9e6OGna+6DelFRK2HMUD+zDMiBmNCv/dhcv8WuC1R36GfzW9iZ//95DNUajB+5xRZvKif+G9Hu3Rqd8QdKvH4PLRv5FYEIzwQSFI+Em7n0/biVg++zXk/rUfF5NVqNV7JpbMGYnw5mHoN/A1+D8+guN3teu9cJaZKYsWYkz3tgjtG4We9YCrJ84jMZfND3/+V5xfx8RJfVEv/zTu1p2IMR2rwDOgDlq0DUJq3GHcyG2JUTPb4NKKBdj5QBcsVDnxuHovG96Oz3D2WgqCun6IhQs+QGRoK0QMHITwivdx9PgdZPL1IHWemzlsnhr2wfv1E/DDlpN4wq92kMMEofOQGngQewh3BVZ/0FpmZqK7/SkcvWm8NKk6NBprPwjC8d9OIYVNkwtKLcavw+z6V/Hz8XiUD+4qWUeFbWTU3tmp8K5lh5Nse8dbsToDQRRiNKKy1kIjaB1p2qnIEmMOjKoGBkWPhNe+GRgxbASihk7FXpc3MWFAML+HFq+W4/DRO77YMX8Ott7IYSNRKIa+FYjDM4Zg9HujMHLBfjg3agQfbkRHlhkNZJkhShOiUz+LLDS2tI6EhKO96yFs/uGaxrDCZF3HxuhITNh8i98BcG86BgvHVMUfC+bgp+u8QSL7PuKT3FC7Q1uEeDoi99qPWPrZfiRy+SfLjBayzBClCNFAZZGFxpbWEc52kpSIh3ppqQrykFtQ+EJt9I5qCVcnO9jl60Y2KlzCpqWb8SA4EnO+isG3yyahf0Mf7bUXssxoIMsMUZoQDVQWWWikrCMF+cgrcIG7O7/N4unmyj8rxsMkJPn4IUAvLZWDM1ycCi/Y3sGW2f/A/F/sMXDGGDRW6z4tqRe34ZOZYzBk4Egs3KfGGx+OQHPOXEOWmSLIMkOUFvS7ogarLTSC1pEWKPp/F3Mbdx8EoP2ATghydUO1NqPQu6mJ32Vd5WwnbRA5qLbGKKNyqoWoZZuwqG/hFZBMpD3LxuWNC7HqXitMje4KP+4/coG9sPCLGejszQa0/GfsYOApCip4QPPzL7LMFEGWGaK0YBSorLXQCFpHju0tuhCsUt3C1rXbkN70A6zcsBr/fC0VBw4VOmQMUTHXsfnj1XjcZj6+3bwBmzYvQvvE9fgk9ja/hxYVHmPXkqU44v8PTB9WB463DmD7aTcM/GQjvl3/HTZMrYeLX3yN3elcmmSZ0YcsM0RpoMSWIuamQIXWkRS/oVj1sQ++GrQCf/Ednfvdjbp8ATJlrPbPjUbKc6aW3EQ8Frt6XQwGTvCupEZWYhIyiq2nrk2TLDNimFNH+u1NlhnC1hiNqGwFd7E2LfGhyU6rQq6sIMXBfc5yUh6aFaQ4VMhC8qNkoyDFoU3zsewgxaExqWTlGAUpjvyMZKMgxcEdk5WSIDtIcRQ/D1eXZ2N/gSriDc0tNAjsgc5OOxD7V5EnXxBVQb7FQYrDnDqSam+CsIbnIndgfMIwZqQbdizZpv2vEkEQhBmQhYYgCMVTYlM/giAIW0GBiiAIhQP8P06QP/xUiCD/AAAAAElFTkSuQmCC;" parent="Ipfjhb78sDThEaW0pg_N-0" vertex="1">
          <mxGeometry y="204" width="240" height="286" as="geometry" />
        </mxCell>
        <mxCell id="4rIS1Nqq_IUm1r-qYgcu-96" value="" style="group" parent="WIyWlLk6GJQsqaUBKTNV-1" vertex="1" connectable="0">
          <mxGeometry y="-80" width="220" height="390" as="geometry" />
        </mxCell>
        <mxCell id="4rIS1Nqq_IUm1r-qYgcu-81" value="&lt;p style=&quot;margin:0px;margin-top:4px;text-align:center;&quot;&gt;&lt;br&gt;&lt;b&gt;Cart&lt;/b&gt;&lt;/p&gt;" style="verticalAlign=top;align=left;overflow=fill;fontSize=12;fontFamily=Helvetica;html=1;whiteSpace=wrap;container=1;" parent="4rIS1Nqq_IUm1r-qYgcu-96" vertex="1">
          <mxGeometry width="220" height="390" as="geometry">
            <mxRectangle width="60" height="50" as="alternateBounds" />
          </mxGeometry>
        </mxCell>
        <mxCell id="4rIS1Nqq_IUm1r-qYgcu-82" value="CartItem" style="html=1;whiteSpace=wrap;" parent="4rIS1Nqq_IUm1r-qYgcu-96" vertex="1">
          <mxGeometry x="10" y="60" width="70" height="20" as="geometry" />
        </mxCell>
        <mxCell id="4rIS1Nqq_IUm1r-qYgcu-84" value="" style="endArrow=none;html=1;rounded=0;exitX=1.005;exitY=0.133;exitDx=0;exitDy=0;exitPerimeter=0;" parent="4rIS1Nqq_IUm1r-qYgcu-96" source="4rIS1Nqq_IUm1r-qYgcu-81" edge="1">
          <mxGeometry width="50" height="50" relative="1" as="geometry">
            <mxPoint x="200" y="50" as="sourcePoint" />
            <mxPoint y="50.2999999999999" as="targetPoint" />
          </mxGeometry>
        </mxCell>
        <mxCell id="4rIS1Nqq_IUm1r-qYgcu-85" value="" style="endArrow=none;html=1;rounded=0;" parent="4rIS1Nqq_IUm1r-qYgcu-96" edge="1">
          <mxGeometry width="50" height="50" relative="1" as="geometry">
            <mxPoint x="220" y="165" as="sourcePoint" />
            <mxPoint y="164.79999999999995" as="targetPoint" />
          </mxGeometry>
        </mxCell>
        <mxCell id="4rIS1Nqq_IUm1r-qYgcu-93" value="" style="shape=image;verticalLabelPosition=bottom;labelBackgroundColor=default;verticalAlign=top;aspect=fixed;imageAspect=0;image=data:image/png,iVBORw0KGgoAAAANSUhEUgAAAIkAAABDCAYAAACoVyYbAAAAAXNSR0IArs4c6QAAAARnQU1BAACxjwv8YQUAAAAJcEhZcwAADsMAAA7DAcdvqGQAAA1ISURBVHhe7ZwJdBRVuoC/7k5IurPvC4GESAKERQIiigMIBsQgsg4hgbAfhQHFsETg4SAwiMgDxxkcnjLxYVgUN0AcEUYYMSwuD0FlIEIGCEwEgQRIJ+l0tprqBUjS6a7s4Z1zv3Puoere6tyl/r5Vt+ujVJ27dpcQCBygtv4rENhFBIlAEREkAkVEkAgUEUEiUEQEiUARxSCJ9fXhT70fMCfTdm2QaMejSXFEuzTP6lry6MbQ0Q8RLNW/PknS0a7344yZ9AwzJicS/0Aozg34e9WRJB96Dkvg4dCW+8VB8o1lRP921r3a4zBI3Jw0zInpxJqTp8zJtG3KU0QtB0niEDq5WvebGp/7GTb6YVpbd+uK5NKeUS+9waszBhHlARVukQx6/s+8uSiOIDnk60O7Ucv4w9go654Jf3oMH0ufNpY92/KmQ1KH07OXHPRe3Rjcpy0qj4481MnbWqqMwyAJ07lxTq/nUmGROZm2TXl1QXLyJjTUF63KdrAlSYMuIIwQ71aoa/jWSpITXsHhhMnl1ZFwxic0jEBtLYLWAZKkIiphLuO9DrJk1jxWrX+Tt95YyfMzV/LDfbN5Lv7u7FlTeySpFR6+nrSSW6TxakNEgCtOOh+CQsOJaB2Cn1zmWi3QHJXbG5Mq9egCCPa422+1awBhQZ442Zv5PHzpOGQha5/pia7tMFavms6DoV5oajlT2v3FNcbbi5kdognWacnWF5jzwj3cuWIwsCHzDKdu3jLn1YSkHsiyXUO58u4NYge0Q+cThDb3AK8vWktGnsp8jGvEEJ5LnUwPbQFFWk/K/7lNbvwOsspU5oGKGDKfBZMexL/4FhVeHuQdeI0X1x/mhkqFW6ff8kLqODqqblDkVMGPn50k+kkNGxPXcUwur4wktZNniVlEZqxm7YFr1ty7SPRmwQczKVg6jf85VW7NteAbO4InfX5k89/P0zY+tcb25Gkek/saz/Ud8JshoVz+ZBlpqqdJeaI9/qo8Lt88xQcLXuULfTRPp72C58ZR7I1eZ1O+v0DleEzMY/o4l7dX8PDgNui8tPyy41W2lv+W2XGB8izhTcnxv7DwpT1csRkDZ0J6jeDp6eOIDSkh6/M03tyynyx97YJE7R7ob92sSt+gQDp4eeLl7Ew3+V7ElEzbHTw9zWXKRNFZt5O506cyMfl5/mYYwMQRHcwlkiqScalT8f4ileTJ05gyIYXdzgnMTbROv5r76NXblW9XTyVpyhSSp6WROyCZJ8NNARjDxHmjUX+cQtKkaUya+jI5Xfs6uNSUU1JsxFhWYd2vRmA4bZyzOJVZZs24S97xnaQfOEeFc5Td9lhoT3vNduYkJ5Ky5WdObp7Hmn9c52bGH5kxc405ACpTU7nimJjpTKzH+zw7aTwTUj9HO/pFnvF+n9lTkkl+ehNXeyQw1DLEVfEbSFK8G/vSPiX7yDukXerG+JFdaz2TqDvED7Ju2ufb67nmVDeyOfTpTxTKUS0Zstj79XmCWodZptCogfTz+YEDRwz4BAYS5FPCNxk/EXh/LH5yuariDB8uX8Y7J/Jx8WtLZKQ7GMMIM91zdfgNvZ0zeG93NmXy31aVXODDXV9jsFRqg0p1kb+t/i/Wf2Wn/fKs4F5USGHVSaQKDttj5gKHdnzLr8aqwVAnFMbEQjZf7f4evXyJNGb+H//Mv8nxg9+gr1BR9utRTlzwwz/IemglVHl7Wbd8E0evFVJcqCfz03UsS/+R8mozjj3UV346bd20z9Zz582pbhgprnTmCuV7GpXaCXOzgvzwc44hYekKli+3pGWj2nK9zBlfuVjCm97JS1j313Q2rJrP9GHt0ZXIAWH6sL8PPnm5XK30JSi7lov9i58C/87hirt8Uhzcajlsj5kySkutm/VFYUwsGJDPsZUK+TJSRkmJdVduQ7k8WTo67aoL77NQvkTWFXXOsRPWTfus6tHdnBqNq3nk6TNYN0Nebs6ccTct3MZZ08h3SWT2cDcOLZ/O5GfmkPrS/3LsdhSYPhsQTOtKt9zOwUHUbnFeA0U/cfJ8NHHx1mWHFdN9Uc/fpZH2ux5oOjtojwPkMLJu1UyVcqUxaUHsrm6M5XfnX52TkzndpnJZvTh7gK8MjzJhjPyNlKdSSe1D3+f+yGsTu1iukxoN6tJC8m4Y5ZMF3t1H0O/21H72IEcNj5CYEIXW9FltNEkje8lrnZqRJC+6DhvPoPY1r8dVqhw+ens/3gkvsiA+Bn9X+dQ5+dNt5CKefbSAfXuOUy4v++22xw4GQzFe7aIIUlea8iphU640Ji2I3SDZkX2JjWey2Pyvc1WSKc9U1hBUFf9i6ysbud53BZu2prNly3omhJxl177TluvkDx+y6ftwnk1/j01pb7N6RClnzt3+7Bm2vLqVgsdWs2XrZrZtTMEzYx8XLcW2qCLoP2Y0wx4MsWbYYjyxgfkvf4XbsBd5a/tOdnz0NoviJPasXMr28/IJctAee1zc9xEHWz3FX3asZaSf7UmuXq44Ji1Ii0tHTh7+eJZeJ6/YmmHF9PuFVl46e5Vf41e97cxluhx4BPijyb/KrRLHXZDUGpzK5Wt2LQZbo/OV70BukVtUtU6l9tSE6TMuWmfKDEYqaqjbXrm9MWkphJkmUMThL64CgQkRJAJFRJAIFBFBIlBEBIlAEREkAkVEkAgUEUEiUEQEiUARESQCRRSDpD62fF2R3HsxdfFsBgRKNIZpL8z3xsVhkNTblpepkw0ulVNWWkqZacwbaNoL873xcRgk9bXlHdvgNRjwBSfZkfYu39l6ynVCmO9NgyYwKPgl63YVTLb8rI4duM/Tg97+fgwODSFazovx8SK7oJBrxUbrkbbEjFvJrIGt8QnryIOPhKM/eJhzRicihqSycsXzJPR/iLixiQwIyOHotxcxaB5l8fbpuH22j8ySSAYkRnHl4338XM0ZtZjvSxiqOc7R80XW3EqoejNtSR8y161g7y93B01Vcpmz/zbi55zPj1k3CX/iBYft6KR9nJS5o+hcfoJLMSm2fSnxo+fwOFy+386tvrZ9PV9iMd/nrVrBjPg+9BuZyNCYMk4fOU1ehdwnTX+5nim01zzGrDljeSopiUdcs8ntmsLLc0YxZEwSQzve5Osvz1JQXTEozuVakY6YPn2ICHXjxtEPeG/PCXLvaIyNT5PY8jXa4g4M+NojzPeGmu/1oQlt+aooG+fKCPNdbn8Dzff60IS2fFWUjfNGQJjvTUKT2vJVbHBHBnxjIcz3JsHu6qahtryNDe7IgK8lwnxvGewGSUNteRtbvB7GuQ3CfG8RmlSErm6D18c4r44w35sfYcsLFFF8diMQiCARKCKCRKCICBKBIiJIBIqIIBEoIoJEoIgIEoEiIkgEioggEShiV1+8jcmQX9ytC0+EhZpf9HvF0LCHECYzftr8UXj//A0XChv+sMtkxkc+NJC4uDj6xUYT6JTHhZz8Gp+vNAeN3b97AYczSUNsebtUNuMbSPOY8XWkjv1rTtO+vjicSSLdPWit07L7Ug75cse7+Xibrflco30JujJqF29CgnQY9UWU35ZySnI5n5nJpVwjpbji6euFh1aL7k5yQWU0UCpZjjcJQ26BrfFvVUyRoQzJOkOYnrpGjf8DcyOOsGT+anYePsax7zL4/O9ZtEtcwMDyvRw4a5n1TGa8d0gbApwM5BdbnvqajHVPPzcwzYxebQn3LKEAD6L7JTDYO4uDZ24gyWVlCrKRDZX7J7ncqaPCxY/QABeMBYY7Y2Ey7RtcXzPQNO+Wl09K9IjFLBwfg5RbiKvOwNdvLWH94ZtY3pEez/EJ89hZ8QTL35zMne+RphXuunx2L5jExkyFd6030zvhq4vPiu+qr9w/vamOx8nZWsgDj0Xg7heI06VdvLLwLY4bVHRJXqtY371A07xb3rU/E6a24fDi8UyfOY0pK75E2707/tWsLJX+c5YmjSNJTomJU1l3KI+b36Tz8Wl5sJWM8xYw4y0oGPs2dKKL9gNSpk9h4qTfc0g3nAlDg80ltauv5WkaW96Yw+VcTzr0e4QoH2dKsz5kzRtfct3BzWTw4FRSuv3A62v3k2s6Tsk4byEzXtHYtyGbI3tOUST3qVz/Pfu/u0ZI66oO7r1Ok9jyKjLZumYbv0QmsHTjdt7577mMud+/yv9iq4xT+yQWTfXls9UbOCZPw2aUjPN7xYxXpNo79ouK0Gju+sL/H2gyW15/ehevL5nF+LFTWPkPHU+9MJleNYyN5PYAsxY+hT59FdvOVjpjSsZ5C5rxjU1z11dX7C6BG2LLS22Gs3LDYgb5ycvl8nx++VW+aXTzxtvFeoAViQCGLJhH7Jk3eG3vVdTyN0yj1siNkmccBeO8pcx4JWO/rijVdy9gN0gaZMtfzGDPCU/Gvr6Fd9LfZfOCzpze8Fe+KLSW3yZmFIk9PfDvt5D0Tz5hlzX9flCrWhnnLWHG18bYrwuK9d0DNK0tjyt+gTqK5ZveItN/lK4ntTHOm9WMr4OxXxuU6mtphC0vUEQ84BMoIoJEoIgIEoEiIkgECsB/AJURz62Fw2wXAAAAAElFTkSuQmCC;" parent="4rIS1Nqq_IUm1r-qYgcu-96" vertex="1">
          <mxGeometry x="10" y="90" width="137" height="67" as="geometry" />
        </mxCell>
        <mxCell id="4rIS1Nqq_IUm1r-qYgcu-95" value="" style="shape=image;verticalLabelPosition=bottom;labelBackgroundColor=default;verticalAlign=top;aspect=fixed;imageAspect=0;image=data:image/png,iVBORw0KGgoAAAANSUhEUgAAAP0AAAD3CAYAAADWrlKaAAAAAXNSR0IArs4c6QAAAARnQU1BAACxjwv8YQUAAAAJcEhZcwAADsMAAA7DAcdvqGQAADL/SURBVHhe7Z0HWBTX+v+/y4LSexMhFMUabIAFo6jBxKjYlQCiot5ootFYYozX7lVivJp7/1dv/ikmxqhREzUmuTEaS6xEY49R7BUFKVKkL8xvZneAXXZ3dhaWovN+nmced+ZMOXNm3jnnDHM+ytoGdWBAEIRkMOP/JQhCIlDQE4TEoKAnCIlBQU8QEoOCniAkBgU9QUgMM5lMxv8kCEIKmLXz6cr/FE+fEa0wbXUEoqaHwtaxMb9UPwxjDf8ur2LE2EmYPC4a/UO8YMGY/vMAxrkfFibEwF/GgPEZgRVLBsOjFo5DEM8yZhfuJfI/xfFi16bw8HXEJ/MP49aldAwY155P0Q3TuDmGLV6HDyf3RaAdUGYTgL7v/AefvB8BD1QvIP2HLcE/RgXycyoYRo4XRwyFxeH/4TbDtl7u/Q+/MZEY2cGCX4MgCA6j+/RNmznhz8QHKCoowelDd+DNzuuDYYMvMGomYh0OY/6UWUhY+wk+Xbcc77y5HBeaTcW0/pXbMow5HDx94e3YiF/CLWsEO2d7NGIfDnIHH/i5WcLc2gkeXr7wa9oELmyaZfmDwy4cI/uk4diRLOWsTFaAY0fvo8eofnCi2p4gKpC7e3gu5n9r4epli5FvhyC4tx86hvsqJ7/WLvAJdEZWegEyHj7Fg5tPkJNRwG9RBVkXTJgfhqQ1y7D3YWXgyYof4fqDIrhY5ODijSz4vvYeli97B1HhXRExKhq93ZKReOoeCuS9MG/bRLS2ehUzZg5D29LzuN9mBqb0aQon71bo3N0XuYeP43YxW7O3H4q3glLw7Y6zeMK/pyhmfNE3thkebj+G+6B3FwTBIVjTt+jgiebtPODfxrVicnCxhru3PTr28FGuc/9apvJfnbj7wsfiBi4nKfgFlWSe+x4bD95CmUUgQrtY4tTK8YiJj0fchPXI6B2Hgb78imiO5vJtmB4XjRmbruLS17Ow6lA6so7+C5PfXIUDT1XB7NzEA9Ypj/BQOcfz4BFSLDzRxI2fJwhCfPP+Hhvcl0484OdYxLz1d7CDbX4e8kr5eR3Iyq7hu6VL8NX5HDR2eQEBAbZAkTe8/fkVcAfHdp1CapHw8bybeiKLDfoC9XyVJCP1iSe8VM8ngiBYRAd94p6b+GXzX/ycSB4kI8XWHR42/LwOGDiiS9x8rPl8Iz5OmI2Jkc1hzTbXK2NXgZIS/qcQ7AaMjr67cpGI5xNBSAXRQT/8zU54M6EXPyeS/D9x6XYLRPTXrGq5N+3Bb63H+rc6Qd42GlMH2+DY0okYN2k65iz+Emey+RUFYB8L/C8VyckpcPL0hKV64Fs0gadTKh7d5+cJghAO+pLiyna5eSM5bOwr/yavnqYPmSwZO744AMeoBXi3fxu4WrKhau6KdkPfx9u9nmLfnnMoNZfDrCQPmU+KlLWyY4ch6FnRtNdNQUEhHPwD4WFWGeAZj1JQ4NkUTfl5JU294KFIwaPH/DxBEMJv7zMe5SE3uxDJNzJx53J6xXTz4mNlc78oX/sFXVUUKadx7IY9esT8DRPHxyE6agi6uj7AT//6ENuSCoHUe8gNGIq3psWi/yv90dvrDq4WtIbF1S04ejcAvaMDkbJzH66q9elzUgrRpPfreHNyd5T8uhdJBWxaji2CRrZD7s+HcEuhWtc6eDCiHf/Ehv1XNfv6BCFh6tScI7d2Znvw2cjI12wlcH/Pt3LygENpGlJzDbcgOLhtGltZQFFQhDJlf16Odm99jBG3ZmHR3lx23gqvLP4PWv/4Jv7fWTEvBQhCGoju05uC0vxMrYDnkMkYFGaliA54Dm6b4sJiZcCr5ktxcfsPkEUMUn6GC5+B6Gv5C7afKVamEwShghx5BCEx6rSmJwii/qGgJwiJQUFPEBKDgp4gJAYFPUFIDAp6gpAYFPQEITEo6AlCYpANlyAkRp3YcMUgRWMuYxuK8fOmore77uMzdu0wYHhXeNZT/ojnk1q34YpBssZcphSKkhIo9J2iU3tEDu+mOVyYIGqI0X16Y2y4YnjWjblyK0e42Gg+NGSN7eFiZwkzfp/cw8barSk8beXK+QqeXsKu9d/gjzR+noWBBZy8vOFuVWVdgjARtWvDFUMDN+YyjD/bCpmPAfJzSLydzy+txDp8Dr54xxenfjqHLH6Ib+dpX2Jh0HV8f+oRGge8htkJyzFlQHeED4tDZFvg+ulLSC9hjyUPV+bd5meVL8Cm9UgsWLUY8RFd0WvIADQryoVLCzOc3ZGIR/TuhTARgjV9jW24YmjwxtxSFBcWoUhRxs9r8vToIZx26Y5ezfkF8hCEdy7CsQNnUSoPRMyccXA68D7ixozH2Jip2FYWifcmhKBRlZYFY9YGY2YNh9nOGYgZOwFjx69AclAPatoTJkd0875aNlwW5y6TsOrzjVj/0XsY3tpeuax55GxMfMlR+buhG3Nlsnv438q/Y+2RDH5JFYpO4FCiLbqHt1TOWnTpgZDsw9h/mQ3q5r3wkt0JfLPjBgrZY8rKHmHv17+iqHs4tN6EtHwJXSyOYuuPd6Hg1i2+g+92/44atKEIQieig746NlyGbTpHjuuNrO2L8MHuLPT4+3+w8r0FmBHbFuZPclUrPePGXE7ecerAMVh274UWjDm6vRSKlMP7cYvLnIcLXNIe45F6I+FhKh5bu8Hdmp8vx9UJTpkZeKyWPUVaBkQ4QgnCKEQHfbVsuHiMvWvew8f7b+H6b59g1vQPsPevC9j1j3fx2SW+Of8cGHNLL/yKY+iO3h264aWQZBzef0+VkJKOdDcPeKmXMtvacM9Pw+OqrwceZyLTzRNN1da18PRAzV6TEoQ2gkFfcxtuAVKu30VmmSr4SjOu4OBPP2D/pXSU8tV0QzfmMowDgiJj0be5Jb9EG5nsGn49nI/uU8egw63fcKB8XzcO4UhON8REtYQVm3FG7o2BYyLQ6MghnOdXqeD6YSQWdEd0VKBqXasWiBkaCvrvNwlTIxj0F48/wP++uohD313RmPZv/QsHtl/m16o5Rec/xuwVR2ATuQCfbvseu3Z8gfcjGOxZvgjbbrNBe+E7bDjri7c3bsWG9V9g5ZASXLvFb6yHe/t24HCjQfjvrtUY6sIH/pU/ccXeFwFqTWvrZn5wuvYXuC64TmR+CB8xHJGdm/ALdHNz32FkebjiyoGDyC5/oDG38M0HnyM1bCm+/uZrbNn6EQYpdiLhi7MoqeybKOHeW2z6cDOevrwSmzaz6342A/ZH94FvMxCEyWhwjryGaMxlzOQwL1VUtE6MhWudNHZyg21hOjILhYuby6OdmyvkOY+RXdygLg3xnCC6T19XNERjrqystNoBz8FtWpyVZjDgObg8Pk1PpYAnag2y4RKExGhwNT1BELULBT1BSAwKeoKQGBT0BCExKOgJQmJQ0BOExKCgJwiJQUFPEBKDbLgEITHkESFDF6dmq8kxRMDZcCMndFCqs+5ezUBxofCnsZzpNqBrH0RERKBnxxZwN8/EneScis9jTQVnul20sDPuHbyILH5YbW0fm2GcEDJoMPyeXsKD3Pp5gDLOHTG0sxWS7qrcf8Yg1fLhTMgJswJx6VAS8iRW8dW6DbfeTLfcsjo5tis6DR6FMF4HoCtvtQVj5ovgUC9YOLTDK2EvQGbXCl1b80YiEUi6fOrbhFyPGN2nN8aGW5+m2zo9No9QOvdQsnbzRhP2GOWWXA6N41i7wdOu0oJrZukGbw97mKutr4GdM1r1m4vVk4Jh/UIkViZMRGcvB8j1ra+G1MvHFCbkZ5XateHWp+m2jo59q9gFwYMj0PjsNmT3WK4zb5Z+/TArYRkm9w9Dz6HRGNBGgSsnrqjkIkojbjyay1/GlOmjMCgmBt0t7yIjaAZWTB+GfiNiMKBVFn7/7TqeVm2GFmYgLd8abcLC4OdlgyeJ32LrnvPIEB40qILKx6AJ+XlFsKavsQ23Pk23dXjscnSlM7IAvD5nPBz3z0HcuAmIHz0DP1pEYWa0ehO3LTrabcfbY2Mxes4vsBq+AJMct2NqfBzi3tiAx52iMEDl3dTEpQ9i+ttg3/qfcPfEV1h/vx1ihwaJqumpfFgMmpCfT0Q376tlw61P020dHluQwD7o6XQBB08UwMndHR5OxTh59E+4t+8Il4rgvIsjP55FLtvkLko6jb9ysnDu8EnksjWdIjUR5++4wNWDX1UNWeZerFm6AYlpeSjMy0XST2uwZONFcWP/qXwMmpCfV0QHfXVsuPVquq3LYwvBGXEt2iBq0TIsXaqalgx7AekKCzjzqwAFYO9JnjL2PBQormiiK1Baxp4eP6cL2Z3tmLv2OD8nEiofJcpbRmjj5xDRQV8tG259mm7r8NhV0UjnLLe5R7Fm8iS2STu5cpq7Bdcro6fuofIxiQn5WUQw6Gtuw60/021dHlsdrfTrB3GkoBdGj2BrSfYgjJkTekz7Fz4a86K4vncNsPcLRkiAAz+nCZUPiwET8vOKYNCbwoZbn6bbOju2GlXTZWU3sfmDz5DeYxk2bN6ITZvWYnST69i970qNvHuG4Grs0NGLMC5Md9BzSLl8OAyakJ9T6tSRV5em26rU5rGroi/d3M4V9iWcEZdfUIswTFOMWfdPOHz2OtZeMBw80isfcSbk5xHRfXpTUKem2yrU5rGroi9dkVs3N7QSeTN4O5zD6T/5eQNIrnxEmpCfR8iG+5zCNGqKTq0YXLyQXOvNZOLZgoKeICRGnTbvCYKofyjoCUJiUNAThMSgoCcIiUFBTxASg4KeICQGBT1BSAyy4RKExDBr59OV/ykezoY7bXUEoqaHwtaxcuRdXcDZVYMjo9DNS/ubIv+eMRgQpH+ASU1g7NphwPCu8FQb+cXZdxcmxCg/++XsqiuWDIaHCUaGcYZa/y6vYsTYSZg8Lhr9Q7xgYcIRZ0JlWFdwhtoh4QaG7BG1Qq3bcGuKIbuqOs3CY9C/vXgbrFE4tUfk8G4VQ3e5AT4a9l0T2VXJ4EvUNkb36Y2x4ZbDwAJOXt5wt5KDkVnCwclaY6w0F0C6TKiG7Kpi0LfvcnSZXstRz7cWVey7prCrcqPPyOBL1Da1a8NlsW0zCgs+XIz4iK7oNWQAAs2bYNisLkjZkYhHMmETapvXte2p6nbVxGTN9xEBbE3fOutn/HxRpXcR2jd3Q/v1m6PT9FrI5sum9UgsWFWZ72ZFuXBpYYazfL617LsshuyqDOPP1uLzMUB+Dom38/mlapChlqgDBGv6mtpwGbO2GDt7GGS7ZiBm7ASMHb8C9zr2gl95ugETqn67qgyO/sEI7thJY/Kx55NZDFpW5c30ml4ZszYYM2s4zHZW5js5qEdF055Dy77LYdCuWoriwiIUKcr4+SqQoZaoA0Q376tlw231EkLlR7Ft910o2PVlxXewY9fvqKjjRJlQdWHB1uqxiInVnMK8+WQOA/sWNL22fAldLI5i64+V+f5u9+9Qb89o2Xc5DNhVZbJ7+N/Kv2PtkQx+SRXIUEvUAaKDvlo2XBdHOD3JRBo/y6HIyEQO/1ucCVUXxTi7YSZmzZ6lMW1TN3gZ2Leg6dXVCU6ZGXis9txRpGVAwwnJrqhh3+VRLqru/UuGWqIOEB301bLhPnqMxx4+8Dfn51msfb0rbxyRJlT2luZ/GYGhfb8oYHrltnXzRFO10rHw9ID6K0st+y5HTe2qZKgl6gDBoK+pDRfX92FfcmfEzxyIoBe84Ns+Em8Pblv5fliECdWQXVUvhvYtFzC9Xj+MxILuiI4KhBW3rVULxAwNZTsVlVS17yoxYFdlGAcERcaib3NLfokmZKgl6gLBoK+pDZe7ib9bthj7y17CG/OXYs7rATi7fS/Sy9NFmFAN2VX1YXDfAqZXrt+86cPNePrySmza/DW2fDYD9kf34Z4qWYUO+65Bu6rMD+EjhiOycxN+gTZSN9QStU+t67LMrK1hmZeHfP5mYdpNweZpJVgy4RONpqKQCdWQXdUQ+vZtyPTKNavt3Fwhz3mM7GLNYuLS1O27Yu2qjJkc5qVsn1fEeUjNUEvUDYJ/p68pDOOBocv/i4kt85GWbQb3oF6IiekP54tb8fXpFDBqN1dZcT4KtP9SpYRbrVRRqrG+MejbN7c7ReFT5FUJ6HKU1tb8PBTpiCsuLZWtefuMaY87+y/iifdQTA67gc+//lP7b9NqyLjmssjzYEoKUFCinTdD+dYFt41QGepLF7ouxLNJrdf0MqcOGD56EEL9XdCo6AnuXNiDbdt/Rwr3kQdBEHUO2XAJQmKI/pMdQRDPBxT0BCExKOgJQmJQ0BOExKCgJwiJQUFPEBKDgp4gJAbZcAlCYsgjQoYuTs1Wk2OIgLPhRk7ooFRn3b2ageJCcd9/mwJ5s96Ifi0MQUFB2pNbAS7fytD7qSljG4oJs4fB8epJ3M4LQO+YEDS6dhMZpar1ObvtooWdce/gRTzxGYmEWYG4dCgJeTV8MHJ224CufRAREYGeHVvA3TwTd5JzqjWOQBec3TZk0GD4Pb2EB7n18xDn7LZDO1sh6a7KGUg0XJ45G66ssR2cHJ2Uk3u7foh+tRPc+XknG0vhUeNMKRQlJVBw3yCa+aNXdD+05ke5cgNoyG5rPGS3ffYwuk9f3zZcxeUfsO6/65TTl8cfAqkn8OW6taplP15S6q04dFpu2Zpw1/pv8Ie6yqccstuS3VYiPHM2XM7UWo5lywgM803Gzl+voKgi2PVbbsttsTY/70NSMdu8jw5Eys59uMr55MhuS3ZbiSBY0zdcG64AApZbIchuS3ZbqSC6ed+wbLj6MWyL1Q3ZbcluKxVEB33DsuHqx7AtVg/sCmS35X+S3fa5RnTQPzM2XCHLrQBktyWkgmDQP5M2XCHLrQBktyWkgmDQP5M23GrYYpWQ3ZaQCM+lDbd6tliy2xLSQHSfvjpwNtzBiz5HwtTXENyiBdr3Go6ZE3qi8PRJVK3MFLn6b0SllbawWPRnq9z6hVkpogOIQyYrxcXtP0AWMQj+7PbwGYi+lr9g+xnhPzjLykpF15al+ZlaAc9RvfwKl4m+dKFyJqQB2XAJQmKQDZcgJEatNu8Jgmh4UNAThMSgoCcIiUFBTxASg4KeICQGBT1BSAwKeoKQGGTDJQiJYdbOpyv/UzycDXfa6ghETQ+FrWPlyDtj4My04+dNRW9303wbxJlsFybEKD+hZXxGYMWSwfCowQgyU+ePIBoK9WfDVTfT1hBusIzJTbZG5q8uDbQEUROM7tNXx4Zr1tgRXl7OSttqBWpmWgaNYefsDBeNyRHWauPF9ZlcldSCyVYjf2q2WFljZ3h5OmqciyFDLUE0JAS/vedsuAPGtYPcvFKJ7OxhzQa8Anu3/IVrZ1Pg08JZrxyT0zq3GDIPc2PbgMnIg6V1AX7/dD7WHs8CY9YHS3b3x7nRs/B92WtY+sk4VNST8kawtc7Bj++OxWdJKpPrtDnj0MnqKfKt7FH61xasTNiFGwrV+wgmdCa2v5GNeRM/x03+HQXjNwafrvbCxuEJOK7DMqMy2U5BwNGVWH1Q24mtkb/cl9nfryJ5cx5CXvaDrYs7zO/vxgdzP8W5AhlejFuNGa81h6ssE4+yLuPbdz8UJ/EkiHpAsKavqQ0XluEYPd4Hx+fFYuKbExC/7DdYdegA1yq1ryz3FyyKeR0x7BQdPR5rjmUi6+RG7LzCBp8Ik2utmGy1aI0Xrb7FjInxGDN2IY5ZD8boAZ7KlGpZewminhDdvK+WDbcoGY8y7NGyZ3cEOlmg5MZ3WLXuN6QLbOv5yhzMaHcB/159ABnceiJMrrVistXiLk7suayUgZTmnsUBtt3fpKmenRNEA0Z00FfHhitDEjav2oKHAVFY9Nk2fPXPmRjR3lW7T85j3jwG7493xs8rP8YZttmsRIzJlQ1Ek5tstShCodr/6ZGXnw+5XM34SRDPCKKDvlo2XJbcK7vx7/lTEDsqHssPWWPQe+MQqiNWGJsQTJk7CLkbE7DlupqeSoTJtVZMttXAKGsvQdQTgkFfUxsu4zMYyz+eh74ucrYLnYOHqdkos3FE1T/tM3BDv3dnoeO1dfho72OYsTWo3EzOZo4NYhEm19ow2RqL0dZegqgnBIO+pjZc3DuKPeftMerfm/DVxm/w9bttceXjz7E/j08vp80wRAfbwbXnXGz84Qfs5qeFfRuJM7nWksnWGIy29hJEPVEnuiwGlnBxt0Zhegbya+DG02dyrQuTrRiMtfYSRH0guk9fE2QoRCbbN69JwHPoM7nWhclWDMZaewmiPiAxJkFIjDqp6QmCaDhQ0BOExKCgJwiJQUFPEBKDgp4gJAYFPUFIDAp6gpAYFPQEITHIhksQEqPebLjVgWGcEBwZhW5e2h8R+veMwYAgB37OtDB27TBgeFd4qg3dVbfvlsMw1vDv8ipGjJ2EyeOi0T/ECxbqw31riND51xWMc0cMCffn51SYwj5cEwyZi3VdPylTfzZcEWgbZl3RafAohOkQ1jQLj0H/9o78nIlxao/I4d0qhu5q2Xe5ZY2bY9jidfhwcl8E2gFlNgHo+85/8Mn7EfCopijT0PnXpYGXMfNFcCj7EHNoh1fCXoDMrhW6tubL2xT24ZpgyFxc5fpJHaP79Caz4fLos9yawjAraNBl4cSdDp6+8GbTq8LAAk5e3nC3qpSCVlDFvsuNrguMmolYh8OYP2UWEtZ+gk/XLcc7by7HhWZTMa1/ZRnpOqa6bVfu4AM/N0uD5y+Uru+8NY5j7QZPu8pzM7N0g7eHPcz11YZ2zmjVby5WTwqG9QuRWJkwEZ29HJROA1PYh+VWjnCx0XxoyBrbw8XOsuIcVOfVFJ62Va6Jmrm4HMHrJ3Hk7h6ei/nfWnA23JFvhyC4tx86hvsqJ7/WLvAJdEZWegEyHj7Fg5tPkJOh5pFSQ2XDnY8PF8Wjd2gvDB/1CrzSTuDUfdVQOc5yOythGSb3D0PPodEY0EaBKyeuILNMhjavL8eUPk3h5N0Knbv7IvfwcdwqdkHw4Ag0PrsNicma7yIC2Jq+ddbP+PlitnJeaN/czePXbw6WL3sHUeFdETEqGr3dkpF46h4KZTLYtB6JBasWIz6iK3oNGYBmRblwaWGGszsS8Yh7B9J+KN4KSsG3O87iCTcv64IJ88OQtGYZ9j6svOllxY9w/UERXCxycPFGFnxfe0/nMQvkvTBv20S0tnoVM2YOQ9vS87jfZobg+Wf30C6f28Uqc7C+84Y8nD1OPJrLX8aU6aMwKCYG3S3vIiNoBlZMH4Z+I9guUqss/P7bdTyt+q6nMANp+dZoExYGPy8bPEn8Flv3nEcGP5CxmPFF39hmeLj9GO7rMAip7MPzMUB+Dom38/mllViHz8EX7/ji1E/nkMUem7tGnad9iYVB1/H9qUdoHPAaZiew5zygO8KHxSGyLXD99CWkl5Sf10TY/LwPV4tEXD+JI1jT16YN15DlVr9hVgZH/2AEd+ykMfnY88ksBg268mYI7WKJUyvHIyY+HnET1iOjdxwG+rLbmrXBmFnDYbZzBmLGTsDY8SuQHNRDo2moZd9194WPxQ1cTlLwCyrJPPc9Nh68hTKLQL3HVNGcDcZtmB4XjRmbrho07OpKF2MOBtqio912vD02FqPn/AKr4QswyXE7psbHIe6NDXjcKQoDWvKrquPSBzH9bbBv/U+4e+IrrL/fDrFDgyrsRTW1Dz89eginXbqjV3N+gTwE4Z2LcOzAWZTKAxEzZxycDryPuDHjMTZmKraVReK9CSFoVKVlIeb6SR3Rzft7prbhirDc6saCrdVjEROrOYV588kcBvYtK7uG75YuwVfnc9DY5QUEBNiyefWGN/d+quVL6GJxFFt/vAsFm09Z8R18t/t3qLdltOy7Dnawzc9DnoBBTPCYSu7g2K5TSGVrqmojqkzv4siPZ5HLdkmKkk7jr5wsnDt8ErlsS0CRmojzd1zg6sGvqoYscy/WLN2AxLQ8FOblIumnNViy8WKlj6Cm9uGiEziUaIvu4aonjkWXHgjJPoz9nPqoeS+8ZHcC3+y4oWyJycoeYe/Xv6Koezi03iiJuH5SR3TQm9yGK8Zyq5NinN0wE7Nmz9KYtqnbuwzsm4EjusTNx5rPN+LjhNmYGNkc1mzTWHn/ujrBKTMDj9WeO4q0DKg6DTzsihr23QfJSLFlg8yGn9eB4DGVKFCiX/IjDlFlWgA2ZnnK2PNQoLjCNaJAKVsRCz12ZHe2Y+7a4/ycJsoiqeYzixOhnDpwDJbde6EF2y3s9lIoUg7vxy2ugLjzSnuMR+qNhIepeGztBnc1RZoSMddP4ogOepPbcEVYbjnYsOB/GYGhfb8YjamDbXBs6USMmzQdcxZ/iTPldwW3rZsnmqqVjIWnB9RfV2rZd/P/xKXbLRDRX7Oa4/qlwW+tx/q3OkHeVuCYAhg6f410kWVaK5jAPlx64VccQ3f07tANL4Uk4/D+e6qElHSku3nAS/1uZVtb7vlpeFz19YCI6yd1BIO+Vm24Iiy31TbMGtq3XA6zkjxkPilS1k6OHYagZ3kz+/phJBZ0R3RUIKy4ba1aIGZoKNupqKSqfVcmS8aOLw7AMWoB3u3fBq6WbCiau6Ld0Pfxdq+n2LfnHErNBY6pB0Pnr5UuokxrDRPYh2Wya/j1cD66Tx2DDrd+w4Hyfd04hCM53RAT1VJ1TeTeGDgmAo2OHMJ5fpUKRFw/qSMY9LVpwxVjua2uYdbgvi98hw1nffH2xq3YsP4LrBxSgmu3yre9hk0fbsbTl1di0+avseWzGbA/ug98naNCh3236PzHmL3iCGwiF+DTbd9j144v8H4Egz3LF2HbbTbvAsfUh6Hzr5ouyhxcS5jKPnxz32FkebjiyoGDyObzLGNu4ZsPPkdq2FJ8/Q17TbZ+hEGKnUj44ixKqpyXqOsncRqEDVef5ZajpoZZ/QZdGaycPOBQmobUXO1WC9c0t3NzhTznMbKLNYuIS1O371ZFbu3M9uCzkZGvuV9Dx9SFofPXly5UpqamruzDXGOlsZMbbAu58xK+bYWun9QhMWY1YVwGYtlcB3w5Z1PFV3lShfEeiVVTGKyZ+y1SqhnQRN1BQU8QEkOwT08QxPMHBT1BSAwKeoKQGBT0BCExKOgJQmJQ0BOExKCgJwiJQUFPEBKDbLgEITHkESFDF6dmq8kxRMDZcCMndFCqs+5ezUBxobjvyGuKvFlvRL8WhqCgIO3JrQCXb2WA0fMQ44ypE2YPg+PVk7idF4DeMSFodO0mMkpV63N220ULO+PewYvI4oercnbbgK59EBERgZ4dW8DdPBN3knOqNQZAF5zdNmTQYPg9vYQHufXz8OXstkM7WyHprsr3x8HZbRNmBeLSoSTk1UOloH6t7uRpH5+z2w6M9Efu5fvaWi/CIM+UDVfW2A5Ojk7Kyb1dP0S/2gnu/LyTjaXwyHN1Y6qZP3pF90NrfpQnNziD7LZkt5UKRvfp69OGq7j8A9b9d51y+vL4QyD1BL5ct1a17MdLSj0Sh07LrQ5jagVktyW7rYR4pmy4nO21HMuWERjmm4ydv15BUUWw67fclhtnOWNqUjHbvI8ORMpOlT2V7LZkt5USgjV9w7ThCiBguRWC7LZkt5USopv3DceGqx/DxlndkN2W7LZSQnTQNxwbrn4MG2f1wK5AdlttlEVSzWcW2W0bLqKD/pmw4QpZbgUgu60OyG773CIY9M+cDVfIcisA2W11QHbb5xbBoH/mbLjVMM4qIbutFmS3fX557my41TPOkt1WHbLbPt+I7tPXBBkKkcn2zXQFPIciV//NLJMxKC4sFv3pK7d+YVaK6CDk4F46Xdz+A2QRg+DPbl+V0vxMrYDnqN6xhM9HX7pQGZkcn4Hoa/kLtp+peCOoE1lZaY1aHNymxVlpBgOeg7tGT9NTKeBNANlwCUJi1ElNTxBEw4GCniAkBgU9QUgMCnqCkBgU9AQhMSjoCUJiUNAThMSgoCcIiUE2XIKQGM+UDbcuqQ9TLRl5a8fIK9Uy1EeDtuHWL3VrquUGlJCR1/RGXkmXoR6M7tMbY8PVZYUth7vJTWV4Ve1L26oq3siqnQ916sRUS0Zekxt5pV6G+qhVG2651VTdCrv3YoZJDa+W/v30WlUNGln9X9OfD9SxqZaMvCY38lIZ6kawpq+xDVeJphXWlIZXxqy5oFVV0Mhq1kxEPlTUhamWjLymN/JSGepGdPO+WjZcJVWssKY0vBqyqgoZWWtq4zWxqZaMvLVg5KUy1InooK+ODVdFFSusKQ2vBqyqBo2sNbHxmtpUy+aJjLzaKItEaGMhqAx1Ijroq2vD1cKUhlcRVlW9RtZq5KM2TbVk5NVBTY28VIY6EQz6mtpwdWJKw6sIq6peI6uR+ahtUy0ZeXVQQyMvlaFuBIO+xjZcHZjS8CrWqqrTyGpkPmrdVEtGXi1MYeSVehnqol4deaYyvHIPS7FWVV2IzUdtmmq5JicZeSupDSOv1MpQHyTGbEAwLgOxbK4DvpyzqeKrPKnCeI/EqikM1sz9FikiApoQDwU9QUgM0W/vCYJ4PqCgJwiJQUFPEBKDgp4gJAYFPUFIDAp6gpAYFPQEITEo6AlCYpANlyAkRoOz4TK2oZgwexgcr57EnTzjH0gqM+kw9A4JQlCQ2uQtw53rKSh+Bh5yjF07DIz0R+7l+xV6JHVT7hOfkSYzxVYHQ9dIV/6JhkPDs+EypVCUlEAh8uNg3WbS19Ez0AlOjmqTgxXM+TUaPE7tETm8W8UwW24wjoYp10Sm2Gpj6BpVyT/RsDC6T19dG665rSd8POw0xg/rso3i6SXsWv8N/kjTTJc1doaXp6Pydzn6zaMluP7LWqz777rKaetJlXCShwskXQZdXXnirLrO1pWPDMbcFi6OVhXnotrGAVYy9XMTZ1cth4EFnLy84W6lmR8lVUy5MhOYYsWbgrXLSP0alSOYf6JBUQc23LHwLe6OKe+OQHjfKIx+LQA5f57EzewyPl3TNvrLXy8ql9n8vA9JJZyNNB4BTBjemDoKA0fGYUSYLW4ePoMUhQxtXtc2j6qbSROTdTcthQy6uvJ03ONNbBhnh72/XlG6+Hyi/onPF3RB+g8HcZPbJnAc/rs6DA92nsCDMnP49Zsj2q7K2YFtWo/EglWLER/RFb2GDECzoly4tDDD2R2JeMQ9qKqacllqaoo1aAoOeM1gGXHX6GqRzHD+iQaFYE1vGhtuEHq3OYl5Y8ZhQtxozD/qgYkzR+CFihpK0zaqTWu8aPUtZkyMx5ixC3HMejBGD/BUpug3k8rg6B+M4I6dKqbmLqoayJBBV4VmnrJ//wPXWnRCiDUXTI4I7eCGjKzm6BSiqsV9O3eEw7lTOMO92pA3M8quypi1wZhZw2G2cwZixk7A2PErkBzUQ6NprGXK5aihKVbQFCwPFFFGKsTkn2hYiG7e36u2DTcNh7f/gpQymbJZmvTNLpxt2g3dVHHLYsg2ehcn9lxGPnu80tyzOMC2KZs01aNHrcACAeGxiImtnPq24pvZhgy6SqrkKfMEztxpg5BQdh9WIejQ9Cw2fXcLbTt1gIxxQmgnL1z44w+lyMFou2rLl9DF4ii2/ngXCm774jv4bvfvUG87aZlyOWpqihUyBYsqIx4R+ScaFqKDvvo23ExkqPX9oEhBRrYzXNz5eYO20SIUqt1Befn5kMsNvZIrxtkNMzFr9qyK6ePj/E4MGHRVaOZJJktD4h+PENSpExoFB6P5lTM48vtZpLXrhBa2XdDJ7y+c/F21f6Ptqq5OcMrMwGO1ClSRlgENNyO7sYYpl0e5SN+z0gAGTcEGy4hHTP6JBoXooK++DdcNnk3U7szGXvB0zEBaKj9vAtiQ4n+JQIRBVxd3E/9AbsdgjOjUFrfO/IGix6dwrrA9wgaHoOX1P3Ayj1/xRSPtqpwp1c0TTdXyY+HpAfXXo1qmXI6ammJZ9JqCjSkjEfknGhaCQW8aG64TekQNwQvmDFsz2aH92BFod/c4jpko6A2ZSbUQYdDVya1EnFH0wbAe6Tj3R46y+Xz6vCUGDO2I26dOIKe8KpcbaVe9fhiJBd0RHRWoyo9VC8QMDWU7KJVUNeUqqaEplkOvKdiYMhKRf6JhIRj0prHhXsXBC62wcONmfPXNV/h7xzv4/x/tNNlbXUNm0qqINehWhQuQxDP5sEw7hz/SVcuunD6PYstknD6h1n8x0q7KvQPY9OFmPH15JTZtZvPz2QzYH90Hvs5VocOUawpTLIdOU7ARZSQq/0SDolYdeYxZHyzZ3R/nRs/CT0XOcLUuRFpGvk57aE0wZCbVBVcL18SgK0T17Kpy2Lm5Qp7zGNnFmvnh0tRNubVhitWFMWUklH+iYSFY05uS0sInSM0sMHnAc8hkDIoLi43aN7dqcVaayQOeg8tPYVaK6IDn4F6sPU1P1RkwXNrF7T9AFjEI/twHQD4D0dfyF2w/I/Bfk7LIykpr5FU3poyE8k80LGq3ppe1R8z8jrj1zy9xssD0wU4QhPGQApsgJEadNe8JgmgYUNAThMSgoCcIiUFBTxASg4KeICQGBT1BSAwKeoKQGGTDJQiJYdbOpyv/UzycDXfa6ghETQ+FrWPlyLu6hIE/esVEoEVj474t4my5wZHDEepu2m+SxOSHM9ouTIhRfUrLwzDW8O/yKkaMnYTJ46LRP8QLFtxH7yZCdb5R6OZl2vM1Bsa5I4aEaw41ZHxGYMWSwfAw4bkaA2f0HT9vKnrruQ84o++A4V3hWU/5q00ang1XLGZskEX3Q2v9I0f1wNlyh6FzhbnHRBjIDzcgRcNoyy1r3BzDFq/Dh5P7ItAOKLMJQN93/oNP3o+AB/sYqQ667cCjEMYbdrTTaw/GzBfBoexDzKEdXgl7ATK7Vuja2lGVSEbfesPoPn1t2HArLbZQmWerGFXNGjvCy8tZw4SrDmOuSle30YpBbukCn6bOGscvR5fNthwugK3dvOHlVGmOrQq32NLOGc7W/E1dxWjLjcQLjJqJWIfDmD9lFhLWfoJP1y3HO28ux4VmUzGtf2W5ijXr6rcDqxBKLz+nJuwx1M9J4zjWbvC0q7w2ZpZu8Pawh7m+2pA9/1b95mL1pGBYvxCJlQkT0dnLQXkPkNG3/mgQNtxyqypHy/h1+EfwbXz/R6ryZm8xZD4+XBSP3qG9MHzUK/BKO4FT9wvZq+uP3tEtICvqjDemRqH/sDiMerkJHp04gXuCg3s4W24v2Be54fUZf0NE+CDEjuwMy5t/4EIqJ76Q67XZcr44S79+mJXwD7w5sAdeHh6L/m0ZXE38C+llAWx+ApGyU3Uurt1nYPXCV1By5jckPSnVNtrKumDC/DAkrVmGvQ8rb3pZ8SNcf1AEF4scXLyRBd/X3hNt1r3fZoagHTi7h7Y9+HZx+Tktw+T+Yeg5NBoD2ihw5cQVZJax+VReo3g0l7+MKdNHYVBMDLpb3kVG0AysmD4M/UbEYECrLPz+23Xt/9iiMANp+dZoExYGPy8bPEn8Flv3nEcGPziQjL71g2BNXzc2XAEswzF6vA+Oz4vFxDcnIH7Zb7Dq0AGuFdsGoq3195g5cTzGxL2D/xX0xpghKtGjMA7o1kmBtX+Lw4T4WEz5Ihd9Z09AqCW7XwGbLSNrhug58XA+NA/j2POJG/0uDtq+jukjA/j9qnDu8jZWTPLAL0sXYdct1R2uZbR194WPxQ1cTlLwCyrJPPc9Nh68hTKLQKPMuvrtwCp0pTOyALw+Zzwc989B3Di2jEfPwI8WUZjJPsAqaYuOdtvx9thYjJ7zC6yGL8Akx+2YGh+HuDc24HGnKAzQVewufRDT3wb71v+Euye+wvr77RA7NKiytUdG33pBdPO+9my4AhQl41GGPVr27I5AJwuU3PgOq9b9hvSKY9/FsZ/+VP7XTkzBDez9/TY8mnrrbXJXUoYLP21GEtsi4MaBPzqwGQfzuiLsRfa0hGy2gb3Rw+4Ytnx7Q2mmZQpvYtOcKEzfcke1WxaH4ClYPuUF/LpsEXberBzvrmW0dbCDbX4e8gSG3Btt1q0OgX3Q0+kCDp4ogJO7OzycinHy6J9wb98RLhXleBdHfjyLXLZLUpR0Gn/lZOHc4ZPIZa+pIjUR5++4wNWDX1UNWeZerFm6AYlpeSjMy0XST2uwZOPFyjH+ZPStF0QHfe3ZcPUjQxI2r9qChwFRWPTZNnz1z5kY0d5VLairmHLz8iEzMxehycxHhkaXJAVpmdZwdrVi+3UCNlvOEpuRjlS1Z4qsTIGSsvIFLTEkrgvsLM1gVlqlBmd3oGG0fZCMFFs2yGz4eR0YbdatDtw5WbRB1KJlWLpUNS0Z9gLSFRZw5lcBe/uzMctTxp6HAsUVzzMFStmKWKjMZXe2Y+7a4/ycJsoiMXzBdEJG3+ohOuhrxYZbVgpFmS0cHFRJHE72dvwvFblXduPf86cgdlQ8lh+yxqD3xiG0xv8pnQ3cNaLNm21iPmUfTuyDQMhmm5qBDFdPeKuVmszcCraW5S9+7mHHwr9h6Q9yjJo3BR2tK+8iLaNt/p+4dLsFIvprVnNcvzT4rfVY/1YnyNsaadblYR8L/C/daKRzNtvco1gzeRLb5J9cOc3dguuVT5fagYy+9YJg0Ne6DZe5i/sPvdFj5MvwtbOHX9gEDAmuPAbjMxjLP56Hvtz/TlOawz6os1Fm4whTfBrwYmQ8OthxeTKHX+Ro9G50Esf/ZBOEbLbXOUtsGKKiW8KaTZRZtkDcPzcjYVh5768AT3OKcHXTcnzyoCvenfMaPPk35FWNtjJZMnZ8cQCOUQvwbv82cLVkQ9HcFe2Gvo+3ez3Fvj3nUGpupFmXxZAdWCv9+kEcKeiF0SPYVgR7EMaMvV7T/oWPxryo8ZeWWoGMvvWCYNDXtg1XJruDXV/sRl7wO1j79af4+yu5OHKMV81y3DuKPeftMerfm/DVxm/w9bttceXjz7G/3DFfbR7jALuTcR9vxVebt2HNCHP8uGo9zrBNZyGbrYy5iS0ffIq0sKX4asvX2LwlAT3SN+Lf2++qVuCRIQ37PlyFE15/w/tjWqk+ttFhtC06/zFmrzgCm8gF+HTb99i14wu8H8Fgz/JF2Hab3cZIsy6HITtw1XRZ2U1s/uAzpPdYhg2bN2LTprUY3eQ6du+7UiO/nhjI6Fs/NAgbLvf3UevGZSgo0t16YGAJF7YjVpiegXzuz0gGYMxfwbJd09Cp6nEyfmaDcC0uld8Y5vZwY9twmY+zlS9wyjFks+ViuDGXXpKONKE3cWpwzXZ1o21V5NbObA8+Gxn5mvurnllX2A6sL93czhX27DllFvILahEy+tYfdRb0u7Ord9GqA3dTm1uY62jGlEFRogBTzRuopjAuA7FsrgO+nLOp4qs8qcJ4j8SqKQzWzP0WKfV0PaQK2XAJQmKQDZcgJIbgizyCIJ4/KOgJQmJQ0BOExKCgJwiJQUFPEJIC+D8mw6eg7YznuwAAAABJRU5ErkJggg==;" parent="4rIS1Nqq_IUm1r-qYgcu-96" vertex="1">
          <mxGeometry y="175" width="210" height="205.02" as="geometry" />
        </mxCell>
        <mxCell id="4rIS1Nqq_IUm1r-qYgcu-141" value="Inventory" style="swimlane;fontStyle=3;align=center;verticalAlign=top;childLayout=stackLayout;horizontal=1;startSize=26;horizontalStack=0;resizeParent=1;resizeLast=0;collapsible=1;marginBottom=0;rounded=0;shadow=0;strokeWidth=1;aspect=fixed;" parent="WIyWlLk6GJQsqaUBKTNV-1" vertex="1">
          <mxGeometry x="-30" y="390" width="258.4" height="370" as="geometry">
            <mxRectangle x="-20" y="350" width="160" height="26" as="alternateBounds" />
          </mxGeometry>
        </mxCell>
        <mxCell id="4rIS1Nqq_IUm1r-qYgcu-150" value="" style="line;strokeWidth=1;fillColor=none;align=left;verticalAlign=middle;spacingTop=-1;spacingLeft=3;spacingRight=3;rotatable=0;labelPosition=right;points=[];portConstraint=eastwest;strokeColor=inherit;" parent="4rIS1Nqq_IUm1r-qYgcu-141" vertex="1">
          <mxGeometry y="26" width="258.4" height="8" as="geometry" />
        </mxCell>
        <mxCell id="4rIS1Nqq_IUm1r-qYgcu-146" value="" style="shape=image;verticalLabelPosition=bottom;labelBackgroundColor=default;verticalAlign=top;aspect=fixed;imageAspect=0;image=data:image/png,iVBORw0KGgoAAAANSUhEUgAAAMYAAAAfCAYAAAC8qrK6AAAAAXNSR0IArs4c6QAAAARnQU1BAACxjwv8YQUAAAAJcEhZcwAADsMAAA7DAcdvqGQAAAOoSURBVHhe7Zw/SyNBGMafFa3sJQtaBNLaWJnANcJ9gYQIJtVx30DsjBaadOI3kKsS4SS5DyCkOXCtbGwPUpywwd7KP3vzzs6anBk3a0wuOXx+YdmZ3TfvDrPzzjvPsokTKBBDt9tFKpUyNTsPDw96Pz8/r/evMW47ge0bhO2z8xa7OVMmhPTBwCDEAgODEAsMDEIsOPf397Hi+/b2FktLS6ZmZxLiR0gizti+Qdg+O2+xGxoYCwsLpkRGRfWxKdmZxI0VZnngCbPcvqGPax3HwRATEkOS/pvEjRWSDDw+rh1E7KgxCLHAwCDEAgODEAv/PDC8Q0evu//eavDM+ZG5rL3Lj7SrcNo1NfLRmU7GOLjQgjTa/MYVcofvDg1CxsZMLKVS6TXguoOu+jQ21cy9WdCZpHYpZ8NjUXYJjxluGihEx8/NMUGyx2ZDfTOke6r89QVef9YSf3I+tw+0Si6zBtHMRGB45xVgNY3ooVxrdUdnkt11GcQuyqjDl+ziVVHJFtC4ESsPtZUy0PC17QaUjwToIIDJWL/ruMrW0Nlq4uIAyCtfza34R4PkYzCdwNjPPc/YsuWu1cDfy5qTaoBm0qbURecaqG6XwqBZ/4p6sYXmTzWr33RwhSp2zEDOfqkjr0txdNH+0UL1s7nWcgnNYBe9KxMS4vi+H8jglBnUhuu6r54bBVnG6Bm7LxB6yLLJRWc7zBY6Kzg5tYvq4fePMmpmT5/AUS4uooEty6qVDnakLkup4zT872FASZZwf6kstIcBfxHPfsecMaRvVR+bmp2npye9n5uLn6dsdi/vndQfHx91ObKLu793d3dYXFw0NTsfsn3qYCzK1pTGg1qyBEp8m9pL/KBeRFD1TPWVulryBGoZFORRDZ499de9aoBiXVmH9K750l8PsdF+x0yS/pPXcmQbxrjtBJkYhzHu6ya1E6bVvvgQmzoppFeByrER0pcnKJ/lUfikZvXlDRSKFRwZsex9K6OlS4azJtpGi7SVsA4x/s6NENfiPdIshPSY8cBQ2mHPV9K7DFelOCdbQdVrorQsZ1IoHdeBkqvT31GmrhSHYX1XiekWyiuiYdpIN3rqQ/u7NhpHifc14y+dyfOpFHmGLxFOmCT9N4mX4IRZfklPmOX2zXzGIGQaMDAIscDAIMQCA4MQC4l+2krxPToivlUfm5qdSYhHIYm45U9bBxG7RBlDP9rkNtJG/k/4F519sH12PmL7qDEIscDAIMQCA4OQAYA//b5kOoD1c7MAAAAASUVORK5CYII=;" parent="4rIS1Nqq_IUm1r-qYgcu-141" vertex="1">
          <mxGeometry y="34" width="258.4" height="29.59" as="geometry" />
        </mxCell>
        <mxCell id="4rIS1Nqq_IUm1r-qYgcu-148" value="" style="shape=image;verticalLabelPosition=bottom;labelBackgroundColor=default;verticalAlign=top;aspect=fixed;imageAspect=0;image=data:image/png,iVBORw0KGgoAAAANSUhEUgAAAUkAAAAeCAYAAAChduxTAAAAAXNSR0IArs4c6QAAAARnQU1BAACxjwv8YQUAAAAJcEhZcwAADsMAAA7DAcdvqGQAAA8uSURBVHhe7Z0LVFTV+sB/hwGFgQEGEBAB0TRN852Vpll6NUstUxNFEBXTupWmJZnZzUf5yEdZlPmgFAXULLK6ld7SUit7mXa9WYr+Rf9G8kpF3jDnnjNz0AGGmUFYZOvu31p7uc/ZZ+/v29/+9rf3echIHTt1lbkGkWU/ut49gN79htH+yHxmbk6nQpK0UoFAIGgcXLR/rz10wbS9MYzSb15hcaoIkAKB4M/hmt1JCgQCwbXAtbuTFAgEgmsAESQFAoHADiJICgQCgR1EkBQIBAI7iCApEAgEdhBBUiAQCOwggqRAIBDYQQRJgUAgsIPdINnNz8grt9xkTmreGWSvnkya8yh3Bjr/jbrOvztDxoyld+if9127bOjMkJG3Eiz/db6t/zN0/ivaqb40dp+vZg5dLbJspMewKKKiLGnsyKHc2bMVBhpW9rXqN7JfN4b3a6Ud2abWIOnpqmN6hxtYduRnc1Lz6jmHyBWUl5VR7oQtZNmD6+6azsur4hn/wGhuC9cKGphWI+bz/Oi22lEtGLswbGQvWmiHfwn+DJ3/inayQ2P7hlPy6jCH6k8A3e8bw+1tjRh9jfiHdeauKUtZszSSNi4NqEBj29ABsktLevQMwc2nM4N6hyMZ2nPrDb5aaVVqDZKhek9O5udzpqDQnNS8es4hl46QlpjKd9lqEGyCwc+bJsqqJDX1IyTY15y/TMcYZtwD789dyM5c7Vw9cGnqS0iIXxUZrnojQSEtiWjRHH9FF3erMhk3jCGhBHo4EfytqOyXdVs6D1/8tHYc9ltDlnXom7Ug2KuqfOv6Op8wIpq5ayWOdba0GUpz3ya4WK3adtuspU4ldbVTFVn6ZgQbrtRzcW9GaJA3rtXkyLIrPsEtCVV0qMS6HVevYMKCDOic2InIsoSLVPW6xvKNSpyVZ3Nc6jKHNKz1lSV3fIx6p2xloYzjnyTw2uuvkfDyIp6aOpfPfccRM1DZTzr0m5r+W0ltNqxss7b5U0mlX4YY3S/7ZW1j5lLXP+1g8KP94NmsmNoDffgwli6ezM0hPjZtZvP/bnfw9eHhdtcTrPcgI/+S+VxLgxe/FxWx+pdj/Hz+gvmcLWSX/szfcQ8/Rj/Be/kDlPxdnE0u4KYBEXj5B+J6ZgdLZq/lxyIJ2d0LQ2k++RXXEbduBf4bhrPsq5q9leVWjJj3CK33LWXFbsVzqqFOsOuHz2H2uA7IuQW464s4sHYuCV+e58aYFcy4uw0BUh6Z53/m7Vkv8tklCc8bHuCp+DG0l/6g0NXETx8d4fqhOtaNXcn3tK4ir7p86z7uuGDRt/2DiTzt9gqxrx/Wymvvt4p7q8FMj5/ETfp8CpQJVXF0K8uXb+VogWIXrf2cNOgzOITM9+czY/OvdnX+QZJwjxjMtPgJdPe4RKGHNxX/SVEGP4308trbtFdHxZFMW1T2P3OriV6DwtD7ePBb2oskVzzAo38LVFZvX0p/fJ3Z8z4mE1ciBj/JrNibCSi+gMnHQN7ul3g24UvydKr/DOT0hiL63N8Kk8kbn6LvWL9oBTszyjRpV1CDo2/7gUSOG4rug8dY/Z3S78b2jTrK+7RQ7WPVcXk8pYX5nDNzSMWrw2jiZ0Ve1vfI+4doObwpG+yMUSWy3JYpiUvwXjeCFd9cubbXk9uZ9MccJr8VWkM/s9/Y8V8VuzY0j2vt80fF4pcT6eFZSJmnDyVHUnlx8TbcRq+sacN8VwbFJ9Azcwsp73zBqSJzE3aRZTea9xzOlMlj6Na8lPRPElmz+TPS82sGSZs7yb5BgbTzURzSzY3OfkZzUvPtvL3NZXXjBm70eJsZkycyPvYf7NffR/SQYHOJVHyJSyb7g2ihgtLiEkrKTdpxNdz7ET0pjC/njGPyw3FMXPg5Hl27EqCsCkc2PcGyPTmc3/cyDz28zDwJZJcOjH9iJC7vziAqNo7YSYs426mv1a1AdXkO5Nuk9n7LLm2IUgKT8bOniRk/idioR9lqGsZTcTfR5PJK1oY2uq1MjxlrdkpHOstSa8YoTuv7aTwxExQbRM/gA7dIZo61vi2p1qaDOo7tZI+OdDNs47HYcUTHf4LHyGeZ6ruNRyfGEDNlA1ndIxnSTrlMdx09b3Hn26WTiJo4kZi4RHLvjGFoS0sr0Ik7O3zDnPETiIuJZu6+ICbPHEW41YqvZg1t+hM3by1rnh2C99FtfPhvrbCxfaOO8ixUHZea2POljsQ+OQIp7Yq+p7vdQYS59OqQCadtqyZkZZ7TzlT3Rfv+Wz+/UX35OsYqAdJvzxwmKOMeEz2L3V5jmP5Aa5s2lKQKDqS9TWbEGBYlvsZTUX0Id68Z7Krg35+oezzZlfghGV9tJPFMZ8bd38nmTtLh2+1vc3LN6erJ4KuPf6ZQWdEq8g/ymXIP0bxFmFbmHJJ0mn8ufYaEvbXoUXKWzFxv2t1+G22NbpSlb2fZa5+TU9sq2q4Pt7jtY8sHGZQr10ilp9i+4wCVC1B1eQ7l28ROv9vcQR/DV6S+k06xKt+Uyc5N/6Lktn50sVyhcIr9ad9yrkTrgwOdaduf242H2f1VEcbAQIKMpXyz798EdumG/+WBr9amozqOZNolg70fHCRf2d2V/PI9/7l4nh+/+IZ8ZVEsP/c1h075ExCk2NZ0jO0L5rPx0EWa+ofTurWXMp6hhF5+lp7NF9s+4XelniQV8UtqGgdb9KKXJUbgGdGPCXPf4I1n7sbzp7U8Pmkay1P3c6ZY62Nj+0Zd5ZmpNi41sONL7fvQU7ePrTuu6PtO2gEKLaVO4kr47ePML25iYqcye+UihsjvkbrrvFZeTT9H/lsvv1Foeyd9DftJeTudIqW+XHyCzfGRTE85pV1Qk/z03bz1/MNMnr2FMy1G8fzaV5k1+laaN7EdLKW8naxcsIGvswsoLsjnlw9XMj/pJ5t/ktFhkEw++X/mdPWUUGxlnYLCQnQ6V+2oYZD4heRlKfzWOpLn1m1l4/KZjOoSYPP5mpkAI8a8XLKsisuzc6n9IcLVYKffQf74Z2eRab0x/e0cWfpmBOq1Y8ops76jdKSz2qZbByKfW8iCBZY0f0Q4OeVu+GmX1GjTUZ162akIxfc0TMpur5zSUu1Q0aNC6bvqjjK+3BIzl5Xrk1i9+EkmD2uDvlQNiJYrIY9c6ycs5b+Te8EP5a5TaVOi070PMqJrCXvfXMX6d7/ld6WuNY3tG3WWZ6bauNTAji/5+2L8I09ZSq5QnpvHRS3vHBJNPAx4Gwzodfn8+s/lTJueyBHtkUsN/Rz5b33nl9p+bg7nrOpLJkUHkz0bWig8rQTn1a+SfLgpvSMnMtD+i2ukU9uYnfCldmQbh0Fycfeu5nStk390B6vmPsK40RN5YY+ee5+aQE+rWKxMOy2nkJVHXrNgWlj13i04COc+clIwVVBu8sLHRztWMHobtJwT/J5DTrMgQqyt3yKYwMJssmrbAjjSWS3P38fKh6YqtyEPXUmzUzhuY3U046hOfe3kDDeO5dH7PNm/YDITpk4nft5b/FBlNjUjuLmV/k1DCPbNJVu5E5Qkma9XxfHIiq/xGbmE9a/OIbpfazytXgioNKpvKNRJXn3JzCIrKIxWVu3rW4ZaLYzOUEb6TmU3vmYNa95M4b3PDnGuwo6OjvzXkQ0dzZ9zueQGBBNqVV9y9cDL/cqLHVs21Pm2Z1DcPN5Y+xwDSj7iuSl/J+nX+tvaupuXKamo0HKKwV1dzakS67LGQpZ96DRsHAPbXHmzZo0cdh8vrJ7DQH/FiBUXlUXtAiZPX3ybWsqLiorxadWWoMpPGo5/wddFtzE2si0eygove1xP1P09cbOU1pBXQ76cwZnfQun7wABaGryJ6B3H8B6aMGdI38Pei72Iimxnka8LZej4v9Fk7x4OaZfUwIHOHN/N3qI7iB6l7MTUchcjfae9zEvjb6z9LaejOo5kNgQ6HS5lBeT9UaLYGXy7Duf2Kqu/olPkcMJdFfmygS6xo+ic8SX7tcdlklTC/x/YwtLpDzLn7dOEjV5E4uq5DAqz9LmxfaPO8urL8V3sOnszE2cOpVN4CC27DOOx+zpWWSa8I3pwU2uriFRfHPmvI79xNH+Oq+33JnJsO7NfSu7XE7M8mcUjLE81q9tQ9Zv2o15g/dpnGWw4wprH44hP2MFPuQ0Tq2wGybSMM6w7ls6mEyerJPWcWtboSBH0GzWSYTc3105UQ9lif3zIm9GrNrMxKZVNszpydPV6Pi3Qine9wxdN7uX1tBXc768Y3XSMzS8mc2nAUjYnbyJl3Qy89+3itOXymvKqHUvSKdLe3EFBj8dJ2LSWZwbls3d/jrnMGST5JKlL1nOu9wI2pSryt7zEveXvsvjNg5TVsutzpLNkOkHyknXk9F3IhuQkNm9OILr5cXbsOlrrT184quPQTg3B4e1sONiSx5K2sCHxTZYOL+PYSa3MzK/sPtyefyQlszF1I890O8UbL71LZrU+qc8rM/Yls+iRSTyz7QQVlV8SNbJv1FVefZGks2xfOI9PTX2YMncB8WNac3DbTiq9Uf2Mpmf0c0zo3XBB0pH/OvRVB/NHkk+QsmQt2Ur7G1M2kZyymL45SazalmEur2lDCbdLanCcxMyXt/NDlt1nF3XmL/PzDbKLDteKcru/dSPjjn+gnuKcXAqrvTVXn1819XCjvKgEk9aG6kCGZgHoLmZxobSqGarLsyVf/Q5M39REUcnVrVjqCtjU2Ayv4hzyip0bBns6V+JqCMC7TG1TO+EE9urYkim7DmJh2jS6VxsPOfcjnh6fwBE741QddWw8jEH4VGRzLv+KLa0/tfqwxI8AfTHZuYWXx68uNL5v1E1efXDR63EvKDC/2FGROz9C8rQy5set4RihjH9tOT7rxpBwuP6yrHHkv4581dH8sbSv+IXil9kFVa9paBvaQ/zGjeCqUJ3U1c3Vxq2IifKycuQGcFzrIFn5PZ2gKrIcxIgXX+KO00kk/esk5SGd6H//aDoeXcTU1Yco1/VjzsZb2RO7lAPVgrXAOXSBQcHztLxA4DRqDJRNJkw1krLmNtjK7k3IdTrO7DvE2ctvWgXWSFIBv/5wAs8u/Rk0sB89Irz54/tNvJr0Pfnqyw23cgqO/cSPmfkNsnD9LyJ2kgKBQGAHmy9uBAKBQGBBBEmBQCCwgwiSAoFAYAcRJAUCgcAOIkgKBAJBrcB/AZMvEJrjj1hTAAAAAElFTkSuQmCC;" parent="4rIS1Nqq_IUm1r-qYgcu-141" vertex="1">
          <mxGeometry y="63.59" width="258.4" height="30" as="geometry" />
        </mxCell>
        <mxCell id="4rIS1Nqq_IUm1r-qYgcu-143" value="" style="line;html=1;strokeWidth=1;align=left;verticalAlign=middle;spacingTop=-1;spacingLeft=3;spacingRight=3;rotatable=0;labelPosition=right;points=[];portConstraint=eastwest;" parent="4rIS1Nqq_IUm1r-qYgcu-141" vertex="1">
          <mxGeometry y="93.59" width="258.4" height="8" as="geometry" />
        </mxCell>
        <mxCell id="4rIS1Nqq_IUm1r-qYgcu-151" value="" style="shape=image;verticalLabelPosition=bottom;labelBackgroundColor=default;verticalAlign=top;aspect=fixed;imageAspect=0;image=data:image/png,iVBORw0KGgoAAAANSUhEUgAAARIAAAC2CAYAAAAVzQJvAAAAAXNSR0IArs4c6QAAAARnQU1BAACxjwv8YQUAAAAJcEhZcwAADsMAAA7DAcdvqGQAAC2jSURBVHhe7Z0JXBTl/8c/w4IccoOACKIIat7mlSIepaWpeYugqKh/tbTMC/2Z5fUrMo/yl2Wamicm2c+0+pUGKopaZnikmQfmkQJyiCI37PxndmdhF3Z3ZncWD/q+X699MdfOPM/3mfnu8wy772Gat2zDgiAIQgZWwl+CIAizoURCEIRsKJEQBCEbSiQEQciGEglBELKhREIQhGxMTiTPD2uKN1b2Qtj0DnB0tRWWVoVl3dBuQBg6+/5z/rvMuvfBOzERaMiwYP2H4b3FA+HN0n/XiZqPSYmkxXP14B3ginULEnHtfCb6jWstrNGHJ54dOAJd/IXZx0jDIYvx7xHBwlz1wLIKtBg2GDaJ3+MvlgFufo/D7AAMb2MjbEEQNReTEkm9Rm74/cTfKCoowalD1+HHzUuBZWvByd0ZtcCCsXWHr4+ralqDwt4VHrV1LzjG1hkeTnawEj7R+QvVoY4f6rrWKl/GI7Zvawc3ePsGoEG9uvDgtrPTWqfeZz34OCqEJWq096lw8UeDOnbiZXTqjuHPZyDpSI56HVOApKO3EDqiD9yoV0LUcBRe3j6LhGkdPH0dMfz19mjXswHadg9QvRo84wH/YHfkZBYg685D/J1yDw+yCoR3VMYD7Qb2gm3yLhxP7YH5u6IQyHbBpGkj0H94JIZ1cURK4m9IK2Xg0D0am94MwMnvTiOHYVQXeMc3vsA7La/gm5OpsG3YF7NilmLKy13QbXA4+jUrxcXjF5Gt5D75Fd2N7rvZyHcx9fl6cPNrio4hAchNPIa/ihnYNeyD2THcun4h6D4kEgOaA1dOnUdmiWafE/GM/UuYMXMImpedwRG3CUbLyLYZgtdapuGrr5Nxj1vPU8wGoPeoRrgTl4RbUC8jiJqIwR5J4zY+CGrljYbNPMtfLh4O8PJzRttQ9Xjl1uVs1V9pPIMW9l9hxsQojBn7DpIcBmJ0Px/VmodHD+GURwh6BKlmuQu5Pbp3LEJSQjLKrBphZPR4uMZHI3LcBESNnoFvbcIwM1x7qGJ43+e3zcLyQ5nIOfoRpry6HAkPuSRgFYSI6HFwS/gXIseMx9iIadilHIC5E9qjVnnvIQhBil2YHhmOGdsv4WHSYZzy1F9GJZc43Ot6wyEtFXeE1Sr+TkWajQ/q1hHmCaKGImloc5NLGOeP/y3McQifuKZxA8d/+AP53HvLcpOR8GsG6tYTbqAUHcehE44I6d5ENWvTKRTt7yci/g/uog5+Ht3czuLg8QK4eXnB260Yvxz9HV6t28Kj/KI3sm99BPVAV6fj2Pn1VRRy72GUqdi/7ScUhXRHxV2f60jacxLpRUJdC49xZXTSX0YOv3o+yOESSYF2bEpuI/2eD3yfgPtEBFGdSEokJ35IwY87Lghz5lKEQq1RUF5+PhQKa9U0w5ThZEIS7EJ6oDFrjc5dOyAtMR7X+IvS2wMeNs0QtnAplixRvxYPqY/MUhu4q97NY3jfeuH3mXEXqUphnudOOu461IGXgzCPUpSUCJMcfBl/5cpor1PGn9RlVG/ADXeq3gtRLTIn7xLEU4SkRDL01WfxakwPYa56KDv7E5IQgp5tOqNr+9tIjL+pXnE3G9m5R7FqymRuaDKl4jUvFle0P/1F4PodwhRHWiYy63jDV7v2XI/CKz8Dd/OFeT2Uno1HEiOUsd3fOPzTLWENcPt2Gtx8fGCnnUxs6sLHLR2pFZsRRI3EYCIpKS4TpgDrWgrUdq74zoj2OkvBMJfxU2I+QqaNQZtrh5FwV1hx5SCOFPTA6GFBcOAuUtbKDaFvfIQPx7SAQk8PQB8FBYVwaRgMbyth+6uHcORBZ0SENYE9v0+FH/qP6YVaRw7hjHoLvTD4E/FHisrLeDBDWMGRlZqGAp96qCfMq6jnC+/SNKRq6kIQNRSDieTcsb/x/ZZzOLT7os4r/ssLSIj7Q9jKsqQcSESOtycuJhzEfaG3wShTsOP9z5EZuhSbd2zF9u1rMLruFew9cBFlEnskNw98jcRar+DTPSsx2IMFw17Dzvc3IL3LEmzbuQ2xX36IV0r/i5hNySgR2eeVhMPI9eHKePBQeRlVXPwdF50DEFg+NAIcGjWA2+ULEG6jEESN5akSG1k7ecK5JBPZhcICE2BZBrb2NigtKFL9l0W9DLB1qwPHQn6f0sLA+oThP6uD8fWYpTiiuRHLwf87uNVrazHs2iws3J/LzdvjxUUf45lvX8V/krVuthBEDUTSPZInhdJc85IID8OwKC4sLk8iPPxkcU6GpCTCsu5o3Wc4XpveD9i3E8cqlYO/GXsubh+YXq+oviIP//7obfcj4n4rFrYgiJoLqRYlwlo1w/CZfeBy9Qi+3/cr0vgvwxEEoYISCUEQsnmqhjYEQTyZUCIhCEI2lEgIgpANJRKCIGRDiYQgCNlQIiEIQjaUSAiCkA0lEoIgZGNyIpFqkZcCmeYfr2medeyA8fOnoaeX/uOzTq3Qb+hz8HlM5SOeHkxKJKZZ5KVApvnHappny1BaUoJSQ3nCrTUGDO2sq0YgCD2YlEjMtchLgUzzFcc0BelxqVoHPDyPPRt34lctrwoLG7j5+sHLvtK2BGGEarTIS4FM82KmeZZtiCGLFqCf4jRO/FVV3yYal8C+onWo/b8DuFTEoPYzw/H28kWI6vUcegzqh0ZFufBobIXkr08gVSgvQejDYI/E8hZ5KZBpviplKC4sQlGptmC2AqNxUQRLqIMa/tfNY2YNhdV/ZyBi7ASMHf8ebrcMpWENIQlJQxtzLfLunSZj+Yat2PjhXAx9xlm1LGjAbEzs6qqargqZ5ivDMDfx/bK3sOZIlrCkEsbiIqkOAk26opPNUXz57Q2U8tsWX8fuvT9DTn+T+OcgKZGYY5FnuS77gHE9kRO3EO/vzUHoWx9j2dy3MWNUc1jfyxW2qgyZ5k1FNC6idRDwdINbdhbuahWvNCML94VpgjCGpERinkX+Lvavmou18ddw5fA6zJr+PvZfOIs9/56Dz8+XCtuYBpnm9WMwLqbUgY9hHR/U09rWxscblrudTtRkDCYSuRZ5/j8SaVduqG92cpRlXcTB7/Yh/nymZGlzZf6JpnmWdUHLAaPQO8hOWFIVg3ExpQ5XEnGiIAThYcHqbe0bI2JwBzymf0wTTxkGE8njsMhL4R9nmmcaoPuwoRjQsa6wQD9642JCHRjlZWz/YAcevrAM23dw234+A85HD0Do2xCEUWqcarEmmuZZKwWsy0rN7smZUge+jE51PKF4cBf3i2vUqUFUIwZ7JE8rNdE0zyjLzE4iPKbUgS/jw8x0SiKESZD82YKQaZ74p0KJhCAI2dS4oQ1BEI8eSiQEQciGEglBELKhREIQhGwokRAEIRtKJARByIYSCUEQsqFEQhCEbAyqFg3BW+QHTGij0i7euJSF4kLxXwJbCt463/6VIejZviVattR6+TG4fiUNxTK+Ri4F9fEHozlScC1LV4Xg3PJlDA4uwvlbj97gwZvpF77TETcPnkOOuWITLXi7/ITZQ+B66Rdcz5O3P96UHzMrGOcP/Ym8am6fx0Hlc7JF4wDUcSxB1p17KLZAW2jgjf79BzRE7h+38PARxZF1b4vBHe3x5w21Y9gYJvVILG+RN05VsztvnR+JbsFucHPVernYw4iiyILwxx+F6fOmoJ297heC3Vr3w4iuAcLco4P/kZ2OmV4ESbZ8Mbu8KTxuU74I8p8eoHtOevi3wkuTlmHdsjAEaZQUlsCCRn+xOrNWAWjXwRc2Lq3wYpf6YJya4rlnDFkN1ZiUSMyxyGtbyVnGDi5uDjqOEP5C0Gd+N2x2L8GVH9fgk08/qXh9+YtKpqzP7K5BfRwRG7xDHfg4Vay3sqsDP29nWGuVC1Difq1OeP21EDjqLK8Ky1rDxScAflzdNJh+PMMxUlHJTK/BytYVvr7uorZ8vTHTsstrr9dn4NdgqJ1NMeVr6unrVmHA1yCl/YyVT2o8zKPinFzz0XuYO3kBDruOQmRvJ/3xFTBUJw2GjP6afWqXl3+agHuV7arGU1KdndzRtM88rJzcDg71B2BZzER09HUx6vYx+Fsb3iLfb1wrKKwrCufu7cAlkVLsj72Ay8lp8G/sblQA7dhsBKLnhKEpcw/51kqc33cGAYNssTl8FX7jLny7Bn3wRvQ4PGv/EPn2zii7EMsVeg+uljJoEbkSM/oGwZPJRmrOH/hqzgeIz22MSRvfh/PnQ7Dyl6qfvqzV81i892Vk7gG69vFF6r7FKikzb4OfHj0e7R1ykcedUGUXd2HFil24yHXb1e95Cam7lOj8oj8cuN7NnT0fYEfZcEzr5cVlZVcUn/4U8xb9gFSoj+8Stxq2YyajdN1rWHZUPZQJGP0JPqz3JYYsO6pqwAZ9ZmPO2I7wLLwPpYsTsg9+iLfXHEO24gXJx0sTiREP22Em4ibdx/yJG5CiSqbWaDxoPuaNagY2Kw92DgX4ef0CrDmWoz+m+Xx5dGP2Zmw91bLTo2fhm1x1eW/vyEP7FxrA0cML1rf24v1563G6QF0GsXZmG4zB+pW+2Do0BscMdPfV9YxCu9r5KKntgqLzO/FBTJzKbi+l/QyVz9R48OJvbdQW/6kIPLoMK7UtVQIsG6z3nOw8ezfG35uPiV/4VYmv2DnJwxv950aPLI/puf+dR+P+CnzOxfSU6hxSt8/e++rtm/7fRvzL5j8Y++lZ1byheNqMWCWhzjao22EQJk0cibZ1i3H1x41Ytz0BV3MNJxKDPRK5FnnWqjnGcuNsZk+Flfxm2x5ooFnPBBo1v+szu6th4NqwHdq1fbb8FeShnYl1ze7SbPDN0dYpDq+PHYXR0T/CfujbmOwah2lRkYictBl3nw1DP7VbWQV7PxH/+fQMmk+Zjp5ueoKraIQOnexwctl4RERFIXLCRmT1jET/8pGPtOOJxYinipnerjtGj/fHsfmjMPFV7j1LD8O+TRt4cnU1HFPdmFXFsIFfrJ1ViJjyWaYRwrmT3v3QfIwbMw6Ro+fgoONITB8eKLH9DJfPvHhoY9zirw8W9RHcsBbupqYLS0w7J+Ua/Y3FU1KdPZ5HxMu1cWDjd7hxfAs23mqFUYNbGu2RSBramGWRb9oVHRRHsWtvhZX86z0/o1wVKsn8rg8bBHYfhYhRFa/eTSuGDlXM7pJM6jdw5Ntk5LIMiv48hQsPcnA68RfkKhmUpp/Amese8PQWNhV4cGwNPj0ViP+b3ld1UmrD28Z2L1mMLWcewNajPgIDHYEiP/g1FDaQejwJMapipi+6jdQsZzTpFoJgNxuUXN2N5Z8cRqbRNqsUsyoYMfCLtTOPiCkfwT0R6pSE2K+uqurBFqZge3QYpsdel9x+hp8+YE48KhC1+KuwRv1u3LkYEYHIsZMxb9V76Md+g50HNMNNE89JuUZ/Y/GUAJO9H6uWbMaJjDwU5uXiz+9WYfHWc0adOJISiTkWeXi4wu1eNrQ7g6VZ2XggTEszv+ujGMmbZ2LW7Fnlr7XHtEOsa3aXZlIvABcvASXXtStFcblrqBRl3Hsrh5Af+59YuxrH/aIwo39dnfUsXNEpcgFWbdiKtTGzMXFAEByKuROifCOJx5MSI/5E0UpkvDN2x/JY3AkMw8LPd2HLipkY1tqz6r0VHSrFrApGDPxi7SygOryh85CvZ1Ym0rWKyCi5Mim5BZLaz8jTB8yKh6kwqGXvBGcnJzgocnHp+xV4Y/pGnBeGnyafk3KN/sbiaQLM9TjM44bjUpCUSMyyyKfexV1vfzTU+neKQ4BfxQUg0fzOXX7ClJmYaYOXAlN4Ghs+TECdMbPRv67WAVqEY9rA2khaMhHjJk9H9KIv8Js5/xWWECN9Zvrci3uxesFUjBoRhXcPOeCVuePQQasdZMdUG7F25hEz5adnIcvTB35aIWSs7eFoxw1ZLdB+1R+PElzd/xk+W7cO6zbF4puEM0gvM7JPsTqJGf2VZShVOsLFRZjncHN2EqY4jMVTwKLnAId2VXSQa5HHlQM4cLsjomb2R8v6vghoPQCvD2xecY9Ygvm9itndHMy0wUul4PwmfPijA3p30+q3KxSwKslD9r0i1Sexa5tB6FY+rDEBCTGqbKZn/Qfi3bXz0Zu/b1T2gPuguw9lbVe4Cs1nkZhqI9bOPCKmfFzh26gLwsKbqOrJ2DVG5IodiBnC1Upm+8mNhxSLv8mI1UnM6M/ewK07fggd/gICnJzRoMsEDGpXcX0ajSeHxc8BDoOJRK5FnmFuY/fSRYhXdsWkBUsQPTIQyXH7kalZL8H8Xtnsbg5ybPBSYJhS/LFlJb7+S+sLamd3Y3NyAF7f+iU2b9yEZYNKcPmasM4EJNnxK5vpbx7FD2ecMWL1dmzZuhPb5jTHxbUbEJ8nrLZATLURa2ceMVM+w6Yg9v31yODaaEvsNuyIjUFo5lasjrshv/3kxkOixd8UxOokZvRnmOvYs2kv8tq9iTXb1uOtF3NxJKki4sbiyWPpc4CnWlWLVg4OsMvLU90E42FbTcWON0qweMI6neGLMfO7PrO7OXCJ2WQbvBz4ctu7ecOlLAPpufK//WsoRvy/mrXN9BpY2MGDG3AXZmYhv5I71lIx1WCsnS/DQZIpn0fdRlzMuHpm5OnGTG77yYmHXIu/IcTqxLetMaM//z0TB1slCor0n1/G42nZc8Dkr8hLhWW9MfjdTzGxST4y7lvBq2UPRES8DPdzX2LbqTSwWoVXFuejwMDD9/jNykrLdLY3B9V+Cg0fx9LwxystfIg8C9nYDcWIN9+n/8Xi+TGtcT2+4ivyDEpRkFeAEu6EqYylYsoj1s5K/8GY0uUqNmz7XfSr3eo24hJSSdWYqdeZ335y4sFwV6QlYlUZsTqpnmqQnwcDeYKrkxKlZYbPL/X+jcTTQucAT7X2SBi3Nhg6+hV0aOiBWkX3cP3sD9gV9zPZ1WsY1M4EWeQJgpCNwZutBEEQUqFEQhCEbCiREAQhG0okBEHIhhIJQRCyoURCEIRsKJEQBCEbSiQEQcjmkVrkTTFhs2iInhHtUetyCjJL3ckerweyxxtGrC6Pw8pekzGpRyLbIm+KCduqIXqE98Ezql9vkz2+MvwPusgebwSxuljQyk6YmEjkWuT1oTFd6zWk60D2eB1qkD3eELwZ3aO2biJibJ3h4VRhRTfUvtp10SB2LhLmU60WeWMmbDGLvMYIrzKZ55A9viba48UM7bVfeAdbh93ErClf4Lqqjgp0mrkd00qWY9zHv6FWYF+R9q0wrYudi4Q8DPZI5FvkjZuwpRjSdSF7fE2zx0PE0P7w6CGc8ghBjyBhgaI9uncsQlJCMsoUwRLaV41cKzshjqShzU1zLPJiJmyTLfJkj69p9nhRQ3vRcRw64YiQ7upsbtMpFO25ZB7Pq9Ykta+AXCs7IYqkRGKWRV7MhC3FkK4D2eNrnD1eBIYpw8mEJNiF9EBjbujWuWsHpCXG4xofUEntKyDXyk6IIimRmGWRFzNhS7TImw3Z4598e7wEys7+hCSEoGebzuja/jYS4wVzqSntK3YuErLRbgYd5FvkRUzYEgzpsiB7/BNvj5diaGeYy/gpMR8h08agzbXDSNDsy5T2FTsXCdkYTCSyLfJiJmwphnQZkD3+ybfHSzW0pxxIRI63Jy4mHMR9of6mtK/YuUjIp9pVi/y/7IyZsHmMWeTlwn+Akz1ezZNoj5draDelfaWci4R5VJtFXoOYCZvHmEVeLvz5SfZ4NapYPGH2eLmGdlWdJLavlHORMA+SPxNmQ/Z4QgMlEoIgZGPwZitBEIRUKJEQBCEbSiQEQciGEglBELKhREIQhGwokRAEIRtKJARByIYSCUEQsqk2i7wljeSWxNLm9epCba6vMOe3aByAOo4lyLpzD8UWLPejtqnzv3fxbNEbA18ORSs/G2T8dRsPhW/Cknn+6cWkHolJFnlLGsnNQJ81nT+JTTGvVyfiVnddc76Hfyu8NGkZ1i0LQ5ClVAA8FrSpSzHV27d7DSsXDUfjWoB7zzfx0VsvwZ3/5R0PmeefWkxKJCZZ5M0wkuszoGvgk4A+o7o+G7o+a7oKA+Z1zb593Srs5BrU64xb6E2tk8HyVaHCnL/mo/cwd/ICHHYdhcjeTnrrrcFQmTUYsqlr9qldHt7k7l5lu6rxklqnBs+2Ru2TW/Hu+i/w8YZEFD7TAoHCOjLPP70YHNrwFvnhr7dHu54N0LZ7gOrFD2f8g92Rk1nAdbEf4u+Ue3iQZcB8qeiO+bsmovb/DuDPkh7cdBQC2S6YNG0E+g+PxLAujkhJ/A1pvDFeZUBfgA8WRqFnhx4YOuJF+GYcx8lb6t/O80b1WTFLMeXlLug2OBz9mpXi4vGLyOa7xMJxnrF/CTNmDkHzsjO41WwGpj5fD25+TdExJAC5icfwVzG3bevBeK1lGr76Oln1GIuKff8br/YPxQtDR+Hl5iwunbiArDJGZaGfHfMupvYLQfchkRjQHLhy6jwySzTHNa9OzUZy+9RXPh080G5gL9gm78KJ2+p1DJuFWk2HoVutk9h3tkWVeu8/l2W8zBy8Tf3t5YsQ1es59BjUD42KcuHR2ArJX5/AHQXfTuo2uyR4XJtEfYJ/t/sL3/yarpo3FC/v4VLqxF2rTi0xrKcTzh28i44Tx6Lt399jwzG1S5WnmA1A71GNcCcuCbf0DOHU5vkF6Kc4jRN/VVXdOXSPxqY3A3Dyu9PI4fbJJ42Ob3yBd1pewTcnU2Eb2FekTSvqbyxWqTS00cFgj0SuRb4qho3kxgzo0mzzujZ0Q9b0yuZ1lmmE8OgouB+aj3FjxiFy9BwcdByJ6cMDIc1Cb16dDFvdjcOiPoIb1sLdVPVFbao5X65N3Vi8pNapIHEjtme9gMWbV2CEzT4sXJ1YIbDmIfP8U4mkoc1NcyzyVTBiJDdmQJdkmxezoaupYl4P7olQpyTEfnVVtYwtTMH26DBMj70u2UJvVp0kY4363UYhIiICkWMnY96q99CP/QY7D2iGZiaa8+Xa1I3FSwJ8c3l0GIAeAUUoKFYi7fSvuMZ1Oq2dfODjIjwRgMzzTyWSEolZFvkqGDaSGzWgS7LNi9nQBfiTX/uTh993VibStRYxSm5fSuG4opZyM+skGQa17J3g7OQEB0UuLn2/Am9M34jzwkOyqtRbrMxyberG4iWFOq9g7txQ3P18Fia98w1qhb2NV9u7IWTap/hX34ouiCpEpuRbLcg8/3iQlEjMssibiEEDugzbPPc5IkypqWJeT89ClqcP/LSiwFjbw9FOYRELvXyrewmu7v8Mn61bh3WbYvFNwhmklxl5j1iZxWzqyjKUKh3h4iLMc7g5OwlTHMbiJWC0Tk2eQXDmIcQmpKIw5Uv8++NLaD/zA0Q0L8LVS8KAk8zzTyXaIdVBtkXeBIwa0M20zeuzplc2r+MKbyLvgrDwJqp9M3aNEbliB2KGcFvItNA/cqs7j1iZxWzq7A3cuuOH0OEvIMDJGQ26TMCgdhXtbjReHKJ1unoVNzzbo3drV5Vi8d6Z/+EEP4yxuYBzfwrdBDLPP5UYTCRyLfImYcSAbq5tXq81vZJ5nWFTEPv+emR0WYItsduwIzYGoZlbsTruhkmWcr08Yqs7j1iZRc3+zHXs2bQXee3exJpt6/HWi7k4klThhTcWLx7ROqV9g48+S0GLuZuwY/M27Ny8AE2vbsH25Eb4v7l94QOWzPNPKU+UatGYAZ3HVNt8ZWs6/69AveZ1LgK2vPmd23dGnm5vS73OfAv9o7S6axArMx8HYzZ1/rsTDrZKFBiwJBuPl3idWFjD2cMFynuZyNOKCcvak3n+KeUf52xlPfpj6TwXfBG9/bF/u5XQhfUbjuVTWaya9xXSLJhYieqH5M8EQcjG4D0SgiAIqVAiIQhCNpRICIKQDSUSgiBkQ4mEIAjZUCIhCEI2lEgIgpANJRKCIGRDiYQgCNmYnEh4i/wbK3shbHoHOGp+ymoheIv3+PnT0NPL8l+2ZdEQPSJ6obEtqzOtgbfLvxMTgYYMt95/GN5bPBDe/I8yHgNiceBt5v2GPgefx1Q+gqiMSYnEJIu8OZhonpdiLS/Hikse4X3wDP/rc+1pDv6HWTp2ebKZE4RJmJRITLHIa1vOrR194O/tpOMP0WtBN8E8b8xazouXXXwC4Ocq6PvEqGSXJ5s5QZhGNVvkxyKgOART5wxD995hGN03EA9+/wUp95Xlxm5tC/qPF9RmdCnmeX0m9mtF1mjQJxrvLn0TYd2fQ68R4ehZ5zZOnLyJAqtA9AwPRtp/uX0XV0yrbOl67PJkMycI6RjskVjGIt8SPZv9gvljxmFC5GgsOOqNiTOHoX75p7yuBb0qhi3teq3likbo0MkOJ5eNR0RUFCInbERWz0j0D1C9xSCV7fIqyGZOEJKRNLQx3yKfgcS4H5GmZFTDhT937kFyvc7oLDyxQdz+bsTSrgfearV7yWJsOfMAth71ERjoCBT5wa+hsIEBqtjlechmThCSkZRIzLfIZyNLa5yP0jRk3XeHh5cwL2p/N2xp1wcLV3SKXIBVG7ZibcxsTBwQBIdiPokJGxiC20DHLi+gWiQ1Z1aCbObEPwlJicR8i3wd+NTVuhJtfeHjmoUMzfOdLACXJoQpjhbhmDawNpKWTMS4ydMRvegL/Cbhiqtil+chmzlBSMZgIrGMRd4NoWGDUN+a5T7dndB67DC0unEMSRZKJFWs5QoFrErykH2vSNWbcG0zCN1EhjU8VezyPGQzJwjJGEwklrHIX8LBs03xztYd2LJzC95qex2fffhfi/2noYq1/OxubE4OwOtbv8TmjZuwbFAJLl8TNjZGJbs8D9nMCUI61eZsZa2ex+K9L+P06Fn4rsgdng6FyMjKt6gtnaeqKZ6BPW84L8tAeq60nhP/r1ltuzzZzAnCNCTdI5FLWeE9pGcXWDyJ8DAMi+LC4vJ98/OFOWmSkwgPf2P0XNw+ML1eUX1FHv790dvuR8T9VixsoR9GWWZ2EuHh31qckyHpMRd8GR9mplMSIZ5Iqq9HwrRGxIK2uLbiC/xSYPkEQhDEkwM9joIgCNk8kqENQRA1G0okBEHIhhIJQRCyoURCEIRsKJEQBCEbSiQEQciGEglBELKhREIQhGxMTiSWsMhb2hb/JBngn2aq0+IvBWN2/MddNsI4JiUSi1nkTbTFG+OJM8CLYJL5/lFjwXYxC2N2/Op8wgAhG5MSiSkWeQ1Wtq7w9XXXMcDr2OJhCyd3d3jovFzhoHGMcKht636o61qr3MBejgwDvGa/vm4VZncN6nVVDe9idnsN+uptzHwvFc3xtd/LG+vdBbu8nPKJ2etZxg4ubg6qpwFIPY7RtuOQbMe30BMGiOrB4G9teIt8v3GtoLCuaGB3bwcuiZRif+wFXE5Og39jd4MCaP6REI0Hzce8Uc3AZuXBzqEAP69fgDXHcnQUA98o+2LJunEo/+xQ1IKjwwN8O2csPv+TgV2DPngjehyetX+IfHtnlF2IxbKYPbhaqv4hINthJuIm3cf8iRuQIvwSl20wButX+mLr0BgcM+BKVO83Cu1q56OktguKzu/EBzFxKmu7XcM+mB49Hu0dcpHHXXBlF3dhxYpduJjHCGV/Cbd35KH9Cw3g6OEF61t78f689ThdwGsMDNe7ReRKzOgbBE8mG6k5f+CrOR+opdVaqO30UxF4dBlWHtT2VKrRjt3e++r3Nv2/jfiXzX8w9tOzsspXed+OzUYgek4YmjL3kG+txPl9ZxAwyBabw1fhlOIFo8fhEWs73o4/N3pk+f7P/e88GvdX4HNu/79V+lW1zjmTa/zYUuJMWBaDPRLZFnm77hg93h/H5o/CxFcnIGrpYdi3aQPPSp9KTO6PWBgxEhHcKzx8PFYlZSPnl63470Xu5GECMZK7oF3joxE5jtvH6Bn41iYMM8MruqzmGOBZphHCuSTifmg+xo0Zh8jRc3DQcSSmDw/kTtggCYZ3w3Z7Y/XWa76vgnE7vTTMK582rFVzjJ09BMyeCnv9zbY90EBYr8bwccTaTr4d38QnDBDViqShjVkW+aLbSM1yRpNuIQh2s0HJ1d1Y/slhZBp5r8+L0ZjR6ixWr0xAFr9d8PPo5nYWB48XwM3LC95uxfjl6O/wat0WHsKJb44BHsE9EeqUhNivrqrexxamYHt0GKbHXpdoeDditzej3tqI2uklYYHyNe2KDoqj2LW3wl7/9Z6foauUNXIcsbaTbcc37QkDRPUiKZGYY5Fn8Cd2LI/FncAwLPx8F7asmIlhrT31jpN5rIMi8K/x7vjfsrX4TeMv4W3rNs0QtnAplixRvxYPqY/MUhu4q7dQJTWTDfD8frMyka71NkZZihIlt0CS4d2w3d7UelcPFiifhyvc7mVDe3BVmpWNB8K0GiOWf7G2k23HN+0JA0T1IimRmGuRz724F6sXTMWoEVF495ADXpk7Dh30tDVbuz2mznsFuVtjEHtFS23IG9Rzj2LVlMlcF3VKxWteLK5wCYTHLAN8ehayPH3gp1V7xtoejnYK0wzvBhCrt4753lSUZShVOsLFRZjncHN2EqakIaldUu/irrc/Gmotdwjwq0jgYoi13SOw48uKM2ESBhOJXIs86z8Q766dj94e3MVZ9oD7UL8PZW1XVP7qCYs66DNnFtpe/gQf7r8LK+5TRWGl4ArGJYYrB3GkoAdGDwuCA5coWCs3hL7xET4c06L8OcLmGOBxhbe4d0FYeBPVfhm7xohcsQMxQ7i9mGJ414NYvauY7yshaqdnb+DWHT+EDn8BAU7OaNBlAga1k/59HqntgisHcOB2R0TN7I+W9X0R0HoAXh/YXPr/P8Tarprt+GJxJiyLwUQi2yJ/8yh+OOOMEau3Y8vWndg2pzkurt2A+DxhvYZmQxDezgme3eZh67592Cu83uldixtupGDH+58jM3QpNu/Yiu3b12B03SvYe+BihSvVDAM8w6Yg9v31yOiyBFtit2FHbAxCM7diddwNkwzvehGpdxXzfWVE7PQMcx17Nu1FXrs3sWbberz1Yi6OJGUKayUgsV0Y5jZ2L12EeGVXTFqwBNEjA5Ectx9SjyTWdtVtxxeNM2FRql21yMIOHl4OKMzMQr7S/K6mtZMnnEt427qwQID/noI5Bnge/oPRljfOc/vNyNPtZanXSTO868NYvSub7ysjxU7Pf//CwVaJgiLpkmttpLSLlYMD7PLyVDc0edhWU7HjjRIsnrCufGgpBUNtx8O3X3XZ8cXiTFgOhZe3zyJhulpgUIqCvAKU8N86lYGyOB8FpcKMFrw1Pv0vFs+PaY3r8edwz28wpnS5ig3bfsdDkZOHX11WyF0oJVVPYPU6/ceUgrF6q/ZdWgbWQPkYvqsvVnYoUVpm/oUn1i4s643B736KiU3ykXHfCl4teyAi4mW4n/sS206liZZPG0Ntx6N6CkB+HszMh0YRizNhOUj+TBiEcWuDoaNfQYeGHqhVdA/Xz/6AXXE/qx4KTxDaUCIhCEI2Bm+2EgRBSIUSCUEQsqFEQhCEbCiREAQhG0okBEHIhhIJQRCyoURCEIRsKJEQBCEbkxOJVIv847B+s6wDGnZ6CcPGTsak0YPQq7WvltXs0WOJGGgb8i2BJdvlSTf2kxX/0WFSIjHJIl/J+l3dVm/WNghDFn2CD6b0RrATV7E6rTBwzmp8NOsF1LXQRShGlTrKjAH/gzYdQ74IkvZvSVP8E27sJyv+o8OkRGKSRV7L+m3M6m3IMq5tClc41IGPU4WE2squDvy8nWEtbM//yjM4bCZGuSRiwdRZiFmzDp99uATTX1+OS02nYlpfL2E74wZ2Dbwg2cUnAH5cmTSYZS4XiQF/bI/auhchY+sMDyfBal/JkK9BqqFeJ4Yu/mhQx06nTGJ10mDIJG+Ksd8QYm0itYxkxX+8VJ9FXsv6nfLKKr1Wb2OWcY0NPXWXEp1f9IeDiz3u7PkAO8qGY1ovL9i4uKL49KeYt+gHpDLPYc5Xr+Lhwgn47A/dn5HW7rEAm8PvYO6kjUhRmc+NGNi5k6RBn9mYM7YjPAvvQ+nihOyDH+LtNceQLWJN12cuj8+vOJ6+GPzcaSG2DruJWVO+wHWGV0Yq0GnmdkwrWY5xH/+Gso6zdAz5phrqNcfP3AN07eOL1H2L8WZsvfIyidnYeYyZ5HnTu5ixn6z4/wwrvsEeiWyLvBb6rN5SDPFAc7R1isPrY0dhdPSPsB/6Nia7xmFaVCQiJ23G3WfD0K8Jt5lXAPxtruKPP6v+Vv3h7xdxy8cPASIfECoUjdChkx1OLhuPiKgoRE7YiKyekegfIKyXYS7Xt/5h0mGc8gxBjyBhI0V7dO9YhKSEZJU/o4oh3yxDfRCCFLswPTIcM7ZfEpZpY8QEL8UkL2LsB1nxJfJ0W/ElDW3MssiLIcEQz5vCj3ybjFxu6FL05ylceJCD04m/IFfJoDT9BM5c94CnN7cZ13NwzM9DJTeRmod5yLdyhGNtYd4IvLVr95LF2HLmAWw96iMw0BEo8oNfQ2EDS5vLC4/h0AknhHTnsyFg0ykU7e8nIl5Qu1Ux5JtlqL+OpD0nkV5kaBsjdZJikhcx9pMVXypPtxVfUiIxxyIvihRDPNcMebnCJJRcN7YUxcXCLEpRxn3IqU6Xv28jzZFrXH3JIsAPvjk3cV1Xf64XFq7oFLkAqzZsxdqY2Zg4IAgOxdxJUX5OWtZczjBl+DUhCfYhPdCY66J37toBaYk/4ZrmgNxfbUO+eYb6UpQYFcUZqZMkkzwXN/7whvKURSAr/pOOpERirkW+MtwlKUxxSDDESyb/d5z/qzF6vazO4IxXHyz+Yg2imrmgba/n4HzlIlL4FWIG9hbhmDawNpKWTMS4ydMRvegL/Cb9TFChU0c9VF5fejYeSUwIerbpjK7t/sbhnyrU9/oM+dVqqK+MFJO8mLFfDLLiS8aibWthDCYSuRb5ylSxekswxEuFFxV/vSkBrmFvY87LzeDxYD8+3pGJ3vM/wZzQdGz8LEHVZRQ1sCsUsCrJQ/a9ItWnrGubQehWPqwRR8xcrm89/4kaf6QIIdPGoM21w9C+H1nZkC/XUG8yUkzyIsZ+suJbhifdim8wkci2yFeistVbkiHeBIrOrMXs946g9oC3sX7XXmyc1hLFZdawvf4LfhWehCVqYD+7G5uTA/D61i+xeeMmLBtUgsvXhHUSEDOXG1p/JeEwcn08cfHgIdzXrntlQ75cQ72JSDHJixn7yYpvGZ50K/4jVS0asnobs4ybg8LBDc7KHGQXByLi3TlokLAQMfHpwlquHEYM7HwZ7XmzfFkG0nNN73mJGuL1rGd9wvCf1cH4esxSHNG6Kcr/O1jbkK9BjqHeVIyZ5C/DQZKxn6z4lsHSbWtJqt0irw1fd31Wb2OWcXNgSwpRyO2PYe/hfMJ3SLqm+/FkzMDOF6208CHyzDwJDNVRg/Z6lnVHm779MSSsPzyPrsGG5Gyd91U25OcIY2Q5hnpTEDPJK/2lGfvJim8ZLNm2lobkz48R/rsHw2f2gcvVI/h+369PpJ29JpnkyYpffVAiIQhCNpL+/UsQBGEMSiQEQciGEglBELKhREIQhGwokRAEIRtKJARByIYSCUEQMgH+HxvLLeeyIWFsAAAAAElFTkSuQmCC;" parent="4rIS1Nqq_IUm1r-qYgcu-141" vertex="1">
          <mxGeometry y="101.59" width="258.4" height="268.41" as="geometry" />
        </mxCell>
        <mxCell id="4rIS1Nqq_IUm1r-qYgcu-160" value="main" style="swimlane;fontStyle=1;align=center;verticalAlign=top;childLayout=stackLayout;horizontal=1;startSize=26;horizontalStack=0;resizeParent=1;resizeLast=0;collapsible=1;marginBottom=0;rounded=0;shadow=0;strokeWidth=1;" parent="WIyWlLk6GJQsqaUBKTNV-1" vertex="1">
          <mxGeometry x="250" y="430" width="190" height="253" as="geometry">
            <mxRectangle x="340" y="380" width="170" height="26" as="alternateBounds" />
          </mxGeometry>
        </mxCell>
        <mxCell id="4rIS1Nqq_IUm1r-qYgcu-161" value="" style="line;strokeWidth=1;fillColor=none;align=left;verticalAlign=middle;spacingTop=-1;spacingLeft=3;spacingRight=3;rotatable=0;labelPosition=right;points=[];portConstraint=eastwest;strokeColor=inherit;" parent="4rIS1Nqq_IUm1r-qYgcu-160" vertex="1">
          <mxGeometry y="26" width="190" height="8" as="geometry" />
        </mxCell>
        <mxCell id="4rIS1Nqq_IUm1r-qYgcu-172" value="" style="shape=image;verticalLabelPosition=bottom;labelBackgroundColor=default;verticalAlign=top;aspect=fixed;imageAspect=0;image=data:image/png,iVBORw0KGgoAAAANSUhEUgAAAKYAAAAtCAYAAAAk/xBsAAAAAXNSR0IArs4c6QAAAARnQU1BAACxjwv8YQUAAAAJcEhZcwAADsMAAA7DAcdvqGQAAArQSURBVHhe7ZwLVBXVGsf/cw6igICIIhhIqBhdkQKMDHl4eIgvwp74SqtVYWZS0otaee3aqrzXa3kDAZfK9ZaK3khEJUyOgPhIQSVBUfGCqQSkhcir5BzmzpwZYM6LmYMH1xjzW2svz96zz3zf3vvbe/Zszl9i/ISHSUhIiAwZ+6+EhKiQAlNClEiBKSFKpMCUECVSYEqIEikwJUSJFJgSokTrHJMkHTDx8el4wJbJq5uv49pPl3CurAoNHYSmTLdOF03nkZt9Er9iqOHrDeXYk/MjmgjmPjTkfYGYE2qNU98cQOVtTrnGxlRYnszAsZ+7y2lGTZ6LCU3fYd+Zmz3Wk49RIPZRFzanQ90J7FBWQs3xpRPuPY/W0G2ZBocLWci72MbWYLCbMAMz7MqRceQKnAOeQrD8B/z3WA17lYEk7eAzcxaGX9wJZaWt4X7R6jd+W0LbRZLWGD0pGP5e92Oouh5VZSdwqLQGt9k2644jebsJv1ypQElxJRpJAo6+jyPK6RKycs+ilTtmg70x63EPXM3Jxpmb+v1nLnRWzGHwi5mDEE8HOAwZCmevYMQs/RSpXyYg0t3SQB1OsreGvMfrVrDQXGcgqengExOHBXOXYE6QNVvaCX2PZxHoxmY53B/0LKJ9h7I54/WIgbZdtp18pmFulB+cOn2xGQTjXcq9J/15PuLfWwx/K+2/Qzg8NBPPBrlrPjdaPYDYl2fBi24UF8cpWBgXgKFN7VTGWL9w+43flpB2kQPH4smVyfj74kh4UoEnG+6DmLfX4YuEcLgQnffW9sfRdTzCXvwYqWsX4kELEjdqCfi+lIDnvDvHnR4zS0x8PgHPjydR28AW9hHcWGFpR2VuEpKPszOLoGbWSyuR+O48VC1NxyW1fp0u6JmlaXcP1zuR+yE8UI0C5UUEKqbAVpmjtZreKapz2Ug+x3y2j3ZDePAJpCdnorHThmBbHWi0fBSvL5mMpWuOoNnA91oPH8TxV5dA4Z2G82fZQooRihB4VhTg0zq2gLff+G3xtYuk1hrP2OWYb1+ID15Lx4VWplzmEIDXV7+LpdPL8EHOdU2Z3ljLPPBC0josiMrG+3uzsX5XONbExWJ//Fe4TK2iFp7z8HLoTex4cy+uC+6/3sG7xyTIBpRsSoNyYDSenGS+LanlpHA81nIYuzYV4PyDYVA4shdERztK/7Melb6v4bWQIWyZDqpiHDwqQ+AUX8jYVZMkR0ARNAZnCvLxm+BBFGCLDyIAs6Otkbfxq66gpOloOIGN205jXEw0Ruuu7CxERzUuVrfDcdgwaq6QqMpIwncDZiMu2plqz0g8sTgaquxk7Lpq+PvmRFikqc+h/AIBV/eRbAGBIR7+8Pf160rertzHsf71sY7MA4uGJAchSDEJN4oO4n+3ClFYPgZTwjrvLT7IxkL8a30pxi+Oh8JBf1AIQo1TeUVQByrwUGczXcMQ5FaKgsKbbAENX7/x2+LFyR1uA6j3gvMqtqCb5rIKXHV2hXv3UGhB2PjhES81LlZcZvIdF/F1agFc5ryCJ5+JwzP2B5Cy3fDe3NwICkzaj9bWNtgM7ty5D8Do0PmYN787Pf0oN7D0r0d6de9VYBOMKX61KMqvpu7dhsOHTsFdEYFRRmayGLh1JAnrS0bj5fjpGGbAz46zShxuDUDYIwM0eQ9FMJyKD1JlmiwLX78x8NnqEXtbDG5tQYtmy6VDYxOaZXaw63oBG4CHF67GZ59+htVrkrB50zvwOPkltpV0B3Vb6WZsPD0OLy7ywNENW3BW1fdBSSMoMEnSCiOc7VH/8zW25DZO/Xs5Et5K6EorMy+x12j0r6cc6X7TdFQo8DBhQ+1d/4aVf/0I70TcB9WoUIR7shU0EJAZ8I4wVHgXoCfQsZR1OOr6At6c5aJ5yeBCEJeQV/gbAkIegwXpgbDgoTh28GjXWzADX78x8NnqkWs1qBvshBE2bJ6LmwtGtPyMmq5FXI2a4n3IyaFSyQ0MlF3A3q8OoY49gaEhiFYUKYvR3HAcyhNas6xPETTKMvfZmOZVhR9/bGJLeg9JDoNC4Y3LygzsK8xHIZ2+34l9pbYICfem9rT0ClGLuuuWGOnqzHyJhSSpx9B9MtTX1rIldxfi99PY+LkSwxe+hVku+l1XnVeIuoBQTPYJw2SrI1ByVh5T4bNllNYylFePQ8QM7aMKkpTDJyoEDhVncIEto1+2rlccwqGiIhRsT0XmFR/MmT8Bct1VmsqbunDfKQZbLJNbQC6zgLWjO7wVi/DxqqdgsS8NmVfZChRMHTknCZzXLhEI9azAga25yC8oYFM+tu45jkHBEZo9GkE046iyBC5PvIG5DzlqOoqUD8fERfGYOeQ4Dh7Xnrl6vpi0xJhGW/lmfJ5rjcgQA2dUtXkovOyLBctCgaI8lFFvsrqY0m892jICQdQgc7MSQ2I/xNsz/oJhgwjIrV0wMXYFEsKbkZmeZ/D0gyDqsDs9F7KoFxFj5Jj0bmIgMAci9P1sZO3Owtbkj7Bkpjsub1mO5ZvLOZteps7u7O6U9fUb8BcwrUZHhsLtDPXCo3MOpirJxzE8hogAZo9248BafJx5E8GJ6cj8Zicyv92EBP9fsHXVFyhs5HasAV9WTNWf9WaCIFQ4t+WfyKzWXw0J4lfk55+Hk/PvKFSyZzpamNZvPdnqiT9KU/DWJ4dgE/0hNuzYjW+3JyE+sBXfJr6HHVfYSgZoL8/A9lJXPP3CFNjc7SVSB9H/gp2EBeycRsC6pR71Lb1/NHIhLaZi1a5l8NNZOchfc5C4MAnlBlaUexW5tQPsOm6i4XdRD7Me/VJaQdKHxQMsDDwuOqBqV4H8EwXmvYoJu+o/D/ThsVrVjna9pJaCUiT0y8CUED9SYEqIEikwJUSJFJgSokQKTAlRIgWmhCiRAlNClEiBKSFKpMCUECWSStIIwlSG/D7y+ZFx4AZ8Z8/oViv+cQt1V86ipLgKTaDVjuax07Mq1Ph43dKMJ1c1atgXo/dh40K4vIRBZ8XkKuf6q0qS8k2wypDfR34/tPvL0c0HUa+sRtrqWIyV0bbMZccY2va7Utd4ce0b98X4fTrjwjQklaQO9A88hKsM+eFVNcron+3rqhXHIS7lH3guMgcrcjVFvNyZKpRvPIUiYNwFwrvH7HcqyTtQGZoLWgRWVtmOka7iFej1NcIirT+pJO9AZWguSIyCp4clfqmtZ0v6mp7HSzj8KlChCApMeiXuNypJk1SG5sICo0Kofpo3D88tisN7az/BTDIL27/nSn/7Ep7xEowwFagQBAVmv1JJmqQyNJePBCytbKmAt4W1vAkX9q3BsvhNKO+SyvZ1X/Q8XsIRpgIVgqCW9SuVpGCVoTl9bMel/alITUtD2uZtyFKWol7dGZTiVIz2NQYDsz+rJIWqDE31sbfcLTum0FN/9zoudDBwXMQo+UKoDlC13EDttSqc3rIcq5Q/MQe0mm0gUydUU5+BvJWHlXPXooTNG4NRSe5hVJIcnxmV5LuICEhG6Q8qRiVp/yqWJKYjVt4GlaUVbl8uwtZVKQZVklq+FK/D7JX7e/1fmTAqw3lY9sqH2BBnAzm1ojVWn8A3iZ8hm6MyFO7jnXG37AjDcH/HrKiiPhmPi5MmjoWkkuRgSCUpRGXYFz4aord27kVVqKSS1OLPqZK8F9vbLwNTQvyY67xBQsKsSIEpIUKA/wOI8mRVQeaEXgAAAABJRU5ErkJggg==;" parent="4rIS1Nqq_IUm1r-qYgcu-160" vertex="1">
          <mxGeometry y="34" width="190" height="45" as="geometry" />
        </mxCell>
        <mxCell id="4rIS1Nqq_IUm1r-qYgcu-162" value="" style="shape=image;verticalLabelPosition=bottom;labelBackgroundColor=default;verticalAlign=top;aspect=fixed;imageAspect=0;image=data:image/png,iVBORw0KGgoAAAANSUhEUgAAALoAAAAkCAYAAAA+YiDCAAAAAXNSR0IArs4c6QAAAARnQU1BAACxjwv8YQUAAAAJcEhZcwAADsMAAA7DAcdvqGQAAALSSURBVHhe7d2/btpAHAfwnxEMiB1RkQy8AlPJmDeoEZWSjB27dujAUFWw5TVwpFbpI3SETHkFhkSyxc7En+v97HMF+GIIAvvgvh/pZJ+5JBfzPXO2Y8UR0nw+J1YsFsNlmiAIqFarqZrert/v0O0Y+peE/hEV1BLgrCHoYAVnNpu9a+oymUyoWq2qml6eH23oXxL6txL0crmsNsGxyX2u1vROMUg6JvXv/8loqVQiuao2w7E4jrN1P+cZJJyMApwwBB2sgKCDFRB0sAKCDlZA0MEKCDpYYe2GEa6jHx9fR8cNo3VZ9M/YI3rw0A5DEZf+k3rhXUbUd9rkvaoqWKvAqd9lJGWJQ/7htklD+QnDnzJCDIla+4bdPPE+N7EUCgXtdlPKvv3jIAmevsj9z6sGGIqe7EtvpKqxUU9QZyD8sBK14T6H5accEuxlIFxyhdvh7d/Fj3DJxRWDl6hJ3nbZz/x+cNnm0O2Y70d7OM2hf+6u7di+/TMv6Bxo6skov8UXAxlg11O/sAp3GORwfXWQ8IAwJ+QMQU/atR3bt39mztE7DWqo1aQa3f4S9Hij/rDnokHNaE1xqXGhVgEUM4P+e0xjtar11F85Ub2irtocaSLokGBe0D9eU09G9+/mieerR+3PHgV8JaXVJTk94TmALEPZHiCdgUf0Fn3xXOq2+jLSMRnuyzuiT9dy4rIueLjfOKIDJBk5dandPJLvPdPVyvTk2fPVvDweCNFrX+kbDTp/aKy9Vi7n+vK1u0tcS7cdnjDKGA/Obfs5zzuP5/qEkSO/UCwWC6rX6wh6Bjjovu+rmt5yuQyXfHMkja7d5kDiOr+/LG6XNtim0ylVKhVV0zvF/uGInrG0NzF2ikdMHZP6lz4kAc4Egg5WQNDBCgg6WAFBBysg6GAFBB2sgGdGM8bX0eU+VzW9PK9TW/HMKL8JKMctkA/8a5cU6J/e6fWP6B/zPrBKTquZxQAAAABJRU5ErkJggg==;" parent="4rIS1Nqq_IUm1r-qYgcu-160" vertex="1">
          <mxGeometry y="79" width="190" height="36" as="geometry" />
        </mxCell>
        <mxCell id="4rIS1Nqq_IUm1r-qYgcu-169" value="" style="shape=image;verticalLabelPosition=bottom;labelBackgroundColor=default;verticalAlign=top;aspect=fixed;imageAspect=0;image=data:image/png,iVBORw0KGgoAAAANSUhEUgAAAMMAAAAoCAYAAABD/E7rAAAAAXNSR0IArs4c6QAAAARnQU1BAACxjwv8YQUAAAAJcEhZcwAADsMAAA7DAcdvqGQAAANFSURBVHhe7d0xT9tAFAfwZwQDyo5cBYZ8BSZSqUs+QqJUAqbO3apuoA5p2PgOnRIGBB+hS6W4E0s/QAYixWJnCmDeOz8ndmwnDlhOVP9/kmVf7jCnw8/P5wNheYzmPD09mf329rbZp8naTriuS7ZtaylZ3t8X/UuG/iXb0j1A6SEYABSCAUAhGACUNZlMCplAPzw80N7enpaSrXOChf7Fla1/qcGwu7urJeAxMvtN/2Gif+kyBUPaq9WdnR1KqCody7Km47DOHyZercbl3T/MGQAUggFAIRgAFIIBQCEYABSCAUAhGADUwkU3rDP46wxYdCtH/4rLDKM+tfjCkovLbJ/75GqVX3dBjhYB1kJWoOdpttBSDu57XpPP13W0zAYd8qjd88ZSMPVdb2BqNkt4HGRcZFsm73ZiPDYjtVDe3zdrO/E/9K+YzDAa0i11qXGkZVb/0qPm9Q39Hjl0cXDK9ef0McgOkSwSyhh/LzijtPy6ILPIZ0nZBmBVGhQREm0pVW808Lp8PqKm17vXj8IimcFv2+z7kRzJIE43eg7zdUF57PXa3LaTb34Jj0Ped6ys7QQyQ1zWdmJzMgPV6Yyvq3Gf6PQguOO3qD/S6jDOInecRb4f+79UNcsgpsgOqbbvH7l/bui23aKGKdt08o3D6N8Q2QHepNBXq/bxjdxm/c055MBImDSbR6qQ/Rpf/iHtGtX00Lg+pQ/BY1L9nMtDGmoVwCoKCQb3ip/zr+bu10cNvv/f0XA+O/DFz5PtGZMpFugMZgFmtjPOQwCrKyQY7E8topOvkcci9+qSp8yzR54pkwnO6VKDx/nFk+vpo1CUnLf543J6XucnJtHwDnw3jZFJSUrV2+nrVTmvv4VfpQYTbP0s0jbUTibQwWQ6YCbVSefMh5w3kPfELms7gQl0XNZ2Ikv/sAK9hMxFeIzM8aavoKJ/6TZrBRpgw+FvoJeQzBCMwzrvbPgb6Li8+4fMAKAQDAAKwQCgEAwACsEAoBAMAArBAKAQDADKkt/Z0OOpl5cXqlarWgIeI7OXcRFbW4vvIUntwot3QsrPz8/mOGg33ybs8fGRKpWKlpKhf+/rH/7BoUL/4srWv8UhClAiCAYAg+gVVA8T68jty2EAAAAASUVORK5CYII=;" parent="4rIS1Nqq_IUm1r-qYgcu-160" vertex="1">
          <mxGeometry y="115" width="190" height="40" as="geometry" />
        </mxCell>
        <mxCell id="4rIS1Nqq_IUm1r-qYgcu-163" value="" style="shape=image;verticalLabelPosition=bottom;labelBackgroundColor=default;verticalAlign=top;aspect=fixed;imageAspect=0;image=data:image/png,iVBORw0KGgoAAAANSUhEUgAAAMIAAAAjCAYAAADG+dUWAAAAAXNSR0IArs4c6QAAAARnQU1BAACxjwv8YQUAAAAJcEhZcwAADsMAAA7DAcdvqGQAAAO2SURBVHhe7Z27TuNAFIaPERSIHgUBRaR9AiqMRBOJB1hHQVpSrXgFOrIU2aSjpqWyV1qU7AOslGalmIqGdqUUIDmip+LiPXMLDrETWDnYSv5PsjxjH8+MJvPPmcmJFStkKMLj46M8Ly4uyvM4+v0+FQoFnYvnreWlbSdA+0ZB++JZ0GcA5hrr4eHhvz3C3d0dra6u6lw8Wc4YaN8oaF88sUJYXl7WOTBtuP91Kp5ZGWh5b1/sHmFpaYleXQZTwLKsif2c5UDDHgGAOQNCAICBEABgIAQAGAgBAAZCAICBEABgIAQAGCsIgkFERwR4np6eaH19PfWAmv/dotNPAbW+jA+ApMqtR+XNHh2Fx2TrS3lC9Df3v87F8/z8LM8LC+PnrDi71wE78/kKjN24oN79/T2trKzoXDyz0r4PiyxDCKOM+5ANsxK5zXv7xstkWlw2ydpvUnPfkoPBssrk3ZrrHvWVlRrIVpN8memTN7C3qHkpLw5smiy04Xs+NTer1KYa7ZgypK2xM+Uyst6yurd/Rmdcz6B8Rog4mgcziPAIUfSP8HQuPbp1Ch0vUBm/Ieto+CIThG6FQqp3Od0NG+SE7o24znc8R19Xz5u0el7b3bihw2WZsqVdxeVSzb0GlyrvcNkJdtHymGi96jlTRrq8pZ/F5yGOSaRtJxDL5kmkXe9b7QRpti8bjyBpUGlbnAtU+sxDWVKkYqVNrT/CJ/Sp86tNjT2xqPGpc8JPyDSzfUgu2/WEF5E4VN5VLtLe4+Eex22PrrjOI700s7+65Fy0qDMoY4uKGypV2C2Tc91TnumyQ7V6KZdLK5Ae2QmhwoNeJ19Qomj/7fHA7VDrwohFUbPNsmaNqhdEVz2ziHoZxImwENo6Kdko8lMRou3ZKFGZlEj837UXAYKZJUOPEI+cjU865IuBOzQTO8RLF7m5NMe7Nt488I3fkUgPkYQQJLFn8tgTDYsRzCa5E4KcjSu8wbWjM7FNpXqbqud6e6s3ve/awEoPUKPTH8qL+Oe8ka6UqZTgSYQg6aCKZdGckD8hDPYMwzOx/S0g93pHLY02q0ReQMeTZmo9+NW3RjYd37g8uNdkGTs803d/HnBtCUhBRvYlYKZJfFVTLD3mmg+IQQhBcv/rXDxZfk8/T69q5tAj5AARV2Cvs+XnMxAH0gfvLGeI8AiT+jnLGReRZQDmDAgBAAZCAICBEABgIAQAGAgBAAZCAIBBZDlDEFkeJav2JXoE+ZseHFM9QH7AP+agfYnMT/uI/gGoglod1/4wWAAAAABJRU5ErkJggg==;" parent="4rIS1Nqq_IUm1r-qYgcu-160" vertex="1">
          <mxGeometry y="155" width="190" height="35" as="geometry" />
        </mxCell>
        <mxCell id="4rIS1Nqq_IUm1r-qYgcu-165" value="" style="line;html=1;strokeWidth=1;align=left;verticalAlign=middle;spacingTop=-1;spacingLeft=3;spacingRight=3;rotatable=0;labelPosition=right;points=[];portConstraint=eastwest;" parent="4rIS1Nqq_IUm1r-qYgcu-160" vertex="1">
          <mxGeometry y="190" width="190" height="8" as="geometry" />
        </mxCell>
        <mxCell id="4rIS1Nqq_IUm1r-qYgcu-173" value="" style="shape=image;verticalLabelPosition=bottom;labelBackgroundColor=default;verticalAlign=top;aspect=fixed;imageAspect=0;image=data:image/png,iVBORw0KGgoAAAANSUhEUgAAALoAAAAZCAYAAACGhjSxAAAAAXNSR0IArs4c6QAAAARnQU1BAACxjwv8YQUAAAAJcEhZcwAADsMAAA7DAcdvqGQAAAS/SURBVHhe7dt/TNR1HMfx55cv4HGKcBDewWEHqEtTytrUpivStLEh/kRMlAxjmoojZ/MPM0NLnXO1Vi3/yTL7o0KdW84yN5coZVmilb9mSxNDDo0gTznuF9++d36WoNgJnpV3n8c/fN6f7+e+9/luLz58vl/ulMHZQzUkKcxFiZ+SFNZk0KWIIIMuRQQZdCkiyKBLEUEGXYoIdzzoWq9hzFlWxug+t/4UU0vKZcXaIjIVDa1vAWtWTsSsdf8paHfmIIWXO7+iaz68Hg/eW8yYpqkMKZhMTNVOzmgK1O5kr5bPtKExYkQ3dHEOmVNW8mrhAFFJ4eCmQde0WOKTehOLhmpMwRKviiP6iwwppJt7E33dKqtp0SRYbKQnxooe3eWjbN/4Ed9d7HhOpUcSaZbEQLuD+BymjblI9b7mQKkoTqr3n+PRwlxM3V3VuzCHaKMJc5qNDGsqyfo4w/Xzk+5Kah+zpUK0O1JzWPZJCf3VJ1hYXsiEoiJGGc7SmL2YNeVTyC0oIm9gM9/s/RkH0WTkLmX1K88zPecRxhbOYHRKHQcO1uJUH9fPU0rPz3Zz0uNvl5CljWRuWSHjpxVTMLIXv1Qdwu7VV2+/ByezINvOlm01NClX+9yajXEz+3G+sppziHHtaFomUyqWk6ce5sCZFtHbTuBabm0O9z+1moVjrJjSBzJ8lA1H1Veccd/4ntLdJcjWZTAPxVeyaPZMZi3dRdzUl5iXWElZSTHFczdx4eHp5N2nD1P7MWyEgYPr5lBUUkLxsxtpHF3MeNvVs3Q0iCFxW1hcWsLTs1dQbZzIrDyLOAZJqWaM9nrOizrgt3rsMRZSU0R9Ax/uVhcub5uog7n5HI5+uIT1X/5O8/43eG7+evZcliEPB0GCfpZ9O2pw6Htl18nvOXapmcNV3+JoU/A2HODIr8ncY9a3F22n2LpqJR8cuUSP5HvJyuoFrnTSM8VpOjjL158fp0VfrX2OGvbo+4lUa19xDNKtFpr1oDvFah7gqaOhyULatWEdKEotO9e9yNv7GkVPMP88Byn8BAm6kysO0aRN3yJ4cbtFiRefvoD646iRyIji5bz+7mY2rH2B0vz+GPU/9+2zeo2LVqdo6q60tKCq0aLS6S/SOtmLB7pCtrgGmYMUdkLz1GXIDMom9qR6VSnPzCtnacX7HPpTHOuiujo7JosFQ/uwx6RiMTVQf07U/wL911S0pHAQmqCrKlGeK/zR5AqsvIlDJ/FYp9uW4Brr7TgtVqyiDrCmYfbaqb8g6utoWgLZ+TMZ198gem6P09lKQuYAzFHyiUu4CE3Qf9jKphobizZ/zKaN77FukodTp8WxrjrxEyd628gyilpn7JeB6dQxjt8sd0oGOQVTyR+eKjpuT+3ubVTFTuCd7a8xOVmGPRyE7IsXmn7DGmcyk+C7SIPDJ3q7zv8PowcWbKDg9BJe/sKh13E8WfEWg3bM580ajxh1Iy1KJdqn3zd0fmPQZf7r6REXg9fpoi1E55T+O6FZ0XWKotHabL+tkPspio8fKz9FGTsh8BEA+o5nnGEXlYf+vgvulNLmC1nI/fzX4251y5CHCflVOikihGxFl6T/Mxl0KSLIoEsRQQZdiggy6FIEgL8AP5SvEvE3QDAAAAAASUVORK5CYII=;" parent="4rIS1Nqq_IUm1r-qYgcu-160" vertex="1">
          <mxGeometry y="198" width="190" height="25" as="geometry" />
        </mxCell>
      </root>
    </mxGraphModel>
  </diagram>
</mxfile>
